<svg width="26" height="25" viewBox="0 0 26 25" fill="none" xmlns="http://www.w3.org/2000/svg">
<path d="M12.9618 0C6.07946 0 0.5 5.57932 0.5 12.4616C0.5 19.3442 6.07946 24.9231 12.9618 24.9231C19.8448 24.9231 25.4237 19.3442 25.4237 12.4616C25.4237 5.57976 19.8448 0.000595235 12.9616 0.000595235L12.9618 0ZM18.6766 17.9732C18.4534 18.3393 17.9743 18.4554 17.6082 18.2307C14.6823 16.4435 10.999 16.0387 6.66116 17.0298C6.24315 17.125 5.82649 16.8631 5.73125 16.4449C5.63557 16.0268 5.89643 15.6101 6.31548 15.5149C11.0625 14.4299 15.1344 14.8973 18.4192 16.9048C18.7853 17.1295 18.9013 17.6071 18.6766 17.9732ZM20.2019 14.5796C19.9207 15.0372 19.3225 15.1815 18.8656 14.9003C15.5159 12.8409 10.4098 12.2446 6.44777 13.4473C5.93393 13.6025 5.39122 13.3129 5.23527 12.8C5.08051 12.2862 5.37024 11.7445 5.88318 11.5882C10.4089 10.215 16.0353 10.8802 19.882 13.244C20.3388 13.5253 20.4832 14.1234 20.2019 14.5796ZM20.3329 11.0463C16.3165 8.66072 9.69003 8.44137 5.85536 9.60521C5.23958 9.79196 4.58839 9.44435 4.40179 8.82857C4.21518 8.2125 4.5625 7.56176 5.17872 7.37455C9.58065 6.03824 16.8984 6.29643 21.5225 9.04152C22.0775 9.37024 22.2591 10.0856 21.9302 10.6387C21.6028 11.1926 20.8856 11.3752 20.3335 11.0463H20.3329Z" fill="#ECECEC"/>
</svg>
