<svg width="26" height="25" viewBox="0 0 26 25" fill="none" xmlns="http://www.w3.org/2000/svg">
<g clip-path="url(#clip0_58_49)">
<path d="M25.251 7.5C25.251 7.5 25.0068 5.77637 24.2549 5.01953C23.3027 4.02344 22.2383 4.01855 21.75 3.95996C18.2539 3.70605 13.0049 3.70605 13.0049 3.70605H12.9951C12.9951 3.70605 7.74609 3.70605 4.25 3.95996C3.76172 4.01855 2.69727 4.02344 1.74512 5.01953C0.993164 5.77637 0.753906 7.5 0.753906 7.5C0.753906 7.5 0.5 9.52637 0.5 11.5479V13.4424C0.5 15.4639 0.749023 17.4902 0.749023 17.4902C0.749023 17.4902 0.993164 19.2139 1.74023 19.9707C2.69238 20.9668 3.94238 20.9326 4.49902 21.04C6.50098 21.2305 13 21.2891 13 21.2891C13 21.2891 18.2539 21.2793 21.75 21.0303C22.2383 20.9717 23.3027 20.9668 24.2549 19.9707C25.0068 19.2139 25.251 17.4902 25.251 17.4902C25.251 17.4902 25.5 15.4687 25.5 13.4424V11.5479C25.5 9.52637 25.251 7.5 25.251 7.5ZM10.417 15.7422V8.71582L17.1699 12.2412L10.417 15.7422Z" fill="#ECECEC"/>
</g>
<defs>
<clipPath id="clip0_58_49">
<rect width="25" height="25" fill="white" transform="translate(0.5)"/>
</clipPath>
</defs>
</svg>
