<svg width="26" height="25" viewBox="0 0 26 25" fill="none" xmlns="http://www.w3.org/2000/svg">
<g clip-path="url(#clip0_58_48)">
<path d="M13 2.25098C16.3398 2.25098 16.7354 2.26562 18.0488 2.32422C19.2695 2.37793 19.9287 2.58301 20.3682 2.75391C20.9492 2.97852 21.3691 3.25195 21.8037 3.68652C22.2432 4.12598 22.5117 4.54102 22.7363 5.12207C22.9072 5.56152 23.1123 6.22559 23.166 7.44141C23.2246 8.75977 23.2393 9.15527 23.2393 12.4902C23.2393 15.8301 23.2246 16.2256 23.166 17.5391C23.1123 18.7598 22.9072 19.4189 22.7363 19.8584C22.5117 20.4395 22.2383 20.8594 21.8037 21.2939C21.3643 21.7334 20.9492 22.002 20.3682 22.2266C19.9287 22.3975 19.2646 22.6025 18.0488 22.6563C16.7305 22.7148 16.335 22.7295 13 22.7295C9.66016 22.7295 9.26465 22.7148 7.95117 22.6563C6.73047 22.6025 6.07129 22.3975 5.63184 22.2266C5.05078 22.002 4.63086 21.7285 4.19629 21.2939C3.75684 20.8545 3.48828 20.4395 3.26367 19.8584C3.09277 19.4189 2.8877 18.7549 2.83398 17.5391C2.77539 16.2207 2.76074 15.8252 2.76074 12.4902C2.76074 9.15039 2.77539 8.75488 2.83398 7.44141C2.8877 6.2207 3.09277 5.56152 3.26367 5.12207C3.48828 4.54102 3.76172 4.12109 4.19629 3.68652C4.63574 3.24707 5.05078 2.97852 5.63184 2.75391C6.07129 2.58301 6.73535 2.37793 7.95117 2.32422C9.26465 2.26562 9.66016 2.25098 13 2.25098ZM13 0C9.60645 0 9.18164 0.0146484 7.84863 0.0732422C6.52051 0.131836 5.60742 0.34668 4.81641 0.654297C3.99121 0.976562 3.29297 1.40137 2.59961 2.09961C1.90137 2.79297 1.47656 3.49121 1.1543 4.31152C0.84668 5.10742 0.631836 6.01562 0.573242 7.34375C0.514648 8.68164 0.5 9.10645 0.5 12.5C0.5 15.8936 0.514648 16.3184 0.573242 17.6514C0.631836 18.9795 0.84668 19.8926 1.1543 20.6836C1.47656 21.5088 1.90137 22.207 2.59961 22.9004C3.29297 23.5938 3.99121 24.0234 4.81152 24.3408C5.60742 24.6484 6.51562 24.8633 7.84375 24.9219C9.17676 24.9805 9.60156 24.9951 12.9951 24.9951C16.3887 24.9951 16.8135 24.9805 18.1465 24.9219C19.4746 24.8633 20.3877 24.6484 21.1787 24.3408C21.999 24.0234 22.6973 23.5938 23.3906 22.9004C24.084 22.207 24.5137 21.5088 24.8311 20.6885C25.1387 19.8926 25.3535 18.9844 25.4121 17.6563C25.4707 16.3232 25.4854 15.8984 25.4854 12.5049C25.4854 9.11133 25.4707 8.68652 25.4121 7.35352C25.3535 6.02539 25.1387 5.11231 24.8311 4.32129C24.5234 3.49121 24.0986 2.79297 23.4004 2.09961C22.707 1.40625 22.0088 0.976563 21.1885 0.65918C20.3926 0.351562 19.4844 0.136719 18.1562 0.078125C16.8184 0.0146484 16.3936 0 13 0Z" fill="#ECECEC"/>
<path d="M13 6.0791C9.45508 6.0791 6.5791 8.95508 6.5791 12.5C6.5791 16.0449 9.45508 18.9209 13 18.9209C16.5449 18.9209 19.4209 16.0449 19.4209 12.5C19.4209 8.95508 16.5449 6.0791 13 6.0791ZM13 16.665C10.7002 16.665 8.83496 14.7998 8.83496 12.5C8.83496 10.2002 10.7002 8.33496 13 8.33496C15.2998 8.33496 17.165 10.2002 17.165 12.5C17.165 14.7998 15.2998 16.665 13 16.665Z" fill="#ECECEC"/>
<path d="M21.1738 5.8252C21.1738 6.65528 20.5 7.32422 19.6748 7.32422C18.8447 7.32422 18.1758 6.65039 18.1758 5.8252C18.1758 4.99512 18.8496 4.32617 19.6748 4.32617C20.5 4.32617 21.1738 5 21.1738 5.8252Z" fill="#ECECEC"/>
</g>
<defs>
<clipPath id="clip0_58_48">
<rect width="25" height="25" fill="white" transform="translate(0.5)"/>
</clipPath>
</defs>
</svg>
