<svg width="26" height="25" viewBox="0 0 26 25" fill="none" xmlns="http://www.w3.org/2000/svg">
<g clip-path="url(#clip0_58_46)">
<path d="M13 0C6.0965 0 0.5 5.5965 0.5 12.5C0.5 18.362 4.536 23.281 9.9805 24.632V16.32H7.403V12.5H9.9805V10.854C9.9805 6.5995 11.906 4.6275 16.083 4.6275C16.875 4.6275 18.2415 4.783 18.8005 4.938V8.4005C18.5055 8.3695 17.993 8.354 17.3565 8.354C15.307 8.354 14.515 9.1305 14.515 11.149V12.5H18.598L17.8965 16.32H14.515V24.9085C20.7045 24.161 25.5005 18.891 25.5005 12.5C25.5 5.5965 19.9035 0 13 0Z" fill="#ECECEC"/>
</g>
<defs>
<clipPath id="clip0_58_46">
<rect width="25" height="25" fill="white" transform="translate(0.5)"/>
</clipPath>
</defs>
</svg>
