<?xml version="1.0" standalone="no"?>
<!DOCTYPE svg PUBLIC "-//W3C//DTD SVG 20010904//EN"
 "http://www.w3.org/TR/2001/REC-SVG-20010904/DTD/svg10.dtd">
<svg version="1.0" xmlns="http://www.w3.org/2000/svg"
 width="3000.000000pt" height="3000.000000pt" viewBox="0 0 3000.000000 3000.000000"
 preserveAspectRatio="xMidYMid meet">

<g transform="translate(0.000000,3000.000000) scale(0.100000,-0.100000)"
fill="#000000" stroke="none">
<path d="M17525 21859 c-165 -4 -752 -7 -1305 -7 -605 1 -1148 -3 -1365 -10
-198 -7 -540 -17 -760 -22 -220 -6 -546 -16 -725 -23 -542 -20 -746 -14 -1205
35 -206 23 -230 23 -1405 23 -898 0 -1231 -3 -1340 -13 -171 -15 -180 -17
-180 -43 0 -23 -23 -25 -40 -4 -9 11 -16 13 -23 6 -18 -18 2 -26 96 -34 108
-10 122 -12 247 -31 96 -16 108 -18 170 -33 42 -11 911 2 1190 17 700 37 1249
46 1445 21 120 -14 134 -19 114 -33 -10 -7 -8 -8 6 -2 11 4 49 8 85 10 36 1
90 5 120 9 80 9 482 27 645 27 150 0 312 -14 385 -34 25 -7 72 -12 105 -13
146 -1 771 28 780 36 5 5 -29 10 -85 10 -52 1 -126 5 -165 9 l-70 7 90 2 c478
12 1525 8 1511 -6 -2 -2 -125 -8 -272 -13 -438 -15 -568 -23 -509 -31 62 -9
627 -29 830 -29 83 0 166 -4 185 -8 26 -6 64 -1 145 19 180 46 355 55 785 40
200 -7 385 -16 410 -21 82 -17 380 -42 418 -35 20 3 449 10 952 16 503 5 1038
12 1188 16 210 4 272 3 272 -6 0 -13 41 -9 90 9 28 11 194 35 345 51 125 13
139 20 89 44 -93 44 -470 55 -1814 53 -624 -1 -1270 -5 -1435 -9z m2840 -20
c94 -4 197 -8 231 -8 48 0 66 -4 85 -21 l24 -22 -25 8 c-39 12 -128 15 -479
20 -248 4 -358 1 -472 -10 -119 -13 -279 -16 -787 -16 -403 0 -631 4 -621 10
9 5 308 14 685 21 368 6 721 14 784 18 156 11 370 11 575 0z m-2392 -46 c-24
-2 -62 -2 -85 0 -24 2 -5 4 42 4 47 0 66 -2 43 -4z m-514 -17 c-2 -3 -85 -7
-184 -9 -99 -3 -171 -1 -160 3 20 9 352 14 344 6z"/>
<path d="M11565 21721 l-60 -7 75 -6 c115 -11 672 -18 695 -9 13 5 -11 10 -70
14 -140 11 -573 16 -640 8z"/>
<path d="M11045 21670 c-153 -5 -140 -6 127 -8 189 -1 299 2 303 8 7 11 -117
11 -430 0z"/>
<path d="M10448 21663 c12 -2 30 -2 40 0 9 3 -1 5 -23 4 -22 0 -30 -2 -17 -4z"/>
<path d="M14623 21633 c119 -2 315 -2 435 0 119 1 21 2 -218 2 -239 0 -337 -1
-217 -2z"/>
<path d="M11025 21304 c-88 -36 -176 -72 -196 -80 -23 -10 -70 -53 -129 -120
-140 -158 -177 -208 -241 -334 -71 -138 -79 -153 -148 -255 -83 -124 -140
-200 -212 -284 -73 -85 -170 -261 -287 -521 -160 -356 -267 -646 -383 -1035
-4 -16 -15 -52 -23 -80 -19 -61 -84 -310 -101 -385 -7 -30 -21 -89 -30 -130
-10 -41 -21 -84 -25 -95 -5 -11 -9 -27 -9 -35 0 -8 -5 -35 -11 -60 -6 -25 -11
-54 -11 -65 0 -10 -4 -25 -10 -31 -6 -7 -9 -23 -7 -36 2 -12 -1 -23 -7 -23 -5
0 -9 8 -7 19 2 15 0 16 -12 7 -16 -13 -43 -4 -64 22 -19 22 -117 20 -163 -4
-22 -11 -44 -17 -49 -14 -6 4 -13 0 -16 -8 -3 -8 -25 -28 -50 -43 -24 -15 -44
-36 -44 -45 0 -9 -6 -22 -14 -28 -15 -13 -17 -20 -18 -83 -1 -22 -7 -39 -16
-43 -11 -4 -12 -8 -2 -20 9 -11 7 -19 -10 -37 -12 -13 -29 -33 -38 -46 -8 -13
-29 -30 -46 -39 -17 -9 -38 -23 -46 -32 -15 -16 -42 -33 -92 -58 -15 -8 -30
-19 -34 -24 -3 -5 -14 -7 -25 -4 -11 4 -19 2 -19 -4 0 -6 -11 -11 -25 -11 -14
0 -25 -4 -25 -9 0 -5 -12 -11 -26 -14 -29 -5 -29 -18 -7 142 5 32 3 42 -5 37
-7 -4 -12 -16 -12 -27 0 -11 -9 -62 -20 -112 -24 -105 -33 -153 -56 -287 -9
-52 -22 -129 -31 -170 -8 -41 -16 -91 -18 -110 -10 -86 -23 -178 -30 -213 -7
-32 -9 -35 -20 -21 -7 10 -19 14 -31 10 -16 -5 -19 -13 -16 -40 3 -27 7 -33
23 -29 14 4 19 0 19 -13 0 -16 -9 -20 -54 -22 -61 -3 -72 8 -55 56 6 17 6 38
1 53 -5 13 -5 74 0 134 7 98 5 160 -8 365 -2 30 -4 74 -4 98 1 42 -14 57 -24
25 -11 -37 -54 -262 -67 -343 -7 -47 -16 -89 -22 -95 -14 -15 1 133 39 390 46
308 55 382 45 407 -7 20 -8 19 -19 -8 -19 -49 -50 -185 -62 -279 -7 -49 -23
-153 -35 -230 -26 -155 -52 -410 -63 -611 -8 -153 4 -474 18 -488 7 -7 10 2
11 25 l1 34 8 -35 c21 -89 49 -640 32 -640 -13 0 -19 56 -34 278 -6 94 -14
172 -18 172 -4 0 -8 -6 -7 -12 0 -7 -1 -152 -3 -323 l-3 -310 -12 115 c-7 63
-13 160 -14 215 -1 156 -31 558 -42 578 -6 12 -9 129 -6 327 2 170 1 307 -3
305 -18 -11 -35 -308 -35 -600 0 -487 36 -1189 46 -885 l3 95 6 -105 c6 -107
2 -139 -11 -104 -12 30 -11 -17 6 -236 8 -107 17 -252 20 -321 3 -70 10 -151
16 -180 5 -30 12 -73 16 -96 3 -24 9 -43 14 -43 5 0 6 20 3 44 -4 24 -2 46 3
49 6 4 13 -28 17 -81 9 -116 50 -396 82 -557 21 -104 120 -524 140 -594 3 -9
-4 0 -15 20 -11 20 -31 77 -46 128 -14 51 -32 109 -40 129 -8 20 -28 93 -45
161 -16 69 -32 127 -35 129 -23 23 34 -255 91 -444 25 -83 33 -143 12 -94 -35
86 -158 573 -196 785 -39 212 -72 483 -79 640 -2 66 -11 203 -20 305 -8 102
-16 210 -18 240 -1 30 -8 179 -15 330 -31 620 -14 1248 40 1590 11 69 29 181
40 250 50 324 221 954 389 1442 55 158 228 606 291 753 124 291 304 594 481
814 128 158 123 151 105 151 -28 0 -17 29 21 55 49 33 75 34 45 2 -25 -26 -29
-47 -9 -47 7 0 37 19 67 41 53 40 57 41 113 36 31 -3 57 -1 57 4 0 5 11 9 24
9 13 0 26 3 28 8 4 10 171 92 187 92 26 0 159 70 165 86 10 26 3 26 -48 5 -25
-11 -46 -16 -46 -12 0 11 106 91 121 91 6 0 9 -7 5 -15 -20 -54 114 51 155
122 32 54 35 65 15 57 -8 -3 -18 7 -26 25 -7 17 -16 31 -20 31 -5 0 -15 3 -23
6 -10 3 -32 -19 -67 -67 -45 -62 -51 -75 -41 -91 13 -22 7 -38 -16 -38 -11 0
-14 6 -9 27 l7 26 -28 -18 c-59 -38 -103 -77 -123 -109 -32 -53 -141 -113
-220 -121 -39 -4 -81 -16 -105 -30 -26 -15 -66 -25 -115 -30 -83 -8 -113 -20
-150 -60 -21 -22 -22 -28 -10 -36 13 -8 11 -13 -9 -30 -13 -11 -30 -18 -36
-15 -15 5 -43 -23 -112 -114 -331 -435 -623 -998 -830 -1605 -52 -153 -153
-498 -187 -635 -133 -550 -184 -857 -247 -1500 -15 -155 -23 -336 -29 -650 -7
-423 -4 -521 21 -644 9 -45 9 -64 0 -78 -17 -27 -14 -97 4 -104 8 -4 15 -12
15 -19 0 -8 7 -21 17 -30 9 -9 12 -20 7 -23 -24 -18 -48 -97 -26 -90 4 2 18
-8 31 -21 20 -20 22 -26 10 -35 -8 -6 -20 -23 -27 -37 -12 -23 -12 -31 2 -57
19 -36 21 -62 5 -62 -7 0 -9 -16 -4 -47 3 -27 7 -70 9 -98 4 -82 5 -85 26 -85
23 0 27 -18 5 -26 -8 -4 -15 -17 -15 -30 0 -19 5 -23 22 -21 17 1 24 -4 26
-21 2 -13 -3 -24 -12 -28 -19 -7 -22 -35 -4 -32 7 2 14 -7 16 -19 2 -16 -2
-23 -13 -23 -14 0 -16 -6 -10 -27 3 -16 10 -62 15 -103 5 -41 14 -97 20 -125
6 -27 18 -90 25 -140 17 -113 45 -237 57 -249 4 -6 8 -26 8 -45 1 -20 10 -72
21 -116 11 -44 29 -116 39 -160 26 -111 30 -127 40 -150 5 -11 16 -51 25 -90
22 -95 56 -208 67 -219 4 -6 8 -22 8 -37 0 -15 5 -31 10 -34 6 -3 10 -15 10
-26 0 -10 5 -19 10 -19 15 0 32 -47 36 -101 3 -35 12 -55 34 -79 16 -18 30
-38 30 -46 0 -8 4 -14 9 -14 12 0 29 -77 41 -190 6 -52 16 -119 23 -148 l13
-54 46 -3 c39 -2 47 0 51 17 3 12 10 17 17 13 18 -11 -14 -50 -41 -51 -67 -2
-69 -3 -69 -34 0 -21 6 -32 18 -36 9 -3 29 -11 45 -19 22 -12 33 -12 55 -2 15
6 29 14 32 17 3 3 20 10 39 17 l34 12 -6 -54 c-3 -31 -18 -80 -33 -110 -15
-30 -24 -58 -20 -62 4 -4 23 9 42 30 19 20 39 37 44 37 26 0 -32 -140 -91
-217 -57 -76 -31 -66 30 11 132 166 170 374 111 606 -11 43 -51 160 -89 261
-104 277 -166 488 -149 505 3 2 26 -48 52 -113 57 -144 107 -246 124 -251 15
-4 16 46 2 115 -5 26 -14 104 -20 173 -6 69 -17 163 -25 210 -50 283 -54 314
-44 332 5 10 16 18 24 18 8 0 20 9 27 20 19 29 40 26 32 -5 -3 -14 -2 -25 4
-25 5 0 13 -21 17 -46 4 -26 10 -54 15 -63 5 -9 13 -34 18 -56 35 -146 157
-523 250 -776 27 -74 62 -184 78 -245 24 -97 28 -128 28 -276 1 -93 4 -168 9
-168 4 0 7 22 7 49 0 27 5 51 11 53 6 2 14 19 19 38 l8 35 1 -38 c1 -21 9 -54
20 -75 32 -64 56 -157 86 -332 2 -14 23 -43 47 -64 24 -22 74 -69 112 -104
l69 -65 138 7 c112 6 150 4 201 -9 43 -12 64 -13 66 -6 5 14 22 14 22 0 0 -6
6 -25 14 -42 8 -18 40 -97 71 -177 32 -80 66 -163 75 -185 61 -141 107 -238
217 -460 118 -237 130 -256 221 -363 54 -62 115 -135 137 -163 22 -28 48 -55
58 -61 10 -5 32 -28 48 -51 17 -23 110 -117 207 -210 97 -92 195 -185 217
-206 22 -21 49 -41 60 -44 11 -4 -6 16 -37 44 -98 87 -227 257 -357 472 -12
20 -20 37 -18 37 3 0 16 -17 28 -37 29 -47 196 -254 325 -405 55 -64 101 -124
101 -134 0 -10 9 -25 22 -33 12 -9 56 -44 99 -79 142 -117 152 -105 25 31
-328 350 -608 744 -795 1119 -125 251 -278 609 -278 651 0 6 37 -67 83 -163
285 -601 543 -1032 784 -1311 125 -145 131 -142 10 4 -188 228 -329 439 -460
687 -98 187 -276 574 -345 752 -128 326 -242 695 -256 828 -3 31 -24 121 -46
200 -116 418 -142 516 -164 630 -24 123 -31 210 -18 210 7 0 47 -122 78 -239
15 -54 48 -111 65 -111 11 0 41 68 41 95 1 11 -2 45 -6 75 -9 67 -10 65 5 120
15 59 16 140 0 215 -6 33 -23 134 -37 225 -13 91 -29 194 -35 230 -5 36 -18
139 -29 230 -10 91 -26 221 -34 290 -9 69 -22 215 -30 325 -14 188 -21 269
-46 572 -5 66 -10 155 -10 196 0 73 0 74 -24 70 -14 -3 -32 -13 -42 -24 -14
-16 -18 -16 -31 -4 -31 32 -11 279 24 292 7 3 11 9 8 13 -3 5 10 24 28 44 l34
35 7 163 c6 148 10 225 32 575 7 105 6 111 -12 110 -15 -2 -20 6 -22 36 -2 21
1 37 7 37 6 0 11 14 11 30 0 17 -5 30 -11 30 -7 0 -9 49 -5 154 4 126 2 157
-10 167 -16 13 -19 49 -4 49 16 0 11 30 -10 59 l-19 28 24 13 c30 16 31 31 5
55 -24 22 -25 42 -4 66 15 16 14 20 -5 40 -12 13 -21 26 -21 31 0 14 -28 9
-34 -7 -3 -8 -19 -95 -36 -192 -40 -232 -44 -249 -55 -245 -6 1 -9 19 -7 40 5
72 54 419 73 527 50 272 56 376 24 389 -15 5 -26 -36 -50 -184 -9 -52 -20
-117 -25 -145 -45 -243 -96 -626 -109 -825 -33 -481 -36 -727 -12 -900 5 -41
11 -84 11 -95 1 -11 6 -1 12 23 5 23 13 42 17 42 10 0 41 -220 47 -330 4 -73
-8 -152 -19 -120 -24 73 -38 137 -43 204 -9 122 -24 72 -31 -106 -3 -84 -9
-159 -13 -167 -8 -15 -12 20 -29 292 -6 100 -15 164 -23 174 -14 18 -18 602
-5 811 4 69 4 122 -1 122 -5 0 -12 -60 -16 -132 -4 -73 -10 -167 -12 -208 -19
-300 -20 -976 -1 -890 4 19 8 60 10 90 2 30 4 -2 5 -72 3 -180 20 -502 37
-713 33 -392 46 -533 55 -590 5 -33 16 -136 25 -230 8 -93 20 -199 26 -235 5
-36 12 -78 15 -94 2 -16 2 -27 -2 -24 -10 11 -23 77 -49 253 -14 94 -30 193
-36 220 -5 28 -20 138 -34 245 -13 107 -29 222 -34 255 -9 55 -9 51 -5 -40 6
-154 11 -214 23 -295 7 -41 14 -106 16 -145 3 -66 3 -67 -6 -20 -23 133 -36
245 -84 695 -31 295 -37 506 -32 1049 8 840 49 1351 156 1916 22 116 47 251
56 300 9 50 29 146 45 215 15 69 33 152 40 185 12 63 23 105 91 350 75 271
175 549 381 1060 77 191 225 506 303 645 301 534 520 806 940 1164 47 39 15
32 -160 -40z m-467 -594 c-7 -10 -14 -17 -17 -15 -4 4 18 35 25 35 2 0 -1 -9
-8 -20z m-44 -69 c-16 -27 -34 -41 -34 -26 0 9 25 50 35 57 18 13 17 0 -1 -31z
m-111 -162 c-10 -19 -20 -36 -23 -39 -3 -3 -18 -30 -34 -60 -16 -30 -32 -57
-36 -60 -4 -3 -13 -20 -21 -37 -8 -18 -17 -33 -21 -33 -5 0 -8 -5 -8 -11 0 -5
-11 -27 -25 -47 -34 -51 -31 -23 6 52 38 75 66 122 102 169 15 20 27 40 27 46
0 6 4 11 8 11 5 0 14 12 21 26 6 15 14 24 17 22 2 -3 -3 -21 -13 -39z m-239
-415 c-39 -69 -67 -113 -59 -89 4 11 12 34 18 50 14 40 60 110 65 97 1 -5 -9
-32 -24 -58z m-124 18 c0 -5 -7 -17 -15 -28 -14 -18 -14 -17 -4 9 12 27 19 34
19 19z m-94 -203 c-24 -57 -65 -151 -91 -209 -25 -58 -57 -132 -69 -165 -13
-33 -31 -73 -40 -90 -9 -16 -16 -35 -16 -42 0 -6 -5 -15 -10 -18 -11 -7 -4 38
9 60 3 6 7 18 8 27 1 9 13 41 27 70 13 29 27 64 31 78 9 30 19 53 82 190 55
120 104 212 110 206 2 -2 -16 -50 -41 -107z m58 -134 c-4 -8 -8 -15 -10 -15
-2 0 -4 7 -4 15 0 8 4 15 10 15 5 0 7 -7 4 -15z m-303 -442 c-10 -17 -10 -16
-11 3 0 23 13 41 18 25 2 -6 -1 -18 -7 -28z m-66 -175 c-4 -18 -11 -37 -15
-43 -4 -5 -20 -50 -35 -100 -15 -49 -38 -121 -51 -159 -13 -38 -21 -73 -18
-78 8 -13 -16 -118 -36 -154 -10 -17 -17 -34 -14 -36 6 -6 -14 -117 -28 -153
-6 -16 -17 -37 -23 -45 -7 -8 -19 -57 -28 -107 -12 -74 -21 -101 -46 -135
l-32 -43 7 45 c5 41 18 95 45 190 6 19 18 71 29 115 10 44 27 109 38 145 11
36 37 119 57 185 20 66 40 128 45 137 6 10 10 22 10 28 0 6 16 52 36 103 20
50 40 102 45 115 13 33 22 27 14 -10z m-45 -463 c0 -8 -4 -17 -10 -20 -5 -3
-10 -15 -10 -26 0 -16 -3 -17 -19 -7 -10 6 -17 18 -15 25 2 7 6 19 8 26 5 17
46 19 46 2z m-60 -191 c0 -16 -25 -91 -36 -107 -11 -17 -13 -16 -22 12 -7 20
-7 42 -1 66 8 28 15 35 34 35 14 0 25 -3 25 -6z m-90 -313 c0 -14 -5 -18 -20
-14 -11 3 -20 12 -20 19 0 8 9 14 20 14 13 0 20 -7 20 -19z m-143 -183 c-3 -8
-6 -5 -6 6 -1 11 2 17 5 13 3 -3 4 -12 1 -19z m-6 -66 c-5 -10 -8 -28 -5 -39
7 -26 -23 -53 -32 -28 -4 9 -2 21 5 28 6 6 11 25 11 43 0 18 6 34 13 37 16 5
21 -17 8 -41z m-101 -238 c0 -13 -4 -24 -10 -24 -5 0 -10 14 -10 31 0 17 4 28
10 24 6 -3 10 -17 10 -31z m-19 -87 c-8 -8 -11 -3 -11 19 1 25 2 27 11 11 8
-14 8 -22 0 -30z m-1 -68 c0 -5 -4 -9 -10 -9 -5 0 -10 7 -10 16 0 8 5 12 10 9
6 -3 10 -10 10 -16z m-20 -86 c0 -30 -9 -27 -15 6 -2 11 0 21 6 21 5 0 9 -12
9 -27z m-17 -68 c4 -8 2 -17 -3 -20 -6 -4 -10 3 -10 14 0 25 6 27 13 6z m-13
-81 c0 -8 -4 -12 -10 -9 -5 3 -10 10 -10 16 0 5 5 9 10 9 6 0 10 -7 10 -16z
m-11 -91 c0 -25 -1 -26 -9 -8 -12 27 -12 35 0 35 6 0 10 -12 9 -27z m-9 -116
c0 -16 -4 -26 -10 -22 -5 3 -10 23 -10 43 0 28 3 33 10 22 5 -8 10 -28 10 -43z
m50 9 c0 -15 -18 -31 -26 -23 -7 7 7 37 17 37 5 0 9 -6 9 -14z m-71 -108 c-1
-42 -1 -42 -10 -13 -5 17 -7 36 -4 43 9 24 15 11 14 -30z m-173 -63 c16 -8 37
-15 47 -15 9 0 17 -4 17 -10 0 -5 10 -10 23 -10 14 0 29 -10 38 -27 18 -32 32
-103 20 -103 -5 0 -11 -42 -14 -92 -8 -115 -15 -194 -27 -322 -6 -54 -10 -129
-10 -166 0 -38 -5 -72 -11 -75 -6 -4 -10 -40 -9 -89 1 -44 -3 -153 -9 -241
-20 -280 -15 -1236 6 -1309 3 -12 1 -16 -6 -12 -6 4 -14 -1 -17 -11 -3 -10
-10 -26 -15 -35 -5 -10 -9 -25 -9 -33 0 -8 -4 -15 -9 -15 -5 0 -11 -11 -15
-23 -7 -30 -104 -132 -134 -141 -12 -4 -22 -12 -22 -17 0 -5 -7 -9 -15 -9 -8
0 -15 -4 -15 -10 0 -5 -11 -10 -24 -10 -14 0 -28 -4 -31 -10 -3 -5 -17 -10
-31 -10 -13 0 -24 -4 -24 -9 0 -13 -150 -24 -229 -16 -68 7 -70 8 -80 38 -5
18 -14 61 -20 97 -5 36 -14 90 -20 120 -5 30 -12 99 -16 153 -7 86 -6 97 8 91
9 -3 55 14 107 40 49 25 90 42 90 38 0 -4 5 1 11 11 5 9 17 17 25 17 15 0 86
48 92 63 2 4 9 7 14 7 6 0 24 15 40 33 71 78 77 169 17 257 -21 30 -54 66 -73
78 -19 13 -42 35 -51 48 -8 13 -21 24 -29 24 -7 0 -28 19 -47 42 -19 22 -55
64 -81 91 -27 27 -48 56 -48 63 0 8 -7 14 -15 14 -8 0 -22 11 -31 25 -9 14
-23 25 -30 25 -8 0 -14 6 -14 14 0 8 -8 17 -19 21 -14 4 -20 19 -25 59 -9 70
-4 476 5 476 4 0 9 -15 11 -32 2 -23 10 -36 26 -43 12 -5 22 -13 22 -17 0 -5
8 -8 18 -8 10 0 22 -3 25 -7 4 -3 29 -14 57 -24 27 -10 62 -27 76 -38 15 -12
36 -21 47 -21 11 0 17 -3 14 -7 -8 -7 28 -27 66 -37 15 -3 27 -11 27 -16 0 -6
7 -10 17 -10 9 0 31 -11 49 -25 47 -36 85 -49 96 -33 6 10 11 9 19 -4 5 -10
16 -18 24 -18 8 0 -3 17 -25 39 -22 22 -40 45 -40 51 0 14 -40 49 -56 50 -7 0
-19 10 -27 23 -8 12 -38 46 -66 76 -28 30 -51 60 -51 67 0 7 -10 20 -21 28
-34 23 -36 89 -6 188 23 73 26 99 26 226 -1 79 2 146 5 149 3 4 6 26 6 50 0
24 5 43 10 43 6 0 10 8 10 18 0 9 5 35 11 57 14 48 105 139 152 151 18 4 43
11 57 14 37 10 102 3 136 -15z m162 -31 c-5 -28 -28 -29 -28 -1 0 13 3 27 7
31 10 10 25 -10 21 -30z m27 -291 c-4 -21 -8 -112 -9 -203 -1 -91 -6 -172 -11
-180 -5 -8 -10 -60 -12 -115 -6 -220 -10 -303 -21 -370 -6 -38 -11 -107 -12
-152 0 -54 -4 -83 -11 -83 -8 0 -9 64 -5 223 10 340 12 362 37 662 6 72 12
157 13 190 1 65 12 93 28 77 6 -6 7 -26 3 -49z m-956 -1168 c0 -93 -3 -175 -7
-182 -5 -7 -30 -11 -70 -9 -34 1 -62 -1 -62 -6 0 -4 -8 -8 -19 -8 -14 0 -21
10 -25 35 -9 44 -4 245 5 251 4 2 10 27 14 54 4 28 10 50 13 51 48 7 98 5 103
-3 4 -7 12 -2 20 11 l14 21 7 -22 c3 -13 6 -99 7 -193z m-387 -25 c3 -58 1
-116 -3 -130 -4 -14 -7 35 -8 109 -1 74 1 132 3 130 2 -2 6 -51 8 -109z m99
-533 c4 -50 13 -168 18 -262 6 -93 13 -190 16 -215 3 -25 1 -40 -3 -35 -5 6
-17 120 -26 255 -9 135 -19 272 -23 305 -3 33 -2 57 2 52 5 -4 12 -49 16 -100z
m-64 -49 c-2 -18 -4 -6 -4 27 0 33 2 48 4 33 2 -15 2 -42 0 -60z m1250 -185
c-2 -16 -4 -5 -4 22 0 28 2 40 4 28 2 -13 2 -35 0 -50z m-1230 -86 c-2 -23 -3
-1 -3 48 0 50 1 68 3 42 2 -26 2 -67 0 -90z m1263 -66 c0 -27 -12 -61 -21 -61
-12 0 -22 65 -14 91 7 22 8 22 21 4 8 -10 14 -26 14 -34z m-1253 -63 c-3 -8
-6 -5 -6 6 -1 11 2 17 5 13 3 -3 4 -12 1 -19z m1258 -146 c-6 -23 7 -147 27
-257 32 -185 44 -339 25 -332 -21 7 -55 298 -72 612 l-5 90 15 -45 c8 -25 13
-55 10 -68z m-1248 51 c-3 -10 -5 -4 -5 12 0 17 2 24 5 18 2 -7 2 -21 0 -30z
m1320 -739 c-11 -11 -27 7 -27 30 0 36 14 40 24 7 5 -17 6 -34 3 -37z m13
-105 c0 -17 -4 -28 -10 -24 -5 3 -10 17 -10 31 0 13 5 24 10 24 6 0 10 -14 10
-31z m14 -86 c2 -10 7 -45 11 -78 3 -33 9 -75 12 -94 4 -24 2 -32 -6 -27 -6 4
-11 18 -11 32 0 14 -4 33 -9 42 -13 27 -23 142 -12 142 5 0 12 -8 15 -17z
m210 -259 c32 -224 129 -662 207 -934 38 -133 162 -523 196 -615 97 -268 168
-494 158 -503 -8 -8 -10 -4 -50 98 -126 319 -228 627 -309 930 -20 74 -50 185
-66 245 -16 61 -32 130 -36 155 -3 25 -19 97 -34 160 -16 63 -31 142 -35 175
-4 33 -14 98 -22 145 -25 139 -32 183 -32 219 -2 60 9 28 23 -75z m-134 -232
c0 -13 -4 -20 -10 -17 -5 3 -10 21 -10 38 0 24 3 28 10 17 5 -8 10 -25 10 -38z
m50 -284 c0 -16 -3 -19 -11 -11 -6 6 -8 16 -5 22 11 17 16 13 16 -11z m18
-108 c0 -22 -1 -22 -8 5 -4 17 -8 39 -8 50 0 16 2 15 8 -5 4 -14 8 -36 8 -50z
m-1103 -130 c5 -17 4 -22 -3 -15 -5 6 -13 21 -17 35 -5 17 -4 22 3 15 5 -5 13
-21 17 -35z m1132 -12 c-3 -7 -5 -2 -5 12 0 14 2 19 5 13 2 -7 2 -19 0 -25z
m41 -124 c12 -45 22 -87 22 -93 0 -22 -18 -2 -23 26 -3 16 -8 37 -11 48 -11
41 -26 100 -26 110 0 27 19 -20 38 -91z m-1059 -181 c1 -18 -4 -33 -9 -33 -15
0 -26 36 -33 105 l-6 60 24 -50 c13 -27 24 -65 24 -82z m1119 -35 c77 -263
148 -476 245 -738 50 -137 59 -167 55 -192 -3 -19 -7 -16 -25 22 -23 49 -131
352 -164 458 -12 37 -25 76 -30 87 -4 11 -15 45 -23 75 -8 30 -22 80 -31 110
-9 30 -24 84 -33 120 -10 36 -20 70 -23 75 -12 19 -20 85 -11 85 5 0 23 -46
40 -102z m512 -973 c0 -8 -2 -15 -4 -15 -2 0 -6 7 -10 15 -3 8 -1 15 4 15 6 0
10 -7 10 -15z m55 -587 c19 -39 33 -73 31 -76 -5 -4 -50 80 -66 124 -19 49 1
22 35 -48z m148 -284 c40 -67 48 -93 16 -54 -17 21 -66 112 -77 145 -6 16 22
-25 61 -91z"/>
<path d="M10313 21288 c-7 -29 -17 -84 -23 -123 -7 -38 -18 -88 -25 -110 -8
-22 -16 -60 -20 -84 -3 -24 -12 -56 -21 -72 -8 -17 -10 -29 -4 -29 14 0 12
-23 -5 -56 -8 -16 -15 -37 -15 -46 0 -10 -3 -18 -8 -18 -4 0 -13 -15 -21 -32
-14 -32 -65 -108 -106 -157 -41 -49 -191 -174 -230 -191 -65 -30 -107 -50
-165 -80 -53 -28 -161 -65 -318 -110 -40 -12 -80 -29 -88 -38 -111 -129 -154
-181 -154 -186 0 -6 -89 -126 -101 -136 -14 -12 -59 -86 -59 -96 0 -7 -18 -50
-39 -96 -94 -202 -133 -326 -137 -440 -3 -84 12 -158 30 -158 8 0 11 -11 8
-30 -2 -16 -8 -30 -13 -30 -5 0 -9 -10 -9 -22 0 -26 -7 -38 75 117 61 115 272
466 322 536 21 30 54 76 73 103 19 27 61 81 92 119 l57 69 -49 73 c-27 40 -52
84 -55 97 -10 39 28 70 115 97 41 13 84 27 95 31 11 4 43 16 70 25 28 9 74 28
103 41 29 13 55 24 59 24 13 0 150 92 187 125 6 6 29 24 51 40 22 17 58 49 80
73 22 24 65 67 94 95 30 29 69 67 87 85 17 17 36 32 43 32 6 0 11 7 11 15 0 8
9 15 20 15 10 0 27 8 37 18 26 27 53 34 59 17 8 -21 17 -19 30 8 6 12 26 51
44 86 33 63 34 68 34 187 1 108 -1 124 -19 144 -25 29 -155 120 -169 120 -6 0
-17 -24 -23 -52z"/>
<path d="M18875 21321 c3 -5 20 -13 38 -16 85 -19 151 -65 292 -208 122 -123
305 -334 305 -352 0 -3 12 -23 26 -45 38 -58 23 -60 -19 -3 -44 59 -105 119
-113 110 -3 -3 30 -58 75 -121 44 -63 81 -120 81 -126 0 -5 4 -10 8 -10 5 0
17 -18 28 -40 10 -22 22 -40 27 -40 4 0 7 -6 7 -14 0 -8 3 -16 8 -18 15 -7
121 -155 150 -211 17 -32 42 -71 56 -87 13 -16 26 -35 29 -42 2 -7 8 -9 13 -5
4 4 3 22 -4 40 l-12 32 20 -25 c11 -14 34 -50 51 -80 18 -30 49 -80 69 -110
80 -117 199 -378 200 -437 0 -12 5 -25 10 -28 6 -3 10 -17 10 -30 0 -24 16
-89 44 -178 8 -26 11 -45 6 -42 -6 4 -10 11 -10 17 0 14 -64 147 -71 148 -10
0 28 -219 41 -230 3 -3 18 -43 34 -90 16 -47 33 -89 37 -94 5 -6 9 -19 9 -31
0 -12 4 -25 8 -31 5 -5 21 -49 36 -99 28 -91 41 -126 57 -157 5 -10 9 -29 9
-43 0 -14 4 -33 9 -43 13 -26 31 -86 31 -105 0 -9 4 -17 9 -17 10 0 23 -44 27
-90 6 -60 18 -95 38 -111 20 -16 21 -16 28 1 4 10 3 31 -2 47 -42 128 -70 253
-57 253 15 0 61 -105 73 -169 8 -40 20 -87 28 -105 31 -73 36 -90 42 -144 3
-31 19 -95 34 -142 16 -47 36 -123 44 -170 8 -47 22 -119 30 -160 8 -41 17
-92 21 -113 3 -22 10 -35 16 -31 6 3 8 18 5 33 -8 30 -40 197 -61 321 -9 47
-22 108 -29 135 -7 28 -24 95 -36 150 -63 279 -134 531 -226 805 -31 91 -66
192 -79 225 -152 392 -251 616 -368 836 -39 75 -93 161 -119 190 -48 55 -178
227 -178 235 0 5 -15 24 -42 55 -10 10 -15 19 -11 19 3 0 -1 8 -9 18 -8 9 -18
24 -22 32 -3 8 -18 35 -32 60 -15 25 -51 92 -82 150 -60 115 -129 206 -289
380 -39 42 -75 62 -218 120 -32 13 -118 40 -127 40 -5 0 -7 -4 -3 -9z m1478
-2261 c9 -25 19 -54 23 -65 5 -13 4 -17 -3 -10 -6 6 -20 39 -32 75 -11 35 -17
60 -12 55 5 -6 16 -30 24 -55z m54 -162 c-3 -8 -6 -5 -6 6 -1 11 2 17 5 13 3
-3 4 -12 1 -19z m33 -93 c0 -5 -5 -3 -10 5 -5 8 -10 20 -10 25 0 6 5 3 10 -5
5 -8 10 -19 10 -25z m30 -77 c0 -6 7 -19 15 -28 8 -9 16 -31 18 -50 2 -19 7
-43 12 -53 7 -17 0 -36 -10 -25 -3 3 -15 36 -26 74 -11 38 -23 78 -26 88 -4
13 -2 17 5 12 7 -4 12 -12 12 -18z"/>
<path d="M19517 21254 c-26 -19 -53 -47 -58 -62 -24 -60 11 -316 39 -288 3 4
0 12 -6 18 -17 17 -15 48 3 48 8 0 15 5 15 10 0 6 -8 10 -17 10 -12 0 -14 3
-6 11 8 8 17 8 31 0 31 -16 32 -15 32 34 0 33 4 45 15 45 12 0 15 15 15 74 0
41 -5 78 -10 81 -6 3 -7 17 -4 31 3 13 5 24 3 24 -2 0 -26 -16 -52 -36z"/>
<path d="M18800 21266 c0 -2 8 -10 18 -17 15 -13 16 -12 3 4 -13 16 -21 21
-21 13z"/>
<path d="M19030 21045 c85 -88 188 -199 229 -247 40 -49 75 -88 78 -88 24 0
-257 308 -402 440 -33 30 10 -17 95 -105z"/>
<path d="M10899 21003 c-13 -16 -12 -17 4 -4 9 7 17 15 17 17 0 8 -8 3 -21
-13z"/>
<path d="M20020 20941 c0 -12 29 -35 36 -28 11 10 -5 37 -21 37 -8 0 -15 -4
-15 -9z"/>
<path d="M11040 20869 c-51 -58 -50 -70 0 -15 24 26 41 48 39 50 -2 3 -20 -13
-39 -35z"/>
<path d="M10789 20883 c-13 -16 -12 -17 4 -4 9 7 17 15 17 17 0 8 -8 3 -21
-13z"/>
<path d="M19987 20894 c-11 -11 -8 -42 4 -49 16 -10 19 -2 11 29 -4 15 -11 24
-15 20z"/>
<path d="M20116 20875 c-12 -18 -15 -30 -7 -34 6 -4 22 -29 36 -55 l26 -49
-22 -23 -23 -24 35 -36 c28 -29 39 -34 62 -30 24 5 35 -1 68 -34 21 -21 39
-42 39 -45 0 -16 -44 -1 -83 29 -46 35 -117 53 -117 29 0 -7 -8 -13 -17 -13
-27 0 21 -45 76 -71 25 -12 58 -30 72 -40 53 -37 187 -98 274 -123 305 -89
298 -85 422 -245 185 -237 251 -333 378 -546 287 -482 465 -923 595 -1475 45
-194 64 -276 104 -440 72 -298 104 -448 120 -550 22 -138 45 -274 57 -330 17
-85 29 -329 17 -355 -8 -18 -8 -32 1 -53 13 -30 7 -584 -7 -737 l-8 -80 -7 75
c-3 41 -9 119 -13 172 -3 54 -10 100 -15 104 -5 3 -9 22 -9 42 0 47 -27 187
-40 212 -6 11 -20 25 -32 31 -27 14 -31 7 -58 -99 -22 -88 -41 -121 -122 -209
-27 -29 -48 -62 -49 -75 l0 -23 -10 24 c-9 24 -21 117 -39 308 -12 123 -29
245 -35 251 -3 3 -2 -110 2 -250 l6 -255 -25 0 c-35 0 -119 -30 -144 -51 -25
-21 -63 -89 -88 -157 -11 -27 -23 -56 -29 -63 -5 -7 -7 -15 -4 -19 4 -3 2 -14
-4 -24 -10 -20 -28 -138 -35 -229 -2 -30 -7 -62 -11 -70 -3 -8 -7 -18 -7 -22
-1 -3 -4 -10 -8 -14 -5 -4 -8 -14 -8 -22 0 -8 -12 -28 -28 -46 -15 -17 -36
-57 -46 -88 -19 -53 -19 -63 -5 -155 29 -199 11 -360 -47 -433 -51 -63 -116
-118 -151 -126 -15 -4 -35 -12 -43 -19 -8 -7 -25 -16 -37 -19 -13 -4 -23 -11
-23 -17 0 -5 -10 -8 -22 -6 -16 1 -23 -5 -28 -23 l-6 -25 -5 25 c-3 14 1 126
9 250 18 294 22 437 22 775 -1 238 -13 617 -24 720 -2 17 -6 80 -10 140 -4 61
-11 137 -16 170 -5 33 -14 119 -20 190 -11 140 -53 478 -69 563 -1 2 -5 1 -10
-2 -9 -6 -6 -119 5 -172 4 -21 1 -34 -11 -44 -24 -20 -40 2 -40 53 0 39 -2 42
-29 45 -27 3 -28 3 -22 -35 11 -71 25 -247 36 -448 6 -110 16 -225 21 -255 6
-30 11 -90 12 -132 1 -46 7 -82 15 -90 12 -12 13 -11 16 47 1 11 -2 40 -6 65
-7 48 0 130 12 130 6 0 21 -222 39 -575 11 -207 13 -671 4 -661 -4 4 -11 132
-14 284 -7 294 -17 522 -25 560 -8 39 -26 13 -19 -28 3 -20 6 -230 7 -466 0
-396 -6 -564 -32 -814 -5 -52 -14 -144 -20 -205 -6 -60 -22 -217 -36 -349 -15
-143 -22 -242 -16 -248 12 -12 42 1 42 18 0 8 9 14 19 14 11 0 22 6 24 13 4 9
8 8 16 -3 18 -25 8 -44 -24 -45 -29 0 -30 -2 -37 -55 -4 -30 -10 -80 -13 -110
-9 -112 -53 -395 -65 -425 -5 -11 -11 -47 -14 -81 -6 -69 -26 -150 -52 -209
-19 -46 -32 -93 -40 -150 -2 -22 -15 -71 -27 -110 -22 -69 -22 -69 -25 -31 -2
21 4 71 12 110 9 39 20 110 26 158 6 48 17 129 26 180 14 86 23 152 38 283 4
28 11 75 16 105 25 149 43 340 31 340 -14 0 -19 -21 -14 -56 4 -22 1 -33 -10
-37 -19 -7 -18 6 24 323 9 69 36 349 75 780 13 142 15 263 11 640 -3 256 -10
515 -16 575 -16 151 -28 283 -57 610 -13 154 -31 318 -39 365 -8 47 -19 112
-25 145 -5 33 -14 89 -19 125 -24 161 -114 636 -119 621 -2 -6 5 -57 16 -113
11 -57 26 -137 32 -178 7 -41 18 -109 26 -150 23 -129 43 -288 59 -480 17
-207 20 -297 13 -450 -3 -58 -1 -177 3 -265 18 -342 30 -910 21 -955 -8 -36
-10 -11 -11 118 -1 89 -6 206 -11 260 -17 161 -32 266 -40 277 -8 10 -15 43
-29 135 -5 30 -16 72 -25 92 -9 21 -16 50 -16 66 0 16 -7 35 -15 42 -8 7 -15
9 -15 6 0 -4 -9 -2 -20 4 -29 15 -44 -18 -31 -68 9 -31 7 -47 -9 -90 -13 -33
-20 -77 -20 -117 0 -65 0 -66 -47 -113 -27 -25 -51 -46 -54 -45 -4 1 -9 -224
-12 -500 -3 -276 -10 -554 -16 -617 -5 -63 -17 -216 -26 -340 -9 -124 -25
-301 -36 -395 -11 -93 -29 -247 -39 -341 -21 -184 -46 -373 -56 -416 -6 -28
-6 -28 48 -28 85 0 87 -4 82 -195 -7 -244 -10 -394 -8 -392 24 25 130 464 154
637 6 47 20 126 32 175 23 100 41 144 33 80 -20 -162 -39 -294 -55 -375 -34
-176 -63 -370 -56 -378 3 -2 8 9 11 24 28 132 51 177 40 79 -20 -187 -40 -281
-71 -330 -13 -22 -47 -137 -94 -322 -47 -183 -78 -273 -92 -273 -12 0 -9 34
12 133 26 127 62 385 55 397 -3 6 -12 10 -20 10 -8 0 -21 24 -31 58 -20 64
-20 65 -23 146 -1 54 -4 62 -37 93 -20 19 -40 48 -43 65 -6 27 -9 19 -28 -58
-169 -687 -208 -833 -289 -1074 -66 -193 -167 -471 -210 -575 -14 -33 -29 -69
-34 -80 -4 -11 -27 -60 -51 -110 -23 -49 -42 -100 -41 -112 1 -16 -2 -21 -14
-16 -12 4 -14 0 -8 -21 4 -16 1 -32 -6 -41 -7 -9 -9 -19 -5 -23 4 -4 10 -2 12
4 2 7 13 10 23 7 15 -4 20 0 20 16 0 12 6 21 15 21 18 0 19 12 3 29 -11 11 -8
12 12 6 14 -4 33 -17 42 -28 19 -24 17 -52 -11 -192 -10 -49 -19 -120 -20
-157 -2 -81 -23 -146 -88 -270 -58 -114 -294 -471 -415 -628 -82 -108 -119
-167 -64 -103 14 15 57 62 96 103 96 100 195 228 350 453 82 118 112 146 70
65 -29 -56 -150 -237 -209 -312 -25 -32 -118 -140 -206 -239 -88 -99 -173
-196 -189 -216 -16 -20 -68 -75 -115 -123 -47 -49 -81 -88 -75 -88 6 0 59 38
119 85 96 76 125 94 125 81 0 -3 -7 -12 -16 -20 -26 -26 -1 -18 28 9 15 14 29
25 32 25 5 0 136 103 261 206 22 18 78 63 125 99 47 37 110 90 140 119 30 28
112 102 181 163 69 62 159 149 199 195 41 46 79 88 84 93 6 6 33 37 61 70 27
33 56 66 63 73 7 8 19 27 28 43 8 17 23 39 32 49 22 24 30 34 77 98 22 28 43
52 47 52 4 0 8 5 8 11 0 16 83 109 98 109 6 0 12 7 12 15 0 8 34 49 75 90 41
42 75 79 75 83 0 4 15 14 33 21 17 8 38 21 46 28 7 8 15 12 17 11 6 -6 -20
-72 -43 -108 -34 -55 -111 -211 -127 -258 -8 -23 -31 -69 -51 -103 -19 -33
-35 -62 -35 -64 0 -3 -23 -39 -52 -82 -63 -94 -317 -352 -508 -514 -74 -64
-142 -122 -150 -130 -8 -8 -64 -57 -125 -109 -60 -51 -162 -139 -225 -195
-300 -262 -639 -448 -1080 -590 -147 -47 -239 -81 -318 -117 -34 -15 -65 -28
-67 -28 -3 0 -24 -9 -48 -19 -23 -11 -67 -27 -97 -36 -30 -9 -69 -23 -86 -30
-16 -8 -49 -17 -72 -21 -24 -4 -45 -11 -48 -15 -3 -5 -10 -7 -15 -3 -5 3 -15
1 -22 -4 -19 -16 -77 -25 -77 -13 0 6 10 11 23 11 13 0 27 4 32 8 6 5 36 15
68 22 32 7 60 17 63 22 3 4 12 8 20 8 15 0 98 31 187 68 20 9 37 20 37 25 0 5
7 7 14 4 9 -4 13 -1 10 6 -2 7 13 23 33 36 92 60 183 130 243 186 36 34 106
99 155 146 76 70 152 150 270 282 50 56 160 194 253 317 56 74 105 140 110
145 4 6 17 25 27 43 11 17 23 32 27 32 4 0 8 6 8 14 0 14 93 200 154 306 29
50 36 72 32 95 -4 21 -3 26 3 15 12 -17 16 -14 25 20 6 20 5 22 -4 10 -9 -12
-10 -9 -5 15 8 38 14 43 26 25 9 -12 10 -12 5 3 -5 15 8 51 24 67 10 10 60
114 56 117 -5 5 -46 -65 -46 -78 0 -5 -4 -9 -10 -9 -5 0 -10 -4 -10 -10 0 -11
-83 -144 -209 -335 -352 -532 -895 -1056 -1342 -1294 -289 -154 -573 -250
-904 -306 -230 -38 -342 -32 -427 26 -24 16 -46 29 -51 29 -4 0 -12 -12 -18
-27 -8 -22 -6 -32 11 -54 11 -16 20 -37 20 -48 0 -24 13 -33 60 -41 29 -5 35
-10 33 -28 -3 -20 1 -22 53 -22 49 0 55 2 44 15 -11 13 -4 15 50 15 54 0 61
-2 50 -15 -11 -13 -5 -15 44 -15 44 0 60 4 73 20 21 24 53 26 53 5 0 -14 12
-15 78 -10 42 4 84 9 92 13 8 3 35 7 60 8 46 2 135 15 225 33 28 6 109 19 180
30 72 12 148 25 170 30 22 5 78 16 125 26 202 39 609 154 725 204 11 5 36 15
55 22 19 7 63 25 98 41 34 15 65 28 67 28 13 0 215 101 332 166 182 101 330
199 503 334 167 131 156 121 411 347 195 173 497 464 626 603 38 42 125 145
193 230 198 248 331 398 447 506 125 115 245 214 262 214 6 0 11 9 11 19 0 22
51 65 123 105 27 14 59 37 72 50 40 40 155 61 310 58 126 -2 175 -12 284 -54
17 -6 27 -5 32 4 15 24 3 32 -42 30 -34 -2 -58 5 -106 30 -194 104 -316 205
-383 317 -43 73 -49 108 -24 146 9 14 14 32 11 40 -11 26 14 74 46 90 26 13
33 13 52 1 22 -14 22 -14 29 46 10 102 10 103 -19 84 -23 -15 -25 -15 -36 5
-7 14 -9 41 -5 72 6 42 5 49 -8 44 -9 -4 -16 -1 -16 4 0 6 31 108 70 225 185
570 375 1342 410 1674 6 58 17 155 25 215 8 61 19 171 25 245 5 74 14 182 20
240 29 307 42 601 43 965 1 389 -2 455 -43 760 -5 39 -16 129 -24 200 -19 154
-39 269 -61 345 -9 30 -18 69 -21 85 -13 98 -26 171 -48 255 -14 52 -31 129
-39 170 -14 70 -29 141 -93 420 -63 275 -183 680 -229 773 -8 16 -15 34 -15
39 0 10 -42 101 -50 108 -3 3 -19 34 -34 70 -34 76 -132 275 -183 369 -75 137
-85 155 -122 210 -21 31 -64 101 -96 156 -32 55 -69 114 -82 131 -15 20 -21
38 -16 49 4 12 3 16 -5 12 -6 -4 -21 7 -33 25 -13 17 -18 28 -11 24 18 -11 14
8 -7 33 -14 16 -21 18 -24 9 -3 -7 -6 -2 -7 12 -1 14 -11 39 -23 56 -63 88
-107 159 -107 172 0 8 -21 34 -47 58 -48 43 -48 44 -20 44 42 0 69 -18 62 -40
-4 -14 13 -41 64 -101 39 -45 104 -125 143 -178 40 -52 81 -105 92 -116 18
-20 18 -20 6 5 -7 14 -24 42 -37 62 -12 21 -23 44 -23 52 0 9 -9 20 -20 26
-11 6 -17 16 -14 25 7 16 34 21 34 6 0 -6 16 -27 35 -48 19 -21 35 -43 35 -50
0 -6 3 -13 8 -15 25 -11 307 -450 376 -586 10 -19 19 -32 22 -29 5 5 -74 158
-169 327 -214 379 -471 710 -550 710 -12 0 -46 18 -76 41 -38 29 -76 46 -130
61 -42 11 -101 28 -131 39 -30 11 -73 25 -95 31 -111 29 -156 53 -201 105 -24
28 -44 56 -44 61 0 6 -26 42 -57 80 -32 38 -63 77 -68 87 -10 16 -12 15 -29
-10z m340 -390 c16 -12 17 -14 2 -15 -23 0 -48 11 -48 21 0 14 24 11 46 -6z
m244 -75 c12 -8 10 -10 -10 -10 -14 0 -32 5 -40 10 -12 8 -10 10 10 10 14 0
32 -5 40 -10z m67 -16 c-3 -3 -12 -4 -19 -1 -8 3 -5 6 6 6 11 1 17 -2 13 -5z
m58 -34 c3 -6 0 -10 -7 -10 -15 0 -38 19 -38 32 0 10 36 -8 45 -22z m45 -3560
c22 -12 38 -76 22 -92 -8 -8 -6 -18 5 -34 10 -15 16 -54 18 -111 2 -49 6 -114
10 -145 l8 -57 -32 1 c-17 1 -31 1 -32 2 -5 5 -20 218 -19 275 0 40 -3 78 -8
85 -9 11 -5 86 5 86 2 0 13 -5 23 -10z m9 -507 l-1 -48 -9 35 c-4 19 -6 41 -4
48 9 25 15 10 14 -35z m1328 -1005 c-2 -18 -4 -4 -4 32 0 36 2 50 4 33 2 -18
2 -48 0 -65z m-1244 -602 c-6 -56 -10 -117 -10 -136 0 -61 -23 -352 -33 -415
-6 -33 -12 -91 -14 -130 -8 -132 -18 -205 -30 -206 -6 -1 -21 0 -33 0 -12 1
-23 -4 -26 -11 -2 -7 -2 1 0 17 16 97 44 394 49 500 1 44 6 101 9 126 4 28 2
55 -4 67 -8 15 -7 28 6 53 10 20 20 74 25 129 4 52 10 119 14 148 l7 52 24
-47 c25 -45 25 -50 16 -147z m572 -1267 c-9 -41 -18 -81 -20 -89 -7 -24 -32
-119 -53 -195 -10 -38 -21 -77 -24 -85 -4 -8 -13 -42 -21 -75 -8 -33 -25 -91
-37 -130 -12 -38 -35 -115 -50 -170 -15 -55 -46 -154 -68 -221 -106 -314 -130
-459 -108 -644 4 -30 7 -62 7 -70 0 -8 4 -26 9 -40 5 -14 11 -38 14 -53 l7
-28 -48 38 c-58 46 -204 184 -372 351 -126 126 -128 130 -117 197 3 17 7 52
11 79 3 27 8 53 12 59 3 6 15 53 25 106 10 53 20 105 23 116 7 30 32 152 45
225 7 36 16 74 21 85 4 11 15 63 24 115 21 126 32 186 45 240 6 25 14 58 17
73 5 25 7 26 18 11 11 -16 15 -15 58 6 26 13 47 28 47 32 0 5 9 7 20 3 16 -5
19 -3 13 11 -5 13 -2 15 16 9 22 -7 131 39 131 56 0 5 9 9 19 9 11 0 22 4 25
9 3 5 23 12 43 16 21 4 43 10 48 15 19 14 66 24 168 36 42 5 57 11 59 23 0 9
3 2 5 -15 2 -17 -3 -64 -12 -105z m412 9 c-3 -8 -6 -5 -6 6 -1 11 2 17 5 13 3
-3 4 -12 1 -19z m-1280 -25 c-3 -10 -5 -4 -5 12 0 17 2 24 5 18 2 -7 2 -21 0
-30z m1268 -30 c-36 -201 -185 -725 -290 -1023 -39 -110 -65 -201 -65 -225 0
-24 20 -17 21 8 1 12 5 -7 9 -43 7 -60 6 -68 -17 -99 -24 -30 -26 -42 -25
-130 0 -84 5 -109 31 -177 17 -43 48 -106 70 -139 22 -33 38 -61 37 -63 -5 -4
-36 10 -36 17 0 4 -19 31 -41 61 -78 102 -129 245 -129 362 0 86 36 224 110
423 80 214 135 391 229 735 91 331 91 330 98 330 3 0 2 -17 -2 -37z m-1288
-55 c-3 -8 -6 -5 -6 6 -1 11 2 17 5 13 3 -3 4 -12 1 -19z m-27 -144 c-61 -375
-139 -801 -164 -889 -12 -42 -14 -45 -15 -20 -1 17 6 56 13 86 8 31 20 100 25
155 9 83 64 401 102 589 6 28 13 66 16 85 5 33 22 65 29 57 2 -2 -1 -30 -6
-63z m1130 14 c0 -64 -89 -446 -180 -767 -80 -284 -91 -349 -94 -550 -2 -92
-6 -173 -10 -179 -13 -21 -43 -13 -104 27 -66 44 -129 62 -142 40 -13 -19 -22
27 -18 87 2 33 7 48 16 47 6 -2 12 1 12 5 0 5 31 31 70 58 82 58 98 87 152
279 45 160 55 242 51 420 -5 220 -8 256 -18 278 -9 21 14 167 27 167 4 0 6 11
2 25 -4 15 -2 25 5 25 6 0 11 9 11 20 0 11 5 20 10 20 6 0 10 -3 10 -7 0 -5
22 -7 48 -7 52 2 122 27 122 43 0 6 7 11 15 11 11 0 15 -11 15 -42z m-1283
-575 c-3 -10 -5 -4 -5 12 0 17 2 24 5 18 2 -7 2 -21 0 -30z m-26 -112 c-6 -11
-11 -31 -11 -45 0 -14 -4 -26 -9 -26 -11 0 -5 54 12 115 l11 40 4 -32 c2 -18
-2 -41 -7 -52z m-34 -143 c-3 -7 -5 -2 -5 12 0 14 2 19 5 13 2 -7 2 -19 0 -25z
m1305 -276 c-5 -39 -11 -75 -15 -78 -26 -27 -29 91 -3 131 10 15 19 25 21 23
3 -2 1 -36 -3 -76z m-1342 -169 c-29 -114 -73 -269 -98 -343 -58 -173 -196
-518 -284 -710 -17 -36 -34 -74 -38 -85 -22 -57 -204 -442 -279 -590 -83 -165
-222 -385 -351 -556 -77 -101 -221 -269 -232 -269 -4 0 -5 -6 -2 -13 8 -21
-19 -48 -54 -52 -17 -2 -32 -1 -32 3 0 7 72 93 144 172 71 78 238 293 323 415
152 217 210 325 327 600 30 72 87 202 126 290 109 244 291 694 342 845 44 131
73 227 108 360 34 130 41 152 47 147 3 -3 -19 -99 -47 -214z m1269 101 c-7
-18 -13 -24 -16 -16 -3 8 0 19 6 25 6 6 12 20 12 32 1 14 3 15 6 4 2 -8 -1
-29 -8 -45z m-1220 -181 c-5 -21 -12 -50 -15 -65 -4 -16 -10 -28 -15 -28 -13
0 -14 -4 26 118 10 28 12 9 4 -25z m-55 -238 c-32 -181 -95 -371 -200 -602 -8
-17 -14 -33 -14 -36 0 -3 -16 -39 -35 -81 -19 -42 -51 -110 -70 -152 -19 -42
-35 -78 -35 -80 0 -12 -115 -242 -142 -287 -41 -65 -71 -127 -93 -192 -33 -97
-66 -151 -156 -255 -49 -58 -111 -133 -137 -167 -47 -61 -91 -101 -79 -71 2 8
43 68 90 135 99 138 178 266 232 373 107 212 507 1141 590 1370 56 156 71 169
49 45z m-190 -131 c-38 -114 -114 -309 -158 -406 -14 -31 -30 -68 -36 -82 -5
-14 -14 -26 -19 -26 -6 0 -8 -7 -5 -15 4 -8 1 -15 -5 -15 -6 0 -11 -6 -11 -13
0 -18 -24 -67 -32 -67 -5 0 -8 -7 -8 -15 0 -8 -5 -15 -11 -15 -7 0 -9 10 -5
28 8 32 62 145 91 187 17 26 87 195 208 502 34 87 29 53 -9 -63z m1123 80 c-3
-3 -12 -4 -19 -1 -8 3 -5 6 6 6 11 1 17 -2 13 -5z m110 -30 c79 -17 131 -44
85 -44 -30 0 -237 -110 -349 -186 -28 -19 -128 -100 -160 -131 -7 -6 -35 -26
-63 -44 -27 -18 -50 -36 -50 -40 0 -4 -9 -5 -20 -2 -28 8 -16 60 25 103 70 73
129 130 136 130 4 0 9 10 13 23 5 19 8 20 17 7 9 -13 11 -13 16 -1 8 21 76 81
90 81 7 0 18 9 25 20 7 11 18 20 25 20 7 0 13 7 13 15 0 8 6 15 13 15 21 0 77
30 77 41 0 13 18 11 107 -7z m383 -94 c0 -5 -7 -10 -16 -10 -9 0 -24 -9 -34
-20 -16 -19 -100 -60 -122 -60 -19 0 -171 -82 -245 -132 -192 -129 -366 -298
-586 -568 -65 -80 -126 -154 -135 -165 -9 -11 -34 -42 -55 -70 -142 -188 -714
-745 -827 -805 -24 -13 -24 -13 4 20 15 19 42 45 60 59 69 55 455 424 526 502
128 142 202 230 280 334 181 243 349 435 495 565 58 51 118 104 133 117 103
91 259 177 393 217 91 27 129 32 129 16z m-1274 -153 c36 -43 76 -135 69 -158
-7 -21 10 -27 18 -6 3 6 6 8 6 2 1 -12 -20 -39 -104 -136 -56 -65 -75 -80 -75
-61 0 5 -26 6 -59 4 -35 -2 -67 1 -81 8 -18 10 -24 9 -32 -1 -6 -9 -7 -2 -3
20 4 18 8 40 9 47 1 7 5 17 9 20 4 4 7 14 7 22 0 16 81 224 112 289 l21 42 38
-30 c21 -16 50 -44 65 -62z m300 -215 c-12 -11 -18 7 -10 30 l8 23 4 -23 c2
-13 1 -26 -2 -30z m-651 -188 c-13 -36 -32 -78 -42 -95 -19 -31 -40 -40 -28
-11 4 9 11 31 15 47 10 38 59 125 71 125 5 0 -2 -29 -16 -66z m-72 -162 c-3
-12 -10 -22 -15 -22 -5 0 -7 3 -5 8 2 4 7 16 11 26 9 25 17 16 9 -12z m-153
-428 c0 -7 -27 -34 -35 -34 -3 0 -1 9 5 20 10 18 30 28 30 14z m529 -76 c-51
-75 -569 -570 -569 -544 0 3 23 27 52 53 168 155 239 223 378 365 85 87 156
158 158 158 2 0 -7 -15 -19 -32z m-694 -654 c-38 -36 -79 -70 -90 -75 -23 -12
12 22 95 93 79 68 77 58 -5 -18z m-551 -89 c-16 -24 -44 -34 -44 -16 0 11 39
41 52 41 5 0 1 -11 -8 -25z m226 -185 c-71 -61 -257 -199 -340 -252 -90 -57
-220 -130 -220 -123 0 5 10 11 145 96 105 65 296 199 330 231 17 15 33 28 36
28 3 0 19 11 35 25 16 14 34 25 39 25 6 0 -6 -14 -25 -30z m-470 -41 c-6 -10
-12 -19 -15 -19 -2 0 -11 -3 -21 -7 -15 -6 -15 -2 5 25 24 34 49 35 31 1z
m-1625 -849 c3 -5 -1 -10 -10 -10 -9 0 -13 5 -10 10 3 6 8 10 10 10 2 0 7 -4
10 -10z m-59 -27 c-10 -10 -19 5 -10 18 6 11 8 11 12 0 2 -7 1 -15 -2 -18z
m-51 -3 c-3 -5 -10 -10 -16 -10 -5 0 -9 5 -9 10 0 6 7 10 16 10 8 0 12 -4 9
-10z m-55 -10 c0 -5 -7 -10 -16 -10 -8 0 -12 5 -9 10 3 6 10 10 16 10 5 0 9
-4 9 -10z m-70 -15 c0 -8 -7 -15 -15 -15 -26 0 -18 20 13 29 1 1 2 -6 2 -14z
m-70 -20 c-7 -8 -16 -15 -21 -15 -5 0 -9 7 -9 15 0 9 9 15 21 15 18 0 19 -2 9
-15z m-75 -5 c-3 -5 -15 -10 -26 -10 -11 0 -17 5 -14 10 3 6 15 10 26 10 11 0
17 -4 14 -10z m-100 -20 c-3 -5 -15 -10 -26 -10 -10 0 -19 5 -19 10 0 6 12 10
26 10 14 0 23 -4 19 -10z"/>
<path d="M20867 14073 c-12 -11 -8 -23 8 -23 8 0 15 7 15 15 0 16 -12 20 -23
8z"/>
<path d="M20850 13910 c0 -5 5 -10 10 -10 6 0 10 5 10 10 0 6 -4 10 -10 10 -5
0 -10 -4 -10 -10z"/>
<path d="M9940 20855 c-7 -9 -10 -18 -7 -21 10 -11 37 5 37 21 0 19 -14 19
-30 0z"/>
<path d="M10698 20776 c-63 -75 -158 -208 -158 -221 0 -3 -16 -27 -35 -54 -37
-51 -45 -72 -20 -51 8 7 15 18 15 25 0 8 4 15 9 17 5 2 29 35 54 73 25 39 82
119 127 179 45 59 80 109 78 111 -2 1 -33 -34 -70 -79z"/>
<path d="M19949 20831 c3 -19 12 -36 19 -39 18 -6 14 23 -7 49 l-19 24 7 -34z"/>
<path d="M9977 20834 c-4 -4 -7 -23 -7 -43 0 -33 1 -34 14 -15 8 11 16 28 18
38 3 19 -13 32 -25 20z"/>
<path d="M20067 20833 c-14 -13 -6 -53 12 -63 26 -13 35 1 26 40 -6 28 -23 38
-38 23z"/>
<path d="M10940 20753 c-23 -27 -50 -59 -59 -73 -8 -14 -24 -31 -33 -38 -10
-7 -18 -18 -18 -24 0 -6 -16 -30 -35 -54 -19 -23 -35 -45 -35 -49 0 -3 -5 -11
-10 -18 -34 -40 -80 -107 -80 -116 0 -6 -4 -11 -10 -11 -5 0 -10 -4 -10 -10 0
-5 -16 -32 -35 -59 -19 -26 -35 -51 -35 -55 0 -3 -16 -30 -35 -60 -19 -30 -35
-65 -35 -76 0 -13 -4 -18 -11 -14 -7 4 -10 -2 -8 -18 3 -20 -23 -89 -61 -159
-52 -99 -273 -744 -285 -831 -2 -15 -7 -33 -12 -40 -4 -7 -9 -42 -10 -78 -1
-36 -4 -98 -7 -139 -6 -83 1 -83 28 -1 18 56 24 73 45 123 6 15 16 39 22 55 7
15 15 36 20 47 58 147 96 240 116 285 14 30 32 73 41 95 19 47 191 392 225
450 13 22 36 63 52 90 15 28 38 69 51 92 13 23 24 49 24 58 0 9 5 13 10 10 19
-12 -2 49 -24 68 -16 14 -17 20 -7 26 8 5 13 33 15 72 3 76 6 90 26 106 8 6
12 15 8 18 -4 4 -1 19 6 34 7 14 11 32 9 39 -3 6 0 12 5 12 5 0 17 18 27 40
10 22 22 40 27 40 4 0 8 7 8 15 0 8 4 15 9 15 5 0 12 8 15 18 4 10 14 27 24
38 23 26 93 124 88 124 -2 0 -23 -21 -46 -47z"/>
<path d="M20000 20690 c0 -5 5 -10 11 -10 5 0 7 5 4 10 -3 6 -8 10 -11 10 -2
0 -4 -4 -4 -10z"/>
<path d="M19350 20686 c0 -2 8 -10 18 -17 15 -13 16 -12 3 4 -13 16 -21 21
-21 13z"/>
<path d="M9855 20610 c-27 -27 -44 -50 -38 -50 10 0 93 84 93 95 0 10 -6 5
-55 -45z"/>
<path d="M19391 20633 c7 -12 15 -20 18 -17 3 2 -3 12 -13 22 -17 16 -18 16
-5 -5z"/>
<path d="M19460 20536 c0 -2 8 -10 18 -17 15 -13 16 -12 3 4 -13 16 -21 21
-21 13z"/>
<path d="M9640 20488 c-65 -27 -150 -72 -146 -76 15 -14 176 60 176 81 0 8 2
9 -30 -5z"/>
<path d="M19490 20490 c0 -5 5 -10 11 -10 5 0 7 5 4 10 -3 6 -8 10 -11 10 -2
0 -4 -4 -4 -10z"/>
<path d="M9570 20405 c-25 -14 -40 -25 -34 -25 14 0 104 39 104 45 0 11 -28 3
-70 -20z"/>
<path d="M10431 20382 c-17 -31 -13 -40 5 -14 9 13 14 26 11 29 -3 2 -10 -4
-16 -15z"/>
<path d="M10392 20320 c-18 -29 -15 -38 4 -12 9 13 14 25 12 27 -2 2 -9 -5
-16 -15z"/>
<path d="M9153 20310 c-40 -24 -45 -44 -7 -30 15 6 38 19 52 30 21 17 22 20 6
20 -11 0 -34 -9 -51 -20z"/>
<path d="M9175 20272 c-5 -4 -17 -16 -25 -27 -13 -16 -9 -15 20 5 19 13 37 25
39 27 9 7 -25 2 -34 -5z"/>
<path d="M10471 20054 c0 -11 3 -14 6 -6 3 7 2 16 -1 19 -3 4 -6 -2 -5 -13z"/>
<path d="M20780 19890 c0 -5 5 -10 10 -10 6 0 10 5 10 10 0 6 -4 10 -10 10 -5
0 -10 -4 -10 -10z"/>
<path d="M20795 19851 c-32 -15 -35 -20 -17 -20 12 -1 22 -5 22 -10 0 -12 -29
-23 -42 -15 -6 4 -8 -1 -3 -15 4 -12 2 -21 -4 -21 -6 0 -11 -5 -11 -12 0 -9 3
-9 12 0 17 17 28 15 28 -4 0 -8 -4 -13 -9 -9 -5 3 -12 1 -16 -5 -3 -5 -1 -10
4 -10 6 0 11 -7 11 -16 0 -11 -5 -14 -16 -10 -9 3 -18 6 -20 6 -2 0 -4 6 -4
13 -1 6 -19 30 -40 52 -40 41 -55 45 -22 7 44 -52 52 -63 52 -67 0 -8 74 -110
82 -113 5 -2 8 -8 8 -14 0 -5 11 -24 25 -42 14 -18 25 -38 25 -44 0 -7 5 -12
10 -12 6 0 10 -4 10 -9 0 -5 24 -48 53 -97 29 -49 59 -101 66 -116 8 -16 18
-28 23 -28 4 0 8 -6 8 -12 0 -7 8 -22 17 -33 15 -19 15 -19 9 13 -5 30 -4 33
14 27 11 -4 20 -2 20 4 0 6 11 11 24 11 24 0 56 23 56 41 0 5 -7 9 -15 9 -8 0
-15 5 -15 11 0 6 7 9 15 5 9 -3 15 0 15 8 0 8 -5 16 -12 18 -6 2 -12 12 -14
22 -1 9 -12 37 -23 62 -12 24 -21 50 -21 58 0 8 -4 18 -10 21 -5 3 -26 40 -46
81 -20 41 -40 74 -45 74 -5 0 -9 7 -9 17 0 9 -18 34 -40 55 -22 22 -40 46 -40
54 0 8 -9 14 -21 14 -15 0 -19 4 -14 19 7 24 -14 39 -27 20 -7 -10 -7 -7 -3 9
8 27 2 27 -50 3z m275 -581 c0 -5 -2 -10 -4 -10 -3 0 -8 5 -11 10 -3 6 -1 10
4 10 6 0 11 -4 11 -10z"/>
<path d="M19460 19780 c0 -5 5 -10 10 -10 6 0 10 5 10 10 0 6 -4 10 -10 10 -5
0 -10 -4 -10 -10z"/>
<path d="M19457 19753 c-11 -10 -8 -25 3 -18 6 3 10 -3 10 -14 0 -17 94 -229
130 -293 6 -10 10 -25 10 -33 0 -8 5 -15 10 -15 6 0 10 -9 10 -19 0 -11 5 -23
10 -26 6 -3 10 -13 10 -20 0 -13 37 -101 61 -147 5 -10 9 -25 9 -33 0 -19 17
-19 37 0 11 12 14 31 10 84 -2 37 -9 77 -15 88 -6 11 -13 35 -16 54 -4 33 -18
79 -49 163 -8 22 -22 45 -31 51 -9 7 -21 26 -27 44 -6 17 -15 31 -19 31 -4 0
-11 11 -14 25 -7 26 -41 35 -49 13 -4 -10 -7 -10 -18 0 -11 10 -10 12 3 12 9
0 18 6 21 13 4 10 -2 13 -19 9 -14 -2 -24 0 -24 7 0 6 -7 11 -15 11 -8 0 -15
5 -15 10 0 11 -13 13 -23 3z"/>
<path d="M8588 19412 c-80 -166 -80 -165 -164 -375 -37 -92 -64 -170 -61 -174
4 -3 10 3 13 13 33 93 177 440 225 540 33 70 58 128 56 130 -2 2 -33 -58 -69
-134z"/>
<path d="M20001 19520 c0 -8 9 -33 20 -55 10 -22 16 -29 13 -16 -10 37 -33 88
-33 71z"/>
<path d="M10000 19497 c0 -7 -8 -31 -19 -53 -33 -70 -188 -475 -240 -629 -57
-171 -110 -358 -165 -588 -2 -9 -1 -15 4 -12 4 3 10 17 13 32 3 16 10 44 15
63 25 86 62 210 81 273 12 37 30 95 40 130 27 86 81 240 136 382 25 66 68 179
95 250 27 72 52 138 55 148 4 10 3 17 -4 17 -6 0 -11 -6 -11 -13z"/>
<path d="M20040 19415 c0 -5 5 -17 10 -25 5 -8 10 -10 10 -5 0 6 -5 17 -10 25
-5 8 -10 11 -10 5z"/>
<path d="M21720 19110 c0 -5 5 -10 10 -10 6 0 10 5 10 10 0 6 -4 10 -10 10 -5
0 -10 -4 -10 -10z"/>
<path d="M20171 19054 c0 -11 3 -14 6 -6 3 7 2 16 -1 19 -3 4 -6 -2 -5 -13z"/>
<path d="M21746 19061 c-6 -9 34 -94 41 -88 4 4 -27 97 -32 97 -2 0 -6 -4 -9
-9z"/>
<path d="M20191 19004 c0 -11 3 -14 6 -6 3 7 2 16 -1 19 -3 4 -6 -2 -5 -13z"/>
<path d="M20207 18959 c4 -13 8 -18 11 -10 2 7 -1 18 -6 23 -8 8 -9 4 -5 -13z"/>
<path d="M21782 18948 c6 -18 28 -21 28 -4 0 9 -7 16 -16 16 -9 0 -14 -5 -12
-12z"/>
<path d="M20220 18925 c0 -5 5 -17 10 -25 5 -8 10 -10 10 -5 0 6 -5 17 -10 25
-5 8 -10 11 -10 5z"/>
<path d="M20241 18870 c0 -8 4 -22 9 -30 12 -18 12 -2 0 25 -6 13 -9 15 -9 5z"/>
<path d="M21846 18793 c14 -38 28 -75 31 -83 3 -8 5 -18 5 -23 -1 -4 10 -40
24 -80 14 -39 34 -103 44 -142 10 -38 33 -124 50 -190 18 -66 36 -140 41 -165
5 -25 20 -90 33 -145 14 -55 30 -127 36 -160 7 -33 20 -89 30 -125 10 -36 22
-83 25 -105 4 -22 18 -87 32 -145 14 -58 36 -163 48 -235 13 -71 33 -179 45
-240 11 -60 27 -168 35 -240 8 -71 20 -166 26 -210 60 -466 60 -973 -1 -1710
-11 -126 -22 -270 -25 -320 -4 -49 -13 -142 -21 -205 -8 -63 -21 -164 -29
-225 -31 -243 -111 -595 -265 -1165 -48 -176 -106 -369 -166 -547 -54 -163
-62 -197 -45 -207 25 -16 38 10 59 118 12 63 30 129 41 147 18 31 33 74 63
184 7 22 14 45 18 50 4 6 12 30 19 55 8 25 19 62 27 82 7 20 23 76 34 125 28
119 25 109 54 191 14 41 26 85 26 98 0 27 34 137 51 168 6 10 12 50 15 89 4
73 8 92 29 142 26 61 45 142 48 207 2 37 9 74 16 82 7 9 10 23 7 32 -4 9 -1
23 5 30 6 8 14 52 17 99 2 47 9 85 13 85 5 0 9 11 9 25 0 14 -4 25 -10 25 -13
0 -13 43 1 57 8 8 8 17 -1 33 -10 19 -9 24 10 37 18 13 21 22 15 49 -4 25 -2
36 9 40 11 4 14 20 11 69 -3 35 0 67 4 70 5 3 7 36 4 74 -3 43 0 78 7 91 10
18 9 30 -6 61 -16 37 -16 40 1 59 17 19 24 88 10 110 -3 5 2 29 13 52 14 34
17 62 15 133 -2 50 1 119 7 155 19 111 10 976 -10 990 -4 3 -11 64 -14 135 -8
159 -14 203 -32 233 -11 16 -12 27 -4 41 14 28 12 63 -5 88 -15 21 -11 53 6
53 5 0 9 5 9 10 0 6 -6 9 -12 8 -8 -2 -13 9 -14 27 0 17 -6 41 -13 53 -7 13
-10 34 -7 47 3 13 2 27 -4 30 -6 3 -9 26 -8 50 2 23 6 41 11 38 16 -9 6 24
-15 50 -14 17 -22 43 -23 70 -1 23 -4 58 -7 77 -3 19 -3 27 -1 18 4 -17 23
-26 23 -10 0 6 -21 114 -35 187 -4 17 -13 66 -22 110 -27 146 -131 566 -154
623 -5 13 -9 32 -9 42 0 11 -4 20 -9 20 -5 0 -3 -26 5 -57 49 -204 74 -324 73
-349 0 -27 -1 -27 -16 11 -8 22 -25 87 -38 145 -47 211 -125 492 -149 538 -8
15 -21 56 -30 92 -9 36 -23 70 -31 76 -8 6 -15 20 -15 30 0 10 -6 31 -14 46
-8 15 -17 40 -21 57 -4 17 -13 31 -20 31 -11 0 -8 -16 11 -67z m358 -1089 c13
-49 27 -111 30 -139 l6 -50 -25 65 c-14 35 -30 94 -35 130 -18 124 -10 122 24
-6z m56 -245 c0 -6 -4 -7 -10 -4 -5 3 -10 11 -10 16 0 6 5 7 10 4 6 -3 10 -11
10 -16z m30 -142 c0 -34 -18 -7 -30 42 -16 67 -1 90 16 25 7 -27 13 -57 14
-67z"/>
<path d="M8337 18810 c-9 -24 -15 -45 -12 -48 6 -6 36 70 32 81 -1 5 -11 -10
-20 -33z"/>
<path d="M20261 18804 c0 -11 3 -14 6 -6 3 7 2 16 -1 19 -3 4 -6 -2 -5 -13z"/>
<path d="M20275 18760 c12 -40 26 -59 19 -25 -4 17 -11 35 -16 40 -7 7 -8 1
-3 -15z"/>
<path d="M8286 18677 c-23 -61 -19 -72 5 -13 11 27 18 50 16 53 -2 2 -12 -16
-21 -40z"/>
<path d="M20301 18684 c0 -11 3 -14 6 -6 3 7 2 16 -1 19 -3 4 -6 -2 -5 -13z"/>
<path d="M20311 18655 c1 -19 18 -51 18 -35 0 8 -4 22 -9 30 -5 8 -9 11 -9 5z"/>
<path d="M8256 18595 c-9 -26 -7 -32 5 -12 6 10 9 21 6 23 -2 3 -7 -2 -11 -11z"/>
<path d="M20331 18590 c0 -8 4 -24 9 -35 5 -13 9 -14 9 -5 0 8 -4 24 -9 35 -5
13 -9 14 -9 5z"/>
<path d="M8241 18553 c-1 -6 -4 -20 -7 -30 -5 -17 -5 -17 6 0 6 10 9 23 6 30
-3 9 -5 9 -5 0z"/>
<path d="M15862 18535 c0 -16 2 -22 5 -12 2 9 2 23 0 30 -3 6 -5 -1 -5 -18z"/>
<path d="M14516 18383 c-8 -173 -32 -412 -45 -445 -19 -47 -32 -276 -30 -521
6 -558 4 -865 -8 -971 -8 -69 -13 -250 -13 -489 0 -208 -4 -454 -10 -545 -5
-92 -12 -234 -16 -316 -8 -189 -24 -173 -24 24 0 83 -6 177 -14 220 -8 41 -20
140 -26 220 -7 80 -14 147 -16 149 -1 2 -6 -8 -10 -23 -11 -46 -24 -28 -24 37
0 83 -15 210 -37 310 l-18 82 -6 -75 c-4 -41 -7 -410 -8 -820 -1 -774 -7 -903
-41 -970 -26 -51 -25 -55 9 -93 40 -41 65 -100 57 -130 -3 -14 -39 -58 -79
-98 -56 -58 -84 -78 -127 -93 -30 -10 -60 -23 -67 -28 -7 -5 -46 -2 -100 8
-48 9 -133 19 -188 23 -76 5 -110 12 -137 28 -41 24 -58 16 -58 -29 0 -32 7
-33 93 -17 74 13 276 -16 325 -47 31 -20 28 -38 -5 -29 -31 7 -28 4 32 -42 22
-16 52 -33 66 -36 46 -11 113 -119 161 -257 45 -131 77 -243 78 -267 0 -22
-10 -30 -23 -17 -3 4 -22 8 -42 9 -28 1 -35 -2 -35 -16 0 -28 -17 -31 -35 -7
-16 23 -16 23 -10 -7 4 -16 10 -41 15 -55 45 -132 96 -514 105 -794 8 -257 16
-357 26 -350 5 3 9 0 9 -7 0 -7 3 -9 7 -6 25 26 57 455 43 580 -7 56 -6 84 2
97 9 15 9 24 -1 44 -16 28 -7 76 13 76 11 0 15 -25 20 -107 3 -60 11 -155 16
-213 6 -58 10 -126 10 -152 0 -26 5 -50 10 -53 6 -4 10 41 10 128 0 73 3 137
7 140 3 4 13 -3 22 -16 26 -36 27 -210 3 -332 -12 -55 -24 -136 -27 -180 -22
-260 -61 -502 -85 -529 -9 -9 -20 27 -40 124 -6 30 -17 69 -25 85 -11 26 -13
-103 -14 -882 -1 -743 1 -913 12 -913 20 0 37 21 37 46 0 13 5 26 10 29 6 4
22 24 36 46 13 21 30 39 38 39 28 0 47 86 92 415 7 47 8 48 15 20 3 -16 7 -79
9 -140 1 -60 5 -130 9 -155 l7 -45 9 60 c4 33 5 287 1 565 -7 490 1 737 23
764 5 6 16 36 24 66 19 74 21 61 42 -245 9 -137 21 -288 26 -335 25 -224 20
-1046 -7 -1265 -4 -35 -3 -37 7 -20 20 31 46 275 54 488 5 137 3 254 -9 407
-22 308 -31 736 -17 835 13 91 22 105 52 86 39 -24 43 -4 45 232 1 122 7 249
12 282 13 73 8 379 -7 455 -7 30 -11 71 -10 90 3 110 -56 545 -90 665 -29 104
-39 119 -126 205 -14 13 -25 28 -25 33 0 4 -5 13 -10 20 -21 24 -150 238 -150
247 0 13 9 13 118 -7 92 -17 95 -19 121 -58 15 -22 38 -65 50 -95 13 -30 29
-68 36 -85 63 -144 133 -425 150 -595 2 -25 9 -83 14 -130 18 -155 32 -379 34
-560 3 -268 27 -718 42 -787 6 -27 23 -30 198 -43 154 -10 169 -15 309 -103
93 -59 107 -59 109 -3 l1 31 8 -30 c5 -16 10 -571 12 -1232 l3 -1203 35 -32
c33 -32 33 -32 7 -2 l-27 30 1 205 c1 172 13 376 18 301 1 -30 11 -23 36 25
10 21 24 45 31 53 16 20 43 114 59 208 7 42 20 102 28 132 19 66 37 390 37
643 0 167 12 289 30 310 4 4 10 -95 13 -220 4 -125 11 -231 15 -235 5 -5 12
96 15 224 4 128 16 332 27 453 11 121 25 276 31 345 6 69 16 139 24 155 7 17
16 63 20 103 4 41 10 86 14 100 12 44 21 -345 21 -895 0 -300 4 -513 9 -513
11 0 19 108 31 470 11 322 28 621 38 694 8 56 27 70 42 32 12 -33 26 -33 34 0
4 14 6 206 5 427 -1 400 4 514 25 552 6 12 13 139 17 335 7 340 -3 2638 -11
2530 l-5 -65 -8 45 c-9 52 -27 88 -27 55 -1 -77 -31 -409 -39 -422 -11 -20
-26 70 -41 247 -11 128 -26 252 -37 305 l-6 30 -12 -29 c-11 -25 -13 -5 -20
145 -5 96 -9 307 -10 469 -1 162 -3 322 -4 355 -2 53 -4 57 -13 35 -28 -61
-18 -1424 9 -1451 10 -10 21 94 25 245 1 39 5 -29 8 -152 5 -229 -24 -1331
-36 -1320 -2 2 -8 215 -14 473 -6 259 -15 511 -19 560 l-7 90 -9 -135 -9 -135
-7 160 c-26 626 -31 1023 -20 1385 13 391 12 1501 -1 1493 -5 -2 -8 -158 -8
-346 0 -376 -12 -585 -36 -650 -36 -94 -52 -388 -70 -1332 -8 -399 -24 -487
-38 -205 -2 52 -11 127 -20 165 -8 39 -21 124 -28 190 -7 69 -14 104 -16 83
-2 -21 -7 -38 -13 -38 -11 0 -11 355 1 445 l7 60 2 -50 c3 -47 3 -48 12 -20 6
17 12 118 14 225 2 107 0 177 -4 155 l-7 -40 -7 35 c-3 19 -8 85 -11 145 -5
118 -16 164 -51 207 -30 36 -34 69 -44 376 -5 145 -11 266 -14 268 -2 2 -7
-95 -11 -216 -7 -216 -16 -280 -40 -280 -33 0 -46 -36 -46 -124 0 -80 -3 -95
-41 -184 -72 -168 -63 -286 28 -383 26 -28 52 -48 59 -45 9 3 16 -8 21 -32 10
-48 10 -1378 0 -1415 -5 -19 -13 -27 -22 -23 -8 3 -20 -1 -27 -8 -8 -7 -37
-21 -66 -30 -28 -10 -52 -22 -52 -27 0 -5 -11 -11 -25 -15 -14 -3 -33 -16 -41
-28 -12 -16 -17 -18 -21 -7 -4 9 -13 -2 -25 -28 -10 -22 -22 -41 -27 -41 -4 0
-6 -11 -3 -25 2 -14 0 -25 -5 -25 -6 0 -6 -13 1 -35 6 -19 14 -35 18 -35 5 0
8 -11 8 -25 0 -14 4 -25 10 -25 5 0 7 -13 4 -30 -5 -24 -3 -30 10 -30 10 0 15
-4 12 -9 -4 -5 -1 -11 6 -13 6 -2 11 -18 11 -36 0 -18 4 -32 9 -32 4 0 8 -8 8
-18 0 -10 7 -27 15 -38 8 -10 15 -29 15 -41 0 -13 5 -23 10 -23 6 0 10 -12 10
-26 0 -14 6 -40 14 -57 7 -18 21 -59 30 -92 10 -33 21 -67 27 -75 5 -8 20 -38
34 -67 17 -35 30 -51 39 -47 25 9 31 -74 29 -371 -2 -324 -8 -409 -28 -401
-13 5 -175 -145 -175 -162 0 -4 -18 -29 -40 -56 -22 -26 -40 -53 -40 -60 -1
-6 -14 -27 -30 -46 -17 -19 -30 -41 -30 -48 0 -8 -10 -31 -22 -51 -35 -55 -46
-74 -60 -101 -7 -14 -21 -31 -31 -39 -11 -7 -25 -29 -33 -47 -14 -34 -66 -70
-84 -59 -6 4 -11 -12 -11 -37 -2 -37 -3 -35 -10 22 -5 36 -13 133 -19 215 -13
213 -55 578 -70 610 -9 19 -19 92 -22 147 0 15 11 46 26 68 66 100 116 229
116 300 0 21 4 42 10 45 6 4 8 81 5 213 -6 263 -6 252 -15 252 -8 0 -25 112
-22 142 1 9 -10 26 -25 38 -30 23 -31 34 -14 216 17 188 -6 3070 -25 3052 -1
-2 -8 -69 -13 -148 -11 -150 -31 -280 -42 -280 -12 0 -20 94 -25 305 -3 116
-7 219 -9 231 -3 11 -15 25 -29 32 -21 9 -25 7 -35 -16 -10 -20 -14 -23 -21
-12 -13 21 -24 -71 -16 -138 3 -31 11 -205 16 -387 14 -454 25 -620 39 -596 4
7 14 -28 22 -76 10 -65 14 -196 14 -493 1 -223 5 -434 10 -470 5 -36 9 -68 9
-72 4 -40 44 48 47 101 0 12 3 10 9 -4 10 -23 11 -398 1 -495 l-6 -65 -7 50
c-4 28 -10 61 -12 75 -3 14 -11 54 -18 89 -11 57 -13 61 -20 35 -4 -15 -15
-91 -23 -169 -27 -228 -35 -208 -60 140 -18 251 -21 271 -38 257 -9 -8 -11 37
-9 201 6 448 -27 1080 -58 1111 -13 13 -13 -42 1 -339 5 -126 10 -475 10 -775
-1 -300 3 -558 8 -575 l8 -30 7 25 c3 14 10 70 15 125 8 96 8 92 9 -85 2 -299
-15 -671 -33 -756 -16 -69 -28 -90 -37 -63 -4 11 -58 -94 -76 -146 -5 -16 -13
-39 -17 -50 -13 -36 59 70 84 123 13 28 28 49 32 46 13 -7 45 50 75 133 34 94
48 106 68 59 18 -43 28 -45 54 -11 28 35 34 31 30 -22 -3 -48 -6 -51 -45 -39
-18 6 -25 1 -38 -28 -9 -19 -28 -42 -41 -51 -13 -8 -24 -24 -24 -36 0 -28 -47
-138 -76 -176 -29 -38 -30 -47 -5 -33 11 5 31 10 46 10 14 0 41 6 60 14 19 8
37 11 39 7 10 -15 -52 -128 -113 -204 l-61 -77 -43 6 c-23 4 -87 15 -141 24
-55 10 -106 16 -114 13 -8 -3 -17 -2 -21 4 -3 5 -25 15 -48 21 -24 7 -43 16
-42 20 0 4 33 23 72 42 100 48 209 157 258 260 79 164 89 223 88 488 -1 200
-13 239 -20 62 -6 -193 -16 268 -18 843 -1 572 -9 864 -32 1192 -6 83 -15 211
-20 285 -18 258 -22 599 -9 756 6 82 14 151 17 154 2 2 8 -2 13 -10 6 -10 10
-4 14 21 12 75 33 679 24 679 -3 0 -9 -66 -12 -147z m307 -2363 l-7 -85 -6 80
c-4 44 -6 94 -5 110 1 17 3 59 5 95 l3 65 9 -90 c5 -49 6 -128 1 -175z m-306
-1697 c-3 -10 -5 -4 -5 12 0 17 2 24 5 18 2 -7 2 -21 0 -30z m-172 0 c-4 -16
-9 -48 -12 -73 l-5 -45 21 20 c17 14 24 16 30 7 9 -14 2 -70 -9 -77 -18 -11
-170 92 -170 115 0 3 15 4 34 2 26 -3 37 1 50 19 9 13 16 31 16 41 0 13 8 18
26 18 24 0 26 -3 19 -27z m159 -75 c-9 -63 -52 -165 -95 -229 -71 -106 -205
-204 -327 -240 -28 -8 -41 -17 -38 -26 7 -18 -9 -17 -24 2 -16 19 -18 17 55
41 74 24 188 97 238 153 73 82 126 175 176 314 15 40 22 33 15 -15z m1381
-788 c5 -403 4 -522 -5 -514 -24 23 -42 1040 -23 1264 l8 85 6 -155 c4 -85 10
-391 14 -680z m-1485 656 c0 -8 -11 -28 -25 -43 -24 -27 -24 -27 -25 -5 0 28
20 62 37 62 7 0 13 -6 13 -14z m345 -96 c3 -5 1 -10 -4 -10 -6 0 -11 5 -11 10
0 6 2 10 4 10 3 0 8 -4 11 -10z m-629 -337 c183 -190 332 -558 349 -863 3 -52
3 -90 0 -85 -2 6 -20 83 -40 173 -74 337 -172 578 -300 740 -36 45 -63 82 -60
82 3 0 26 -21 51 -47z m1608 -457 c3 -30 3 -101 0 -157 -7 -112 4 -504 14
-494 3 3 9 88 13 190 10 270 32 273 44 5 4 -82 2 -162 -4 -205 -6 -38 -16
-248 -21 -465 -5 -217 -14 -435 -19 -485 -9 -94 -38 -196 -57 -202 -6 -2 -19
23 -28 57 -9 33 -22 60 -27 60 -6 0 -22 -9 -37 -20 -35 -28 -45 -15 -54 78 -8
96 -8 397 1 477 6 52 7 41 13 -80 5 -111 12 -155 32 -214 67 -197 72 -141 81
829 5 553 12 680 36 680 3 0 9 -24 13 -54z m98 -531 l-9 -70 -2 66 c0 36 2
102 7 145 l7 79 3 -75 c1 -41 -1 -106 -6 -145z m-1512 53 c0 -5 -4 -8 -10 -8
-5 0 -10 10 -10 23 0 18 2 19 10 7 5 -8 10 -18 10 -22z m117 -100 c-2 -13 -4
-3 -4 22 0 25 2 35 4 23 2 -13 2 -33 0 -45z m23 -228 c0 -80 -4 -152 -10 -160
-5 -9 -8 49 -7 157 1 94 5 166 9 159 4 -6 8 -76 8 -156z m-60 90 c0 -11 -4
-20 -10 -20 -5 0 -10 9 -10 20 0 11 5 20 10 20 6 0 10 -9 10 -20z"/>
<path d="M20351 18520 c0 -8 4 -22 9 -30 12 -18 12 -2 0 25 -6 13 -9 15 -9 5z"/>
<path d="M8221 18484 c0 -11 3 -14 6 -6 3 7 2 16 -1 19 -3 4 -6 -2 -5 -13z"/>
<path d="M15863 18455 c0 -22 2 -30 4 -17 2 12 2 30 0 40 -3 9 -5 -1 -4 -23z"/>
<path d="M20372 18450 c0 -14 2 -19 5 -12 2 6 2 18 0 25 -3 6 -5 1 -5 -13z"/>
<path d="M8201 18438 c0 -9 -4 -25 -7 -35 -5 -17 -5 -17 6 0 6 10 9 25 7 35
-4 15 -5 15 -6 0z"/>
<path d="M20386 18393 c9 -46 65 -232 59 -198 -7 43 -54 217 -60 223 -3 3 -2
-8 1 -25z"/>
<path d="M8181 18364 c0 -11 3 -14 6 -6 3 7 2 16 -1 19 -3 4 -6 -2 -5 -13z"/>
<path d="M8167 18334 c-4 -4 -7 -14 -7 -23 0 -11 3 -12 11 -4 6 6 10 16 7 23
-2 6 -7 8 -11 4z"/>
<path d="M15868 18050 c-4 -151 -5 -276 -3 -278 1 -2 10 4 19 13 14 15 15 36
10 173 -15 371 -19 384 -26 92z"/>
<path d="M22071 18284 c0 -11 3 -14 6 -6 3 7 2 16 -1 19 -3 4 -6 -2 -5 -13z"/>
<path d="M8151 18274 c0 -11 3 -14 6 -6 3 7 2 16 -1 19 -3 4 -6 -2 -5 -13z"/>
<path d="M8128 18197 c-3 -19 -2 -25 4 -19 6 6 8 18 6 28 -3 14 -5 12 -10 -9z"/>
<path d="M9562 18170 c0 -14 2 -19 5 -12 2 6 2 18 0 25 -3 6 -5 1 -5 -13z"/>
<path d="M8112 18140 c0 -14 2 -19 5 -12 2 6 2 18 0 25 -3 6 -5 1 -5 -13z"/>
<path d="M20462 18100 c0 -14 2 -19 5 -12 2 6 2 18 0 25 -3 6 -5 1 -5 -13z"/>
<path d="M20593 18107 c3 -8 1 -20 -3 -27 -11 -18 16 -70 36 -70 18 0 14 29
-9 83 -12 27 -34 40 -24 14z"/>
<path d="M8096 18095 c-3 -9 -6 -24 -5 -33 0 -9 5 -4 10 12 9 32 6 48 -5 21z"/>
<path d="M9582 18060 c0 -14 2 -19 5 -12 2 6 2 18 0 25 -3 6 -5 1 -5 -13z"/>
<path d="M20476 18040 c10 -54 26 -83 18 -35 -3 22 -10 47 -15 55 -7 10 -8 4
-3 -20z"/>
<path d="M8077 18026 c-4 -10 -7 -25 -6 -34 0 -11 4 -9 10 7 5 13 8 29 6 35
-2 5 -6 2 -10 -8z"/>
<path d="M9558 17980 c-3 -19 -13 -66 -22 -105 -25 -106 -36 -156 -41 -195
l-5 -35 10 30 c6 17 14 48 19 70 5 22 18 82 30 134 12 52 20 104 19 115 -3 14
-6 10 -10 -14z"/>
<path d="M8055 17950 c-4 -12 -5 -24 -2 -27 3 -2 8 5 12 17 4 12 5 24 2 27 -3
2 -8 -5 -12 -17z"/>
<path d="M20502 17940 c0 -14 2 -19 5 -12 2 6 2 18 0 25 -3 6 -5 1 -5 -13z"/>
<path d="M8042 17890 c0 -14 2 -19 5 -12 2 6 2 18 0 25 -3 6 -5 1 -5 -13z"/>
<path d="M20512 17890 c0 -8 4 -26 8 -40 6 -20 8 -21 8 -5 0 11 -3 29 -8 40
-5 12 -8 14 -8 5z"/>
<path d="M14897 17844 c-11 -11 -8 -307 3 -324 8 -12 10 -12 10 -1 0 11 38 12
218 8 201 -4 324 -18 346 -38 20 -18 26 -8 26 41 0 49 0 49 -47 73 -27 12 -75
37 -109 55 -33 18 -127 55 -210 82 -82 28 -161 59 -176 70 -15 11 -31 20 -37
20 -5 0 -11 5 -13 11 -2 5 -7 7 -11 3z"/>
<path d="M8022 17820 c0 -14 2 -19 5 -12 2 6 2 18 0 25 -3 6 -5 1 -5 -13z"/>
<path d="M15984 17433 c1 -205 5 -376 9 -379 15 -15 14 582 -1 686 -7 46 -9
-41 -8 -307z"/>
<path d="M8007 17773 c-4 -3 -7 -16 -6 -27 0 -19 1 -19 10 3 10 24 8 36 -4 24z"/>
<path d="M15938 17740 c-12 -56 -16 -180 -9 -240 7 -54 7 -54 15 -20 4 19 6
94 4 165 -2 86 -5 118 -10 95z"/>
<path d="M14538 17740 c-14 -51 -19 -147 -10 -205 l8 -60 8 105 c9 119 6 202
-6 160z"/>
<path d="M15850 17676 c0 -38 2 -67 4 -65 9 9 13 108 5 120 -5 9 -9 -13 -9
-55z"/>
<path d="M7991 17708 c0 -9 -4 -25 -7 -35 -5 -17 -5 -17 6 0 6 10 9 25 7 35
-4 15 -5 15 -6 0z"/>
<path d="M14580 17640 c0 -135 13 -431 19 -425 9 9 0 478 -9 495 -6 10 -9 -15
-10 -70z"/>
<path d="M7967 17621 c-4 -17 -3 -21 5 -13 5 5 8 16 6 23 -3 8 -7 3 -11 -10z"/>
<path d="M9477 17627 c-11 -29 -9 -43 4 -30 6 6 9 19 7 29 -3 18 -4 18 -11 1z"/>
<path d="M16106 17607 c-3 -15 -9 -39 -12 -54 -3 -15 -12 -32 -19 -37 -12 -9
-15 -155 -19 -899 -3 -488 -3 -901 1 -917 3 -16 9 -28 13 -25 8 5 40 -149 40
-195 1 -36 16 -7 25 47 4 24 11 45 16 49 10 6 13 1956 2 2017 -4 27 -9 34 -14
25 -7 -11 -11 -10 -18 1 -8 12 -11 9 -15 -12z"/>
<path d="M7952 17560 c0 -14 2 -19 5 -12 2 6 2 18 0 25 -3 6 -5 1 -5 -13z"/>
<path d="M20801 17486 c-1 -45 41 -280 52 -291 17 -18 -21 244 -44 300 -6 17
-8 16 -8 -9z"/>
<path d="M7932 17475 c0 -16 2 -22 5 -12 2 9 2 23 0 30 -3 6 -5 -1 -5 -18z"/>
<path d="M8352 17435 c0 -16 2 -22 5 -12 2 9 2 23 0 30 -3 6 -5 -1 -5 -18z"/>
<path d="M22321 17184 c0 -11 3 -14 6 -6 3 7 2 16 -1 19 -3 4 -6 -2 -5 -13z"/>
<path d="M20850 17153 c0 -39 9 -65 21 -57 14 8 11 48 -6 70 -14 18 -14 17
-15 -13z"/>
<path d="M20762 17013 c4 -22 43 -25 43 -3 0 8 -11 16 -23 18 -19 3 -23 0 -20
-15z"/>
<path d="M22361 16934 c0 -11 3 -14 6 -6 3 7 2 16 -1 19 -3 4 -6 -2 -5 -13z"/>
<path d="M9318 16914 c-5 -4 -8 -16 -8 -28 0 -14 3 -17 11 -9 6 6 9 19 7 28
-1 9 -6 13 -10 9z"/>
<path d="M9307 16835 c-7 -22 -22 -148 -32 -267 -4 -50 -3 -78 3 -78 6 0 13
36 15 83 2 45 10 122 16 170 12 86 11 133 -2 92z"/>
<path d="M16002 16790 c0 -19 2 -27 5 -17 2 9 2 25 0 35 -3 9 -5 1 -5 -18z"/>
<path d="M21773 16425 c0 -22 2 -30 4 -17 2 12 2 30 0 40 -3 9 -5 -1 -4 -23z"/>
<path d="M9663 16400 c0 -25 2 -35 4 -22 2 12 2 32 0 45 -2 12 -4 2 -4 -23z"/>
<path d="M9231 14418 c0 -13 4 -32 9 -43 7 -16 9 -13 9 17 1 20 -3 40 -9 43
-6 3 -10 -4 -9 -17z"/>
<path d="M14521 13947 c-13 -21 -12 -21 5 -5 10 10 16 20 13 22 -3 3 -11 -5
-18 -17z"/>
<path d="M14401 13838 c-11 -18 -28 -43 -37 -55 -9 -13 -14 -23 -10 -23 10 0
86 72 97 92 18 34 -27 21 -50 -14z"/>
<path d="M7850 13673 c0 -12 5 -25 10 -28 13 -8 13 15 0 35 -8 12 -10 11 -10
-7z"/>
<path d="M20760 13640 c0 -5 5 -10 10 -10 6 0 10 5 10 10 0 6 -4 10 -10 10 -5
0 -10 -4 -10 -10z"/>
<path d="M20730 13395 c0 -8 5 -15 10 -15 6 0 10 7 10 15 0 8 -4 15 -10 15 -5
0 -10 -7 -10 -15z"/>
<path d="M20715 13310 c-3 -5 1 -10 9 -10 9 0 16 5 16 10 0 6 -4 10 -9 10 -6
0 -13 -4 -16 -10z"/>
<path d="M8547 11973 c-3 -78 -13 -156 -25 -198 -17 -64 -68 -193 -93 -238 -6
-11 -9 -21 -7 -23 6 -5 112 26 226 66 91 32 120 55 109 85 -3 7 0 19 6 26 7 8
0 3 -14 -9 -40 -35 -53 -14 -67 108 -11 95 -62 256 -95 298 -26 34 -34 11 -40
-115z"/>
<path d="M8635 11545 c-55 -19 -107 -34 -116 -35 -8 0 -23 -6 -33 -13 -15 -11
-6 -18 76 -60 51 -26 119 -67 151 -90 115 -87 327 -306 429 -443 29 -39 87
-118 130 -175 81 -111 203 -249 219 -249 13 0 4 30 -26 95 -13 28 -26 62 -29
78 -5 22 -3 27 13 27 25 0 95 -70 174 -174 34 -45 111 -131 172 -191 60 -61
128 -133 149 -160 50 -64 162 -175 177 -175 7 0 8 7 4 18 -3 9 -9 29 -12 45
-3 15 -9 27 -14 27 -5 0 -9 8 -9 17 0 9 -7 24 -16 34 -9 10 -17 34 -19 54 -2
20 -12 46 -22 58 -10 11 -32 37 -50 56 -85 96 -203 238 -387 465 -227 282
-342 412 -475 538 -76 73 -208 188 -246 216 -44 32 -114 72 -126 71 -8 0 -59
-16 -114 -34z"/>
<path d="M10211 11523 c-1 -12 -5 -24 -9 -27 -15 -9 -5 -128 17 -212 19 -76
69 -316 90 -437 12 -64 74 -196 129 -271 35 -47 36 -48 44 -25 5 13 8 36 6 50
-5 33 25 57 48 38 8 -7 13 -18 10 -26 -3 -7 0 -13 8 -13 15 0 59 -48 80 -87 8
-16 24 -60 37 -98 26 -82 77 -183 111 -222 9 -10 55 -98 102 -196 67 -137 91
-178 104 -175 11 2 18 15 20 36 2 17 7 32 12 32 11 0 -38 93 -52 98 -4 2 -8 8
-8 13 0 5 -36 65 -80 134 -44 69 -80 128 -80 131 0 2 -24 45 -54 95 -114 188
-307 605 -443 953 -30 77 -60 154 -68 170 -7 17 -16 38 -18 46 -4 10 -6 7 -6
-7z"/>
<path d="M8155 11429 c-61 -16 -150 -49 -200 -74 -78 -39 -99 -45 -153 -45
-63 0 -63 0 -60 -27 3 -25 6 -28 38 -25 19 2 47 12 61 23 33 23 52 24 70 3 11
-13 26 -15 84 -10 96 9 155 17 155 22 0 18 -43 43 -84 49 -56 9 -46 20 26 30
54 8 100 -5 243 -67 107 -46 195 -98 195 -114 0 -7 4 -14 9 -16 6 -1 56 -48
113 -103 101 -98 183 -164 148 -119 -61 78 -124 143 -177 181 -63 45 -89 82
-33 46 49 -31 226 -193 303 -278 115 -126 214 -263 142 -195 -140 131 268
-384 544 -689 278 -306 876 -792 1296 -1053 316 -197 614 -331 985 -442 165
-49 511 -121 547 -114 9 2 -36 20 -98 42 -63 21 -118 42 -124 46 -5 4 -62 23
-125 43 -63 20 -189 59 -280 87 -288 90 -541 203 -757 336 -57 36 -110 69
-116 75 -7 5 -21 16 -32 24 -34 23 -10 27 30 5 21 -12 39 -19 42 -16 4 4 -20
22 -194 143 -217 151 -619 467 -773 608 -272 248 -458 454 -801 880 -387 481
-555 636 -787 726 -43 16 -85 34 -94 39 -21 12 -9 14 -143 -21z"/>
<path d="M8318 11250 c18 -16 39 -30 47 -30 7 0 20 -3 29 -6 9 -3 16 -2 16 2
0 9 -99 64 -115 64 -5 0 5 -13 23 -30z"/>
<path d="M8515 11120 c22 -17 48 -36 58 -42 16 -8 17 -7 8 10 -12 22 -45 46
-81 57 -20 6 -17 1 15 -25z"/>
<path d="M21452 11127 c-14 -6 -21 -16 -17 -25 3 -9 -26 -46 -77 -99 -68 -70
-77 -82 -48 -68 18 10 40 24 48 31 7 8 18 14 23 14 5 0 18 20 28 43 11 24 30
53 43 63 46 36 46 62 0 41z"/>
<path d="M8667 10936 c55 -53 118 -121 138 -152 65 -98 306 -385 340 -406 37
-21 154 -168 160 -200 5 -26 25 -49 35 -43 5 3 12 0 17 -7 7 -12 9 -17 12 -36
2 -16 39 -54 54 -56 26 -3 45 -26 40 -46 -7 -28 317 -349 538 -532 184 -153
460 -364 557 -425 31 -20 89 -57 127 -82 81 -52 323 -194 348 -204 32 -12 17
2 -30 29 -145 83 -442 268 -483 301 -8 7 -89 67 -180 135 -286 213 -490 389
-490 423 0 3 20 -6 45 -20 91 -54 69 -16 -72 121 -78 77 -181 184 -229 239
-48 55 -112 127 -143 160 -31 33 -96 107 -143 165 -48 58 -115 133 -150 167
-57 54 -65 60 -76 45 -10 -15 -19 -9 -79 53 -38 39 -97 108 -133 155 -35 47
-91 117 -124 156 -34 39 -74 87 -91 107 -17 21 -43 39 -60 43 -26 5 -15 -8 72
-90z"/>
<path d="M21090 10728 c-85 -94 -164 -197 -157 -204 11 -12 45 17 103 88 50
60 132 188 121 188 -1 0 -32 -32 -67 -72z"/>
<path d="M19410 10709 c0 -5 5 -7 10 -4 6 3 10 8 10 11 0 2 -4 4 -10 4 -5 0
-10 -5 -10 -11z"/>
<path d="M19397 10683 c-4 -3 -7 -11 -7 -17 0 -6 5 -5 12 2 6 6 9 14 7 17 -3
3 -9 2 -12 -2z"/>
<path d="M19371 10632 c-5 -10 -7 -29 -4 -41 4 -17 2 -20 -12 -15 -14 6 -16 3
-10 -15 4 -14 3 -21 -6 -19 -8 2 -13 -13 -15 -42 -1 -24 -7 -46 -13 -48 -6 -2
-11 -8 -11 -14 0 -6 9 -3 20 7 11 10 20 24 20 32 0 7 5 13 10 13 6 0 15 20 22
45 7 25 16 45 20 45 4 0 8 5 8 11 0 5 -4 7 -10 4 -6 -4 -10 6 -9 22 0 25 1 26
9 8 7 -16 9 -17 9 -3 1 25 -17 31 -28 10z"/>
<path d="M19410 10640 c0 -5 7 -10 15 -10 8 0 15 5 15 10 0 6 -7 10 -15 10 -8
0 -15 -4 -15 -10z"/>
<path d="M19296 10493 c-3 -10 -9 -25 -12 -33 -3 -8 4 -4 15 10 22 27 26 40
12 40 -5 0 -11 -8 -15 -17z"/>
<path d="M20302 9804 c-55 -54 -55 -60 0 -22 27 19 75 78 63 78 -4 0 -32 -25
-63 -56z"/>
<path d="M20120 9641 c-41 -32 -134 -110 -205 -172 -139 -122 -270 -235 -301
-259 -10 -8 -60 -46 -109 -84 -111 -86 -119 -93 -75 -71 40 20 93 60 164 122
48 43 192 143 205 143 3 0 56 46 118 103 61 56 132 118 158 136 26 19 54 46
63 60 9 15 19 28 22 31 13 13 43 50 39 49 -2 0 -38 -26 -79 -58z"/>
<path d="M10080 9480 c0 -5 3 -10 8 -10 4 0 26 -18 50 -40 23 -22 48 -40 55
-40 12 1 -92 99 -105 100 -5 0 -8 -4 -8 -10z"/>
<path d="M18850 9125 c-7 -8 -9 -15 -6 -15 4 0 14 7 22 15 9 8 11 15 6 15 -5
0 -15 -7 -22 -15z"/>
<path d="M14081 8894 c0 -11 3 -14 6 -6 3 7 2 16 -1 19 -3 4 -6 -2 -5 -13z"/>
<path d="M14060 8850 c0 -5 -23 -48 -51 -96 -107 -180 -295 -338 -454 -380
-73 -20 -201 -17 -292 6 -43 10 -109 26 -148 35 -255 60 -512 152 -751 270
-60 29 -111 51 -114 48 -3 -3 1 -8 8 -10 6 -3 12 -12 12 -20 0 -8 18 -56 40
-105 22 -50 40 -94 40 -99 0 -4 -8 -10 -17 -13 -10 -3 -6 -4 9 -2 19 2 25 -1
21 -11 -3 -8 2 -13 15 -13 12 0 23 -4 26 -8 3 -5 30 -15 62 -22 31 -8 58 -19
61 -26 2 -7 11 -10 19 -7 8 3 22 2 32 -2 16 -7 15 -8 -3 -15 -19 -8 -19 -9 2
-9 12 -1 23 4 25 10 2 5 11 7 21 3 14 -5 15 -9 6 -20 -9 -11 -8 -14 4 -14 8 0
18 8 22 18 6 15 8 15 25 -5 18 -23 37 -32 25 -13 -3 6 4 10 16 10 12 0 19 -3
16 -7 -4 -3 -2 -12 4 -20 10 -11 14 -11 23 2 7 10 18 14 30 9 14 -5 15 -9 4
-16 -8 -5 1 -8 27 -6 28 2 39 -1 38 -9 -2 -7 4 -13 13 -13 8 0 12 5 9 10 -11
18 37 11 51 -7 10 -15 15 -16 25 -5 19 18 53 16 45 -3 -4 -11 1 -15 18 -15 14
0 26 5 28 11 2 7 13 9 26 4 19 -5 21 -9 11 -21 -9 -11 -7 -14 16 -14 20 0 26
4 21 15 -4 11 2 15 20 15 17 0 28 -7 31 -19 3 -11 14 -21 25 -24 13 -4 18 -1
14 8 -6 16 30 27 62 18 21 -5 21 -6 5 -18 -25 -19 -14 -24 32 -15 39 7 39 7
15 18 -16 7 -19 11 -9 11 9 1 28 10 42 21 25 20 41 14 42 -15 0 -5 11 -11 25
-13 63 -6 130 -26 130 -39 0 -8 12 -13 33 -13 l32 0 -30 18 c-16 10 -39 22
-50 26 -19 8 -19 9 5 16 14 5 64 14 113 20 48 7 90 16 93 21 3 5 16 9 29 9 16
0 23 5 20 13 -3 7 16 21 51 36 71 31 139 97 153 148 6 21 13 79 17 128 4 63
13 105 30 142 26 56 29 73 14 73 -5 0 -10 -4 -10 -10z"/>
<path d="M14865 8751 c-164 -7 -152 -3 -256 -86 l-25 -20 55 -2 c31 -1 112 -9
181 -18 77 -10 260 -19 476 -25 268 -7 361 -12 394 -24 24 -8 45 -14 47 -12 2
1 -36 34 -84 72 -47 38 -99 81 -115 97 l-30 27 -246 -2 c-136 -1 -314 -4 -397
-7z"/>
<path d="M11290 8623 c8 -3 24 -10 35 -15 20 -9 20 -9 1 6 -11 9 -27 16 -35
15 -14 0 -14 -1 -1 -6z"/>
<path d="M18550 8584 c-38 -17 -66 -27 -290 -99 -213 -68 -620 -165 -696 -165
-13 0 -25 -3 -28 -8 -5 -8 130 2 154 12 8 3 71 15 140 26 69 11 156 27 194 35
73 17 384 118 426 140 81 41 113 55 126 55 8 0 14 5 14 10 0 12 3 13 -40 -6z"/>
<path d="M11440 8560 c157 -76 623 -219 726 -223 24 -1 44 -5 44 -9 0 -5 14
-8 31 -8 17 0 38 -4 47 -9 32 -17 124 -20 139 -5 12 12 10 14 -16 14 -17 0
-50 4 -73 10 -24 5 -68 14 -98 19 -240 42 -467 102 -675 176 -154 55 -186 64
-125 35z"/>
<path d="M16182 8537 c-30 -32 -28 -37 13 -37 38 0 44 13 22 44 -12 16 -14 16
-35 -7z"/>
<path d="M12430 8410 c0 -5 5 -10 10 -10 6 0 10 5 10 10 0 6 -4 10 -10 10 -5
0 -10 -4 -10 -10z"/>
<path d="M12478 8393 c6 -2 18 -2 25 0 6 3 1 5 -13 5 -14 0 -19 -2 -12 -5z"/>
<path d="M15785 8379 c-82 -4 -510 -10 -949 -14 l-799 -7 -74 -24 c-40 -13
-83 -24 -95 -24 -15 0 -19 -3 -12 -10 13 -13 629 -15 659 -3 14 6 0 10 -50 14
-38 3 216 6 565 6 643 0 691 -8 135 -24 -226 -6 -248 -8 -165 -14 382 -30
1367 -42 1342 -16 -7 6 -25 13 -40 13 -15 1 -36 4 -47 7 -11 4 -46 13 -77 22
-32 8 -90 31 -130 50 -40 19 -82 34 -93 33 -11 -1 -87 -5 -170 -9z"/>
<path d="M17455 8300 c-3 -6 1 -7 9 -4 18 7 21 14 7 14 -6 0 -13 -4 -16 -10z"/>
<path d="M13750 8280 c0 -5 4 -10 9 -10 6 0 13 5 16 10 3 6 -1 10 -9 10 -9 0
-16 -4 -16 -10z"/>
<path d="M17348 8283 c6 -2 18 -2 25 0 6 3 1 5 -13 5 -14 0 -19 -2 -12 -5z"/>
<path d="M12668 8273 c7 -3 16 -2 19 1 4 3 -2 6 -13 5 -11 0 -14 -3 -6 -6z"/>
<path d="M17242 8270 c-29 -4 -56 -10 -59 -13 -9 -10 111 5 122 14 6 6 6 9 0
8 -6 -1 -34 -5 -63 -9z"/>
<path d="M12740 8259 c0 -5 5 -7 10 -4 6 3 10 8 10 11 0 2 -4 4 -10 4 -5 0
-10 -5 -10 -11z"/>
<path d="M13698 8263 c7 -3 16 -2 19 1 4 3 -2 6 -13 5 -11 0 -14 -3 -6 -6z"/>
<path d="M13620 8250 c0 -5 5 -10 10 -10 6 0 10 5 10 10 0 6 -4 10 -10 10 -5
0 -10 -4 -10 -10z"/>
<path d="M17083 8243 c9 -2 23 -2 30 0 6 3 -1 5 -18 5 -16 0 -22 -2 -12 -5z"/>
<path d="M16848 8223 c12 -2 30 -2 40 0 9 3 -1 5 -23 4 -22 0 -30 -2 -17 -4z"/>
<path d="M16548 8213 c7 -3 16 -2 19 1 4 3 -2 6 -13 5 -11 0 -14 -3 -6 -6z"/>
<path d="M14950 8190 c-578 -5 -618 -9 -250 -26 69 -3 283 0 475 6 193 7 469
16 615 20 l265 7 -255 -1 c-140 0 -523 -3 -850 -6z"/>
</g>
</svg>
