<?xml version="1.0" standalone="no"?>
<!DOCTYPE svg PUBLIC "-//W3C//DTD SVG 20010904//EN"
 "http://www.w3.org/TR/2001/REC-SVG-20010904/DTD/svg10.dtd">
<svg version="1.0" xmlns="http://www.w3.org/2000/svg"
 width="3000.000000pt" height="3000.000000pt" viewBox="0 0 3000.000000 3000.000000"
 preserveAspectRatio="xMidYMid meet">

<g transform="translate(0.000000,3000.000000) scale(0.100000,-0.100000)"
fill="#000000" stroke="none">
<path d="M17017 22737 c3 -14 -3 -29 -17 -42 l-21 -19 32 -11 c18 -6 34 -16
36 -22 7 -19 -25 -40 -72 -47 -36 -6 -48 -13 -60 -35 -12 -25 -12 -31 1 -49
25 -37 14 -61 -126 -267 -22 -33 -58 -105 -79 -160 -42 -108 -110 -320 -117
-363 -2 -15 -21 -58 -41 -97 -107 -205 -113 -220 -154 -390 -60 -254 -67 -279
-127 -420 -53 -127 -77 -200 -162 -495 -23 -80 -48 -163 -55 -185 -7 -22 -42
-161 -79 -310 -36 -148 -71 -286 -76 -305 -5 -19 -20 -91 -34 -160 -14 -69
-44 -179 -66 -245 -23 -66 -50 -169 -60 -230 -11 -60 -28 -164 -40 -230 -26
-156 -48 -260 -66 -313 -16 -50 -80 -354 -96 -457 -6 -38 -12 -113 -14 -165
-4 -131 -17 -219 -37 -257 -9 -18 -17 -40 -17 -50 0 -10 -9 -61 -20 -113 -36
-176 -64 -393 -62 -489 1 -59 -6 -133 -18 -196 -29 -148 -40 -242 -45 -400 -3
-77 -12 -172 -20 -212 -9 -45 -15 -130 -15 -223 0 -128 -3 -156 -19 -188 -10
-20 -26 -77 -34 -127 -9 -49 -23 -107 -32 -128 -9 -21 -20 -88 -26 -149 -10
-118 -5 -140 31 -131 25 7 26 -21 2 -92 -12 -34 -23 -51 -37 -54 -28 -5 -42
-27 -66 -105 -17 -53 -24 -65 -31 -52 -6 10 -5 37 2 72 11 54 9 84 -7 84 -16
0 -36 -77 -34 -134 2 -50 6 -63 31 -88 17 -16 30 -36 30 -44 0 -16 -26 -19
-35 -4 -8 12 -35 13 -35 1 0 -5 9 -11 20 -14 11 -3 29 -24 40 -48 17 -40 18
-45 3 -61 -9 -10 -25 -18 -36 -18 -14 0 -17 -4 -12 -17 5 -10 16 -47 26 -83 9
-36 22 -79 27 -97 8 -24 7 -36 -4 -50 -15 -21 -19 -119 -4 -128 6 -3 10 -29
10 -56 0 -31 4 -48 10 -44 6 3 10 35 10 70 0 52 4 69 24 92 12 15 21 34 19 41
-3 7 0 19 6 26 13 15 4 47 -16 59 -10 6 -10 13 -3 27 5 10 10 40 10 67 0 58
35 267 51 306 6 15 19 27 28 27 9 0 22 12 29 27 15 34 16 145 0 161 -8 8 -8
15 0 24 18 23 32 100 21 120 -8 14 -14 16 -29 8 -29 -16 -32 11 -4 41 20 21
25 40 31 107 4 59 3 82 -6 82 -6 0 -11 -7 -11 -15 0 -8 -9 -15 -21 -15 -17 0
-20 5 -17 33 2 27 8 33 31 35 15 2 32 13 40 25 7 13 17 97 23 202 17 259 34
416 51 448 13 25 12 31 -2 53 -14 22 -14 29 -1 68 9 25 15 64 15 88 -1 24 4
57 11 73 6 17 13 64 16 107 2 42 8 87 13 100 11 28 34 243 29 273 -5 36 33
196 59 253 12 25 13 39 5 56 -8 18 -6 44 9 107 10 46 19 99 19 118 0 23 10 44
30 68 23 25 30 44 30 73 0 33 -3 40 -20 40 -25 0 -26 25 -1 66 31 50 35 74 16
88 -16 11 -16 15 -1 49 8 21 22 40 30 43 11 4 13 20 9 78 -6 83 7 138 40 161
20 14 20 18 9 60 -16 59 -15 75 3 75 17 0 20 23 6 49 -7 12 -2 34 16 77 14 32
25 72 25 88 -1 16 4 38 10 49 32 61 110 426 95 445 -8 10 -6 22 8 44 10 17 29
79 42 137 13 58 28 124 33 146 5 22 20 63 33 90 13 28 29 77 35 110 27 144 63
305 82 365 12 36 28 97 36 135 8 39 35 144 60 235 26 91 50 179 54 195 15 56
67 240 100 350 17 61 55 171 84 245 44 110 107 296 155 451 5 15 4 33 0 42 -6
11 1 39 25 89 18 40 41 91 50 113 9 22 21 48 26 57 6 10 10 23 10 28 0 6 8 30
19 53 10 23 42 107 71 187 28 80 56 154 61 165 4 11 20 56 35 100 28 88 122
288 178 381 28 46 36 70 36 108 0 43 -4 53 -32 78 -17 15 -32 28 -33 28 -1 0
0 -10 2 -23z m-1769 -7521 c5 -25 -6 -66 -18 -66 -6 0 -10 21 -10 46 0 32 4
44 13 42 6 -3 14 -13 15 -22z m-10 -393 c-2 -51 -7 -68 -17 -68 -8 0 -19 13
-24 28 -7 22 -5 32 7 46 9 10 16 27 16 39 0 12 5 22 10 22 7 0 10 -25 8 -67z"/>
<path d="M12016 21553 c-17 -36 -17 -36 9 -57 20 -16 26 -29 23 -50 -1 -16
-10 -32 -18 -36 -98 -45 -93 -40 -121 -125 -15 -44 -45 -143 -68 -220 -52
-171 -222 -702 -296 -920 -30 -88 -77 -236 -105 -330 -60 -200 -118 -386 -136
-435 -7 -19 -20 -68 -29 -109 -10 -41 -39 -133 -66 -204 -49 -128 -136 -399
-158 -487 -6 -25 -22 -97 -36 -160 -15 -63 -44 -187 -65 -275 -21 -88 -46
-211 -54 -273 -18 -125 -21 -268 -7 -276 29 -18 55 25 86 144 9 36 23 88 31
115 8 28 25 97 39 155 39 160 95 387 112 460 34 143 42 179 67 270 56 213 93
327 141 435 46 103 58 145 52 179 -5 29 -2 37 19 51 13 9 24 25 24 38 0 12 15
69 34 127 18 58 59 186 91 285 32 99 101 313 155 475 236 710 313 956 335
1058 17 78 17 85 2 118 -10 19 -17 43 -17 53 0 35 -26 31 -44 -6z"/>
<path d="M9913 19347 c-1 -40 -3 -47 -14 -47 -6 0 -24 -11 -40 -24 l-29 -25
37 -12 c34 -11 38 -10 51 10 17 25 54 28 73 4 11 -13 11 -17 2 -20 -24 -8 -13
-22 26 -33 44 -12 76 -40 45 -40 -11 0 -53 9 -94 20 -87 23 -118 25 -75 6 17
-8 63 -29 103 -47 39 -18 72 -36 72 -41 0 -13 -13 -10 -106 26 -119 46 -168
52 -240 31 -98 -28 -280 -141 -419 -259 -59 -50 -86 -74 -229 -206 -186 -171
-235 -218 -426 -409 -529 -530 -932 -994 -1335 -1536 -107 -143 -228 -305
-269 -361 -74 -99 -134 -200 -124 -209 11 -12 57 23 89 67 43 59 63 70 43 23
-12 -29 -61 -111 -104 -175 -6 -8 -52 -78 -102 -155 -50 -77 -119 -183 -154
-236 -80 -123 -276 -439 -370 -599 -41 -69 -79 -132 -84 -140 -6 -8 -13 -22
-17 -30 -4 -8 -28 -51 -54 -95 -25 -44 -70 -123 -99 -175 -29 -52 -65 -117
-80 -145 -15 -27 -52 -95 -82 -150 -30 -55 -83 -145 -116 -200 -108 -177 -132
-222 -162 -304 -41 -113 -40 -167 5 -257 33 -66 35 -74 35 -174 0 -71 5 -121
16 -155 9 -27 18 -55 20 -61 1 -6 17 -22 35 -35 27 -19 31 -20 26 -5 -4 10 -3
15 3 11 6 -3 15 -3 22 1 7 5 -3 20 -31 43 -39 34 -42 40 -51 111 -27 211 6
397 125 700 136 350 448 931 750 1400 269 418 381 583 553 820 92 126 118 161
160 215 4 6 26 35 49 65 155 208 479 606 646 795 44 50 96 108 115 130 339
384 939 977 1262 1247 128 108 264 197 396 260 l109 53 118 1 c130 1 157 12
157 63 0 49 -113 195 -196 252 -41 28 -41 28 -41 6z"/>
<path d="M22613 19233 c-3 -10 -12 -25 -20 -34 -12 -15 -11 -17 12 -23 15 -4
25 -13 25 -25 0 -23 -13 -33 -72 -55 -50 -19 -70 -50 -61 -99 7 -34 -12 -87
-50 -145 -52 -77 -75 -137 -127 -332 -17 -63 -35 -131 -40 -151 -5 -19 -33
-73 -61 -120 -83 -135 -107 -195 -123 -302 -16 -106 -29 -139 -102 -273 -74
-134 -92 -181 -119 -318 -14 -73 -35 -146 -51 -177 -38 -76 -104 -160 -122
-157 -10 2 -31 -19 -53 -52 -41 -61 -42 -76 -4 -40 l24 23 -10 -34 c-6 -20 -7
-74 -4 -129 6 -88 4 -103 -29 -215 -67 -233 -98 -310 -122 -301 -8 3 -14 2
-14 -2 0 -10 -96 -112 -105 -112 -13 0 7 55 35 99 55 82 79 220 38 213 -22 -4
-24 25 -4 73 17 39 18 40 46 23 15 -10 22 -10 32 0 9 9 14 6 24 -16 l12 -27
17 40 c12 27 18 67 19 121 1 102 -9 118 -73 111 -74 -8 -143 -26 -155 -40 -20
-24 -135 -68 -167 -65 l-32 3 47 34 c26 18 46 34 44 36 -2 1 -46 -9 -98 -23
-109 -29 -310 -38 -317 -14 -3 6 -11 12 -19 12 -9 0 -12 5 -8 12 5 8 2 9 -10
5 -10 -4 -15 -3 -11 3 3 6 -1 10 -9 10 -9 0 -16 5 -16 11 0 5 -5 7 -12 3 -6
-4 -8 -3 -4 4 3 6 2 14 -4 17 -6 4 -29 30 -52 58 -29 37 -39 45 -34 27 5 -17
-3 -10 -26 22 -18 26 -41 48 -50 48 -11 0 -26 -16 -38 -40 -40 -79 -81 -24
-41 57 11 24 21 50 21 58 0 22 -36 36 -83 33 -44 -3 -43 -1 -33 -63 1 -11 12
-40 23 -65 11 -25 26 -62 34 -82 17 -50 65 -95 172 -162 153 -96 314 -138 417
-111 107 29 273 106 348 162 29 22 33 23 39 7 7 -19 -14 -158 -28 -183 -22
-41 -37 -91 -28 -96 5 -4 7 -10 5 -13 -2 -4 -16 -61 -30 -127 -15 -66 -33
-145 -40 -175 -28 -108 -28 -126 -5 -180 12 -28 26 -49 30 -48 17 6 146 138
157 161 6 12 18 49 27 82 26 92 56 177 75 210 10 17 23 55 30 85 15 67 39 130
56 150 7 8 22 53 34 100 12 47 25 99 30 115 6 17 21 71 35 120 14 50 30 99 35
110 5 11 16 38 25 60 9 22 27 56 40 75 13 19 31 64 40 100 9 36 25 85 35 110
10 25 23 72 30 105 14 72 65 194 132 318 39 72 52 109 63 177 15 89 53 187
119 305 22 38 57 122 79 185 21 63 47 133 56 155 10 22 25 60 35 85 10 25 27
63 37 86 10 23 19 44 19 47 0 3 18 44 39 90 60 126 81 184 81 222 0 50 -43 87
-57 48z m-1523 -2572 c0 -16 -87 -44 -115 -37 -34 9 -32 21 8 34 41 13 107 15
107 3z"/>
<path d="M22055 18801 c-3 -6 8 -24 25 -41 16 -17 30 -32 30 -34 0 -2 -7 -21
-16 -42 -9 -22 -23 -59 -30 -84 -7 -25 -30 -97 -52 -160 -60 -173 -71 -213
-65 -223 10 -16 72 63 110 140 31 63 35 79 31 124 -7 65 6 113 42 162 26 35
27 40 14 65 -8 15 -14 37 -14 49 0 15 -10 28 -30 38 -34 18 -37 18 -45 6z"/>
<path d="M21636 18607 c-281 -286 -458 -495 -519 -612 -11 -22 -22 -60 -24
-85 -3 -36 -25 -81 -105 -215 -56 -93 -121 -197 -145 -230 -92 -130 -112 -163
-132 -223 -29 -84 -28 -137 2 -157 21 -13 25 -28 35 -117 6 -56 9 -105 6 -109
-7 -11 35 -57 74 -81 31 -19 34 -19 67 -4 45 21 45 36 0 36 -74 0 -105 37
-105 126 0 30 -5 46 -17 52 -18 11 -20 1 29 167 45 157 72 224 137 355 116
232 291 472 534 735 59 64 125 143 148 176 22 33 92 111 155 173 63 62 114
118 114 123 0 20 -38 43 -70 43 -30 0 -49 -16 -184 -153z"/>
<path d="M20483 18602 c5 -25 2 -37 -13 -52 -32 -32 -24 -49 35 -75 45 -21 55
-29 55 -50 0 -26 -5 -28 -84 -39 -22 -3 -43 -10 -46 -17 -11 -17 0 -48 27 -75
18 -18 22 -30 18 -47 -12 -37 -35 -67 -62 -80 -22 -10 -28 -9 -37 7 -26 43
-33 48 -53 42 -11 -4 -42 -34 -68 -67 -113 -144 -467 -479 -710 -673 -60 -48
-150 -121 -200 -161 -49 -40 -131 -105 -181 -143 -110 -85 -139 -125 -129
-181 6 -38 5 -41 -36 -70 -82 -60 -187 -66 -296 -17 -76 35 -112 71 -124 127
-11 47 -46 92 -91 115 -40 21 -117 18 -156 -6 -36 -22 -82 -106 -82 -150 0
-14 -5 -32 -10 -40 -8 -13 -11 -12 -24 5 -24 32 -28 70 -12 110 27 63 22 75
-26 75 -64 0 -72 -9 -58 -60 35 -131 155 -328 264 -435 45 -44 133 -108 179
-131 40 -19 53 -21 73 -12 18 8 34 8 65 -1 60 -18 350 -15 457 4 334 61 493
100 562 137 19 10 41 18 48 18 56 0 153 103 187 196 l18 52 -39 46 c-28 33
-45 45 -59 42 -11 -2 -72 -17 -135 -34 -169 -43 -393 -91 -489 -103 -47 -5
-89 -13 -93 -15 -5 -3 -84 -15 -176 -26 -228 -27 -430 -19 -508 19 l-53 26 -6
63 c-9 76 -2 117 25 162 23 37 40 42 40 9 0 -25 57 -110 98 -145 15 -13 38
-33 52 -45 77 -68 224 -88 336 -44 69 26 294 170 464 296 250 185 456 365 706
615 214 215 302 318 392 461 l57 90 0 80 c0 69 -4 87 -29 132 -16 29 -40 62
-54 75 l-25 23 6 -33z m-703 -1685 c0 -7 -7 -23 -16 -35 -22 -32 -13 -36 38
-19 24 9 60 18 81 22 30 6 37 4 37 -9 0 -21 -26 -31 -123 -46 -87 -14 -121
-37 -39 -25 58 8 92 0 92 -21 0 -11 -17 -14 -78 -14 -44 0 -112 -8 -153 -19
-107 -26 -212 -49 -309 -65 -107 -19 -253 -29 -225 -17 19 8 19 9 -5 14 -78
17 -217 29 -267 23 -32 -4 -112 -11 -178 -15 -107 -8 -124 -6 -156 10 -46 23
-119 105 -119 133 1 19 2 19 11 4 12 -22 29 -23 29 -2 0 9 19 -4 48 -34 81
-83 135 -94 312 -63 84 15 206 13 245 -3 33 -14 155 -33 145 -23 -9 9 -114 47
-132 47 -10 0 -18 5 -18 10 0 6 15 8 39 4 29 -5 55 0 103 19 37 15 103 31 158
37 177 20 291 42 363 71 79 31 117 36 117 16z m-977 -254 c-7 -2 -19 -2 -25 0
-7 3 -2 5 12 5 14 0 19 -2 13 -5z m135 0 c-16 -2 -40 -2 -55 0 -16 2 -3 4 27
4 30 0 43 -2 28 -4z m486 -33 c-14 -14 -290 -78 -395 -91 -157 -19 -328 -1
-316 34 6 20 59 26 267 32 182 4 357 19 369 31 2 2 22 4 45 4 26 0 37 -3 30
-10z"/>
<path d="M19668 16793 c6 -2 18 -2 25 0 6 3 1 5 -13 5 -14 0 -19 -2 -12 -5z"/>
<path d="M19628 16783 c7 -3 16 -2 19 1 4 3 -2 6 -13 5 -11 0 -14 -3 -6 -6z"/>
<path d="M19568 16763 c7 -3 16 -2 19 1 4 3 -2 6 -13 5 -11 0 -14 -3 -6 -6z"/>
<path d="M19508 16753 c6 -2 18 -2 25 0 6 3 1 5 -13 5 -14 0 -19 -2 -12 -5z"/>
<path d="M19373 16723 c9 -2 23 -2 30 0 6 3 -1 5 -18 5 -16 0 -22 -2 -12 -5z"/>
<path d="M22172 18618 c-7 -7 -12 -39 -12 -75 0 -43 -8 -83 -26 -130 -33 -86
-54 -161 -54 -193 1 -36 10 -17 68 140 52 140 69 213 57 249 -7 24 -16 26 -33
9z"/>
<path d="M17440 18545 c0 -8 9 -20 20 -27 24 -15 26 -36 5 -44 -27 -11 -16
-23 22 -26 27 -2 39 -8 41 -20 3 -16 -5 -18 -62 -18 -36 0 -68 -4 -71 -10 -3
-5 3 -10 14 -10 22 0 55 -40 43 -52 -4 -4 -37 -2 -73 4 -52 9 -76 9 -113 -2
-57 -16 -191 -103 -308 -202 -99 -83 -281 -274 -304 -321 -16 -30 -16 -31 10
-52 14 -11 26 -24 26 -28 0 -4 -36 -46 -80 -94 -44 -48 -78 -89 -75 -91 2 -3
60 44 127 104 68 60 134 119 148 130 14 12 77 66 140 121 160 138 225 190 279
221 145 84 351 234 351 255 0 46 -25 90 -74 132 -58 49 -66 53 -66 30z"/>
<path d="M20341 18431 c-19 -12 -6 -41 18 -41 11 0 31 5 45 12 20 9 23 14 15
25 -13 15 -57 17 -78 4z"/>
<path d="M20166 18344 c-82 -30 -87 -61 -12 -80 28 -7 53 -11 57 -8 13 7 31
74 25 89 -7 18 -19 18 -70 -1z"/>
<path d="M23913 18285 l-18 -37 28 -20 c15 -11 27 -28 27 -38 0 -30 -11 -50
-27 -50 -8 0 -31 -8 -50 -17 -43 -20 -61 -56 -104 -210 -34 -119 -137 -446
-204 -648 -69 -209 -222 -682 -251 -780 -26 -89 -79 -259 -113 -365 -10 -30
-28 -100 -41 -155 -12 -55 -31 -128 -42 -163 l-20 -63 21 -23 c25 -26 26 -51
6 -99 -22 -54 -19 -103 7 -121 52 -37 205 -46 192 -12 -6 16 8 22 72 31 27 4
56 11 64 16 27 15 -141 14 -254 -2 -38 -5 -71 -7 -74 -5 -13 13 58 224 150
446 25 58 34 95 31 116 -4 24 1 37 21 57 15 15 26 37 26 54 0 15 13 66 29 113
16 47 43 128 59 180 85 270 175 547 182 565 19 43 270 815 312 960 11 39 26
99 33 134 11 59 11 67 -6 95 -10 17 -19 39 -19 48 0 33 -20 29 -37 -7z"/>
<path d="M19695 18286 c-52 -16 -234 -107 -343 -171 -22 -13 -202 -135 -267
-181 -159 -113 -295 -253 -322 -333 -14 -41 -15 -38 17 -46 21 -5 34 2 70 35
65 60 345 267 662 491 42 30 109 77 148 104 93 65 103 77 87 97 -10 14 -18 14
-52 4z"/>
<path d="M19993 18093 c-38 -42 -66 -83 -55 -83 12 0 92 89 92 101 0 15 -10
10 -37 -18z"/>
<path d="M20034 18016 c-88 -100 -327 -328 -492 -469 -103 -89 -138 -127 -60
-65 213 166 647 588 636 616 -1 5 -40 -32 -84 -82z"/>
<path d="M14770 17849 c0 -19 -8 -42 -21 -55 l-21 -22 21 -21 c12 -12 35 -24
52 -28 20 -4 34 -14 40 -30 13 -34 7 -39 -51 -47 -28 -4 -57 -9 -65 -12 -16
-7 -21 -64 -5 -64 18 0 42 -49 36 -75 -7 -29 -45 -72 -68 -77 -10 -2 -29 12
-47 32 l-29 35 -34 -39 c-125 -145 -230 -255 -365 -382 -143 -134 -392 -348
-488 -419 -22 -16 -65 -50 -95 -76 -30 -25 -98 -79 -150 -119 -52 -40 -109
-88 -126 -107 -39 -42 -51 -89 -28 -114 15 -17 13 -20 -39 -53 -92 -59 -170
-67 -277 -28 -92 33 -150 90 -150 148 0 25 -39 79 -71 98 -15 9 -53 17 -85 18
-49 2 -65 -1 -93 -21 -38 -27 -68 -88 -77 -155 -7 -51 -16 -56 -38 -24 -20 29
-20 75 0 123 21 52 14 62 -45 66 -56 4 -65 -4 -55 -49 12 -48 109 -245 155
-312 108 -159 315 -316 373 -283 12 7 36 6 74 -3 75 -18 281 -17 407 1 220 31
545 106 596 137 13 8 44 21 69 29 78 24 158 121 174 213 7 36 4 42 -30 77 -42
44 -52 45 -115 24 -81 -28 -240 -62 -629 -135 -36 -7 -83 -14 -105 -16 -53 -4
-91 -9 -210 -23 -137 -17 -332 -3 -396 28 -42 20 -47 26 -57 72 -16 67 -15 89
3 135 34 84 55 108 55 64 0 -54 117 -184 213 -235 67 -37 172 -45 249 -21 99
32 416 242 658 435 260 208 631 560 782 742 69 84 158 211 189 269 47 90 26
210 -52 299 l-29 34 0 -34z m-704 -1670 c3 -6 -4 -24 -16 -41 -12 -16 -20 -31
-18 -33 2 -2 23 3 47 11 59 20 131 29 131 17 0 -20 -26 -31 -115 -48 -88 -16
-141 -34 -103 -35 9 0 29 5 44 10 39 15 94 3 94 -21 0 -17 -8 -19 -83 -19 -48
0 -115 -8 -158 -19 -236 -59 -399 -84 -471 -71 -195 35 -274 40 -369 24 -52
-9 -123 -13 -158 -11 -39 3 -58 1 -50 -4 33 -21 -30 -8 -79 17 -53 26 -104 81
-115 122 -5 22 -5 23 12 7 17 -15 19 -15 25 1 6 15 12 12 37 -19 67 -81 170
-113 272 -83 73 21 260 22 310 1 20 -8 58 -15 84 -14 l48 1 -77 25 c-43 14
-78 29 -78 33 0 4 21 5 48 3 33 -4 69 3 122 20 44 15 121 30 185 37 106 10
249 35 267 46 10 7 141 53 150 54 4 0 10 -5 14 -11z m-708 -266 c-26 -2 -71
-2 -100 0 -29 2 -8 3 47 3 55 0 79 -1 53 -3z m349 -29 c-7 -7 -145 -44 -242
-65 -196 -43 -424 -45 -464 -4 -27 27 36 37 294 46 138 5 284 15 325 23 68 11
99 11 87 0z"/>
<path d="M13938 16043 c6 -2 18 -2 25 0 6 3 1 5 -13 5 -14 0 -19 -2 -12 -5z"/>
<path d="M13898 16033 c7 -3 16 -2 19 1 4 3 -2 6 -13 5 -11 0 -14 -3 -6 -6z"/>
<path d="M13838 16013 c7 -3 16 -2 19 1 4 3 -2 6 -13 5 -11 0 -14 -3 -6 -6z"/>
<path d="M13778 16003 c6 -2 18 -2 25 0 6 3 1 5 -13 5 -14 0 -19 -2 -12 -5z"/>
<path d="M13708 15983 c7 -3 16 -2 19 1 4 3 -2 6 -13 5 -11 0 -14 -3 -6 -6z"/>
<path d="M13633 15973 c9 -2 23 -2 30 0 6 3 -1 5 -18 5 -16 0 -22 -2 -12 -5z"/>
<path d="M23582 17703 c-35 -88 -50 -144 -35 -128 13 13 76 195 70 201 -2 2
-18 -30 -35 -73z"/>
<path d="M12240 17702 c0 -11 -9 -27 -19 -36 -24 -22 -17 -42 20 -62 26 -13
29 -20 29 -63 0 -46 -3 -51 -36 -70 -49 -29 -67 -76 -109 -286 -20 -98 -38
-182 -40 -185 -2 -3 -13 -51 -25 -106 -11 -54 -31 -133 -45 -174 -31 -97 -45
-158 -55 -245 -6 -53 -20 -96 -58 -176 -73 -154 -78 -167 -127 -338 -49 -174
-193 -584 -219 -624 -11 -16 -23 -23 -35 -20 -12 3 -27 -7 -45 -31 -15 -20
-32 -34 -37 -31 -5 4 -9 0 -9 -7 -1 -7 -17 -31 -36 -53 -20 -22 -33 -31 -29
-20 11 29 13 105 3 105 -4 0 -8 -6 -8 -12 -1 -7 -9 -31 -20 -53 -11 -22 -19
-48 -20 -57 0 -9 -4 -20 -10 -23 -5 -3 -10 -28 -10 -54 0 -60 16 -76 67 -68
76 13 141 80 185 192 9 22 27 65 41 95 13 30 48 114 76 185 29 72 56 139 61
150 5 11 20 49 33 85 80 208 111 294 132 375 38 140 44 160 70 219 20 46 29
55 47 53 18 -2 23 4 29 33 3 19 11 47 17 62 8 19 8 36 1 56 -8 23 -4 40 25
103 19 42 49 127 66 190 17 63 45 164 61 224 54 196 79 327 89 455 13 175 13
174 -16 204 -31 31 -44 33 -44 8z"/>
<path d="M14638 17689 c-10 -5 -18 -17 -18 -24 0 -18 56 -20 80 -5 13 9 12 12
-4 25 -23 17 -34 18 -58 4z"/>
<path d="M23170 17623 c-33 -23 -59 -56 -96 -122 -17 -31 -50 -90 -74 -131
-65 -114 -78 -140 -111 -230 -13 -36 -116 -259 -213 -463 -31 -65 -56 -120
-56 -122 0 -2 -27 -60 -60 -129 -33 -69 -60 -128 -60 -130 0 -3 -17 -40 -38
-83 -51 -107 -73 -163 -130 -343 -28 -85 -62 -181 -76 -213 -14 -32 -26 -59
-26 -61 0 -2 14 -17 30 -34 19 -21 30 -26 30 -17 0 8 4 15 9 15 5 0 13 10 17
22 4 13 20 51 35 85 16 33 29 64 29 66 0 3 14 35 30 70 17 36 30 68 30 72 0 4
6 21 14 38 7 18 23 59 35 92 13 33 27 69 32 80 4 11 28 72 53 135 37 96 183
445 216 515 5 11 19 43 31 70 12 28 34 78 50 112 16 34 29 64 29 67 0 2 21 48
46 103 25 54 57 127 70 163 40 106 46 119 117 257 37 73 66 133 65 133 -2 0
-15 -8 -28 -17z"/>
<path d="M11672 17612 c-34 -3 -104 -42 -217 -120 -69 -48 -232 -204 -326
-311 -35 -41 -104 -107 -152 -147 -104 -87 -148 -137 -189 -217 -36 -72 -32
-88 16 -80 20 3 36 3 36 -1 0 -18 -72 -142 -230 -396 -82 -133 -109 -193 -140
-313 -16 -62 -45 -151 -64 -199 -60 -149 -177 -702 -172 -812 1 -26 -4 -31
-34 -39 -56 -14 -62 -22 -125 -159 -18 -39 -17 -69 1 -75 6 -2 23 21 39 52 32
61 48 68 67 28 14 -28 43 -51 53 -41 13 13 44 164 60 291 16 122 74 409 94
467 32 89 44 143 34 159 -8 13 2 42 48 135 58 118 77 173 86 255 3 29 17 59
39 88 19 25 34 56 34 70 0 26 43 109 118 228 149 234 178 273 326 440 247 278
398 426 576 570 47 37 89 71 93 75 5 4 -2 18 -15 31 -17 18 -32 23 -56 21z"/>
<path d="M14431 17587 c-57 -28 -62 -44 -19 -61 73 -29 85 -29 97 6 6 17 11
42 11 54 0 31 -29 31 -89 1z"/>
<path d="M12124 17555 c-9 -23 5 -65 22 -65 15 0 35 39 27 52 -2 5 -13 13 -24
18 -15 9 -21 7 -25 -5z"/>
<path d="M13980 17539 c0 -5 -9 -9 -20 -9 -26 0 -70 -21 -70 -33 0 -6 -3 -8
-6 -4 -16 16 -298 -150 -494 -292 -245 -177 -406 -367 -334 -395 28 -11 34 -7
92 48 49 46 353 272 615 456 43 30 116 82 162 115 46 33 93 66 104 74 14 11
17 18 10 27 -12 14 -59 25 -59 13z"/>
<path d="M16665 17529 c-27 -4 -69 -16 -93 -25 -37 -14 -46 -14 -53 -3 -5 8
-9 10 -9 6 0 -12 88 -97 100 -97 6 0 10 4 10 9 0 24 74 63 154 83 47 11 86 24
86 29 0 11 -126 10 -195 -2z"/>
<path d="M11945 17508 c-2 -7 -6 -47 -8 -88 -3 -41 -8 -85 -12 -97 -4 -14 -3
-23 3 -23 5 0 13 28 17 63 6 58 21 95 52 125 7 7 13 18 13 23 0 14 -60 11 -65
-3z"/>
<path d="M11220 17344 c-69 -64 -147 -134 -175 -156 -55 -45 -138 -88 -171
-88 -12 0 -27 -7 -34 -15 -10 -12 -7 -15 14 -21 34 -8 93 21 177 88 75 60 323
297 317 303 -2 2 -60 -48 -128 -111z"/>
<path d="M12047 17423 c-10 -24 -18 -84 -21 -158 -4 -66 -9 -130 -12 -142 -11
-40 13 -24 29 20 36 94 56 238 41 295 -9 32 -19 27 -37 -15z"/>
<path d="M23320 17426 c0 -8 -4 -16 -10 -18 -5 -1 -14 -24 -18 -50 -8 -38 -7
-45 5 -41 26 10 53 106 33 118 -6 3 -10 0 -10 -9z"/>
<path d="M11240 17424 c0 -14 -95 -64 -123 -64 -31 0 -77 -36 -77 -60 0 -10
-4 -21 -9 -24 -11 -7 -21 -56 -11 -56 30 0 241 192 227 206 -4 4 -7 3 -7 -2z"/>
<path d="M15968 17423 c-50 -5 -49 -22 5 -85 114 -134 214 -210 310 -235 87
-22 153 -17 417 32 47 9 112 20 145 26 33 5 78 15 100 21 40 10 69 14 195 24
36 3 69 9 73 13 10 10 -91 31 -143 31 -62 0 -295 -38 -459 -75 -210 -48 -281
-44 -281 12 0 40 26 48 184 54 84 3 229 18 326 33 227 36 214 33 241 56 l24
19 -80 1 c-44 0 -123 -6 -175 -14 -153 -22 -350 -38 -420 -34 -54 3 -49 4 33
6 107 2 123 16 29 27 -31 4 -86 13 -121 21 -35 8 -66 12 -69 9 -3 -3 5 -17 19
-31 l24 -26 -25 7 c-14 4 -38 14 -54 23 -65 32 -86 33 -148 5 -49 -22 -63 -24
-83 -15 -33 15 -31 36 5 62 53 38 38 44 -72 33z"/>
<path d="M16472 17388 c5 -13 59 -31 67 -22 9 9 -30 34 -52 34 -10 0 -17 -5
-15 -12z"/>
<path d="M16933 17373 c9 -2 23 -2 30 0 6 3 -1 5 -18 5 -16 0 -22 -2 -12 -5z"/>
<path d="M14290 17357 c-19 -15 -70 -83 -70 -93 0 -11 57 45 82 79 20 28 14
35 -12 14z"/>
<path d="M14352 17306 c-67 -83 -325 -331 -572 -550 -30 -26 -41 -39 -25 -28
108 72 599 535 638 601 29 49 6 36 -41 -23z"/>
<path d="M11912 17260 c0 -14 2 -19 5 -12 2 6 2 18 0 25 -3 6 -5 1 -5 -13z"/>
<path d="M17722 17235 c-35 -35 -32 -44 23 -62 24 -8 30 -15 30 -39 0 -28 -2
-29 -60 -34 -57 -5 -60 -6 -57 -30 1 -14 14 -33 27 -43 31 -23 32 -57 3 -84
-25 -23 -63 -17 -74 12 -4 9 -14 20 -24 25 -16 8 -35 -9 -127 -118 -189 -224
-578 -597 -958 -921 -166 -142 -504 -388 -597 -436 -43 -22 -78 -46 -78 -52 0
-21 27 -15 84 17 45 26 55 28 65 16 10 -12 19 -11 63 8 29 11 66 35 83 52 17
17 69 51 116 75 46 24 102 62 124 84 22 22 58 48 80 58 22 10 51 33 64 52 13
19 51 54 85 77 90 61 186 139 228 185 20 23 65 60 100 84 115 77 182 131 278
223 52 50 118 111 145 135 81 70 253 241 314 312 75 89 80 95 125 163 l39 60
-12 84 c-19 131 -36 149 -89 97z"/>
<path d="M17275 17231 c-18 -8 -18 -10 -3 -16 22 -9 69 -2 69 10 0 13 -40 16
-66 6z"/>
<path d="M23409 17195 c-22 -51 -59 -188 -59 -219 1 -20 1 -20 14 -3 28 37 90
267 72 267 -4 0 -16 -20 -27 -45z"/>
<path d="M17470 17108 c-21 -35 -28 -142 -10 -153 5 -3 28 31 50 75 33 65 39
85 29 96 -19 24 -48 16 -69 -18z"/>
<path d="M17591 17131 c-11 -7 -10 -11 7 -20 21 -11 52 -6 52 9 0 8 -24 20
-38 20 -4 0 -13 -4 -21 -9z"/>
<path d="M17296 16998 c-9 -12 -16 -26 -16 -30 0 -11 62 -10 80 2 12 7 12 12
-4 29 -24 27 -41 26 -60 -1z"/>
<path d="M20697 16928 c16 -41 29 -58 46 -58 4 0 7 5 7 11 0 5 -3 8 -8 5 -4
-2 -16 16 -26 40 -10 24 -22 44 -27 44 -5 0 -1 -19 8 -42z"/>
<path d="M23267 16703 c-16 -43 -32 -111 -24 -103 8 8 47 133 43 137 -2 2 -10
-13 -19 -34z"/>
<path d="M10525 16647 c-15 -24 -56 -148 -79 -242 -7 -27 -17 -59 -23 -70 -6
-11 -27 -87 -47 -170 -20 -82 -46 -183 -57 -223 -12 -40 -19 -75 -17 -77 2 -3
13 23 23 58 10 34 24 81 31 104 8 22 19 65 24 94 6 29 28 100 50 158 21 58 57
162 79 231 22 69 43 133 46 143 10 25 -12 21 -30 -6z"/>
<path d="M23227 16576 c-4 -10 -7 -25 -6 -34 0 -11 4 -9 10 7 5 13 8 29 6 35
-2 5 -6 2 -10 -8z"/>
<path d="M15232 15670 c0 -19 2 -27 5 -17 2 9 2 25 0 35 -3 9 -5 1 -5 -18z"/>
<path d="M10252 15660 c0 -14 2 -19 5 -12 2 6 2 18 0 25 -3 6 -5 1 -5 -13z"/>
<path d="M24460 15650 c-18 -12 -2 -12 25 0 13 6 15 9 5 9 -8 0 -22 -4 -30 -9z"/>
<path d="M10242 15610 c0 -14 2 -19 5 -12 2 6 2 18 0 25 -3 6 -5 1 -5 -13z"/>
<path d="M24595 15617 c-49 -4 -121 -8 -159 -7 -37 0 -105 -5 -150 -12 -70
-11 -76 -13 -46 -18 35 -6 35 -6 -15 -14 -27 -4 -77 -14 -110 -23 -33 -8 -96
-16 -140 -19 -86 -4 -207 -31 -150 -34 28 -1 29 -2 7 -10 -68 -28 -419 -76
-643 -89 -172 -9 -206 -23 -234 -93 l-16 -42 30 -28 c37 -34 33 -48 -25 -103
-50 -47 -64 -90 -144 -435 -22 -95 -34 -340 -17 -357 3 -2 15 -2 26 2 28 9 55
97 167 560 13 55 29 116 34 135 6 19 14 62 19 95 15 96 24 113 68 120 104 18
383 76 417 87 31 10 40 10 44 0 4 -14 42 -16 42 -2 0 6 17 10 39 10 21 0 67 9
102 20 35 12 72 19 81 17 17 -5 108 9 116 18 3 3 -3 14 -13 25 -10 11 -16 22
-14 24 6 7 177 38 494 91 182 31 287 53 298 64 19 19 -22 26 -108 18z m-632
-104 c-7 -2 -19 -2 -25 0 -7 3 -2 5 12 5 14 0 19 -2 13 -5z m-73 -82 c0 -11
-16 -16 -73 -26 -56 -9 -70 7 -17 21 56 15 90 17 90 5z"/>
<path d="M15971 15585 c-56 -29 -91 -55 -91 -67 0 -12 65 25 110 62 42 35 39
36 -19 5z"/>
<path d="M11475 15428 c-38 -84 -71 -157 -74 -163 -15 -30 34 25 55 61 24 40
97 244 90 251 -1 2 -34 -65 -71 -149z"/>
<path d="M23753 15483 c9 -2 23 -2 30 0 6 3 -1 5 -18 5 -16 0 -22 -2 -12 -5z"/>
<path d="M22252 15460 c0 -14 2 -19 5 -12 2 6 2 18 0 25 -3 6 -5 1 -5 -13z"/>
<path d="M23638 15463 c7 -3 16 -2 19 1 4 3 -2 6 -13 5 -11 0 -14 -3 -6 -6z"/>
<path d="M23041 15456 c16 -16 154 -36 242 -34 l102 1 -120 8 c-66 4 -138 12
-160 18 -41 11 -72 14 -64 7z"/>
<path d="M23543 15453 c15 -2 37 -2 50 0 12 2 0 4 -28 4 -27 0 -38 -2 -22 -4z"/>
<path d="M9454 15431 c4 -5 0 -12 -6 -14 -7 -3 2 -4 19 -4 39 2 45 27 7 27
-14 0 -23 -4 -20 -9z"/>
<path d="M23408 15433 c6 -2 18 -2 25 0 6 3 1 5 -13 5 -14 0 -19 -2 -12 -5z"/>
<path d="M22236 15392 c-7 -46 12 -67 72 -76 37 -6 42 -4 42 13 0 11 5 23 10
26 6 3 10 13 10 21 0 12 -10 15 -46 13 -38 -3 -50 1 -64 18 l-18 22 -6 -37z"/>
<path d="M9500 15395 c-53 -14 -161 -64 -142 -65 20 0 -34 -42 -103 -81 -33
-18 -116 -76 -185 -129 -69 -52 -223 -161 -342 -241 -119 -81 -261 -179 -315
-219 -54 -39 -179 -125 -278 -191 -230 -153 -369 -250 -531 -370 -71 -52 -176
-128 -234 -167 -227 -156 -408 -296 -509 -395 -175 -170 -489 -358 -706 -423
-74 -22 -111 -27 -205 -28 -101 -1 -121 2 -161 22 -54 26 -91 56 -82 66 3 3 1
6 -5 6 -7 0 -15 0 -19 0 -5 1 -16 15 -25 33 -9 18 -17 28 -18 24 0 -5 -7 -1
-16 7 -8 9 -12 21 -8 27 4 7 3 9 -3 6 -9 -6 -14 0 -72 81 -17 23 -36 42 -41
42 -5 0 -21 -22 -35 -50 -27 -53 -33 -58 -53 -38 -17 17 -15 50 8 99 27 61 25
90 -8 122 -30 29 -89 54 -100 42 -16 -16 -1 -124 29 -212 30 -86 38 -99 93
-150 139 -129 288 -221 426 -265 61 -19 97 -23 195 -23 144 1 217 20 374 98
111 56 440 272 451 297 51 111 95 163 152 175 23 5 27 11 23 26 -5 14 0 22 22
30 15 6 44 20 63 32 19 12 42 22 51 22 9 0 35 24 59 53 52 66 144 127 216 143
48 11 55 15 50 33 -3 17 14 35 92 94 53 40 133 102 177 138 44 36 109 82 145
102 36 20 92 63 125 97 64 65 179 139 202 131 30 -12 102 36 160 106 69 83
131 132 148 118 9 -7 38 11 101 66 49 42 151 125 228 185 92 72 153 129 184
169 31 43 48 58 55 51 20 -20 38 -13 31 13 -5 21 3 30 68 72 40 26 98 66 128
89 30 23 75 54 100 68 52 31 110 77 95 76 -5 -1 -30 -7 -55 -14z m-3295 -2345
c9 -15 -16 -47 -52 -64 -60 -28 -211 -16 -201 17 5 14 156 55 210 56 20 1 39
-3 43 -9z"/>
<path d="M10145 15135 c-16 -63 -26 -117 -23 -121 12 -11 30 7 49 50 19 41 28
186 11 186 -4 0 -21 -52 -37 -115z"/>
<path d="M22245 15230 c-158 -11 -221 -51 -260 -159 l-15 -43 31 -29 c47 -43
36 -80 -45 -155 -49 -46 -68 -72 -85 -119 -29 -75 -63 -194 -91 -310 -12 -49
-45 -155 -75 -235 -29 -80 -63 -192 -75 -250 -12 -58 -37 -161 -55 -230 -18
-69 -43 -181 -55 -250 -22 -130 -61 -289 -105 -425 -14 -44 -34 -127 -45 -185
-20 -106 -54 -275 -110 -540 -17 -80 -40 -194 -51 -255 -26 -144 -47 -242 -70
-338 -25 -103 -60 -343 -69 -487 -11 -161 -25 -254 -51 -335 -19 -63 -21 -84
-15 -208 3 -75 3 -155 0 -176 l-6 -38 -61 1 c-51 1 -61 4 -63 20 -1 10 -10 26
-19 35 -25 25 -31 3 -29 -109 l2 -100 49 -44 c41 -37 51 -42 72 -35 13 5 32 7
42 4 11 -4 19 -2 19 4 0 6 7 11 15 11 16 0 15 -3 19 270 1 58 6 130 10 161 7
45 5 64 -8 90 -16 32 -10 48 18 49 4 0 5 11 2 24 -3 14 -1 28 5 31 6 4 8 13 5
20 -2 7 2 25 10 40 8 15 14 34 14 42 0 8 4 12 9 8 5 -3 7 -46 4 -100 -4 -65
-3 -95 5 -95 19 0 36 83 33 172 -2 87 42 384 83 558 10 42 12 66 5 70 -6 5 -6
22 1 51 15 57 24 104 45 214 10 50 33 150 51 222 19 73 34 151 34 173 0 51 24
163 55 255 13 39 29 108 35 155 6 47 15 99 20 115 5 17 19 80 31 140 11 61 32
142 46 180 14 39 27 81 28 95 2 14 6 33 10 43 4 9 5 26 2 37 -3 10 1 27 8 37
19 28 55 165 49 188 -3 13 2 27 15 39 16 14 18 23 10 38 -9 17 13 102 93 347
6 19 11 52 11 73 0 21 4 38 9 38 5 0 7 8 4 18 -4 10 5 50 20 88 78 208 157
470 151 495 -3 11 6 43 20 72 14 28 34 79 45 112 19 58 50 134 67 164 19 36
71 56 292 111 129 32 242 61 252 65 14 6 17 2 17 -21 0 -16 -5 -45 -11 -64 -5
-19 -11 -47 -13 -63 -1 -15 -9 -35 -18 -44 -13 -12 -14 -21 -6 -39 9 -18 7
-29 -6 -50 -10 -14 -15 -35 -12 -47 3 -12 0 -27 -6 -34 -7 -9 -7 -13 1 -13 15
0 41 61 41 97 1 36 29 99 65 141 25 30 26 36 15 57 -11 20 -10 28 4 49 9 14
16 28 16 30 0 10 -86 50 -140 64 -64 18 -204 23 -345 12z m243 -49 c10 -6 5
-11 -17 -20 -44 -19 -96 -19 -96 -1 0 23 85 39 113 21z m-1298 -3566 c0 -14
-4 -25 -10 -25 -5 0 -10 11 -10 25 0 14 5 25 10 25 6 0 10 -11 10 -25z m-10
-106 c-6 -10 -17 -19 -25 -19 -19 0 -19 9 1 31 21 23 38 14 24 -12z m-23 -234
c-6 -36 -15 -65 -20 -65 -9 0 1 157 11 175 13 22 19 -50 9 -110z m-17 -125 c0
-11 -7 -20 -15 -20 -8 0 -15 9 -15 20 0 11 7 20 15 20 8 0 15 -9 15 -20z m0
-60 c0 -11 -7 -20 -15 -20 -15 0 -21 21 -8 33 12 13 23 7 23 -13z"/>
<path d="M9197 15133 c-13 -12 -7 -23 13 -23 11 0 20 7 20 15 0 15 -21 21 -33
8z"/>
<path d="M13316 15051 c-8 -12 20 -34 57 -46 42 -14 44 -31 8 -53 -38 -23 -31
-32 26 -32 36 0 43 -3 43 -19 0 -23 -45 -41 -101 -41 -35 0 -38 -2 -36 -27 1
-14 12 -36 24 -49 20 -20 21 -27 11 -49 -16 -36 -53 -43 -82 -16 -30 29 -56
26 -115 -10 -51 -32 -68 -35 -134 -23 -33 6 -45 2 -92 -31 -30 -20 -62 -35
-72 -33 -34 6 -24 34 23 68 40 29 44 34 29 43 -23 12 -116 1 -127 -15 -17 -28
-7 -68 32 -119 83 -111 177 -157 293 -144 34 4 74 13 88 21 35 17 117 108 164
181 20 32 45 69 54 83 34 51 73 140 78 178 5 36 2 41 -38 76 -60 52 -120 78
-133 57z m-227 -444 c18 -23 25 -75 11 -92 -16 -19 -54 -19 -70 0 -14 17 -5
69 17 90 18 19 27 19 42 2z"/>
<path d="M22738 14993 c-12 -13 -17 -47 -21 -128 -3 -60 -9 -125 -13 -142 -11
-54 13 -38 36 25 30 78 44 205 27 238 -12 24 -14 24 -29 7z"/>
<path d="M10077 14946 c-10 -22 -16 -44 -14 -50 6 -19 39 42 35 66 -4 20 -6
18 -21 -16z"/>
<path d="M21541 14885 c-8 -23 -22 -40 -39 -46 -50 -19 -123 -27 -164 -16 -38
9 -40 12 -34 40 l6 30 -47 -7 c-26 -3 -72 -13 -102 -23 -122 -35 -864 -286
-990 -333 -73 -28 -164 -57 -202 -65 -75 -16 -115 -33 -166 -72 -18 -14 -37
-22 -43 -18 -19 12 -10 -42 13 -76 37 -56 60 -61 152 -38 121 30 171 47 280
99 141 68 379 152 905 319 91 29 188 61 215 71 28 9 101 32 163 50 131 38 139
35 115 -39 -8 -25 -20 -68 -25 -96 -6 -27 -14 -59 -19 -70 -15 -37 -49 -148
-49 -162 0 -20 55 23 69 54 8 18 9 34 1 57 -9 27 -6 40 14 82 13 27 32 56 41
64 28 23 37 48 23 69 -9 15 -8 24 5 45 9 14 17 30 17 35 0 21 -62 73 -93 78
-30 4 -33 2 -46 -32z m-1547 -471 c10 -4 16 -18 16 -35 0 -22 -8 -34 -32 -49
-57 -35 -85 -22 -66 30 19 50 46 68 82 54z"/>
<path d="M13040 14725 c-8 -10 -9 -19 -4 -24 14 -12 74 7 74 24 0 20 -54 20
-70 0z"/>
<path d="M21691 14687 c-17 -28 -19 -40 -11 -68 14 -48 12 -97 -5 -174 -9 -37
-14 -72 -12 -79 12 -36 77 192 77 271 0 89 -15 104 -49 50z"/>
<path d="M19710 14456 c0 -24 11 -46 24 -45 6 0 21 13 34 30 l24 29 -41 0
c-29 0 -41 -4 -41 -14z"/>
<path d="M24137 14454 c3 -8 -4 -29 -16 -45 -27 -36 -22 -56 19 -70 28 -10 30
-14 30 -60 0 -46 -2 -50 -41 -74 -52 -34 -63 -60 -110 -280 -58 -272 -88 -401
-114 -484 -32 -104 -45 -165 -50 -238 -3 -46 -14 -81 -44 -141 -62 -123 -106
-237 -135 -347 -29 -107 -67 -223 -151 -456 -67 -184 -81 -212 -104 -204 -12
3 -31 -11 -67 -52 -27 -31 -59 -67 -71 -80 l-21 -24 2 62 c3 54 2 59 -10 38
-7 -13 -10 -27 -8 -31 3 -5 1 -8 -3 -8 -10 0 -39 -79 -48 -130 -4 -19 -2 -48
4 -63 13 -34 43 -35 106 -6 70 33 90 63 171 245 26 60 96 230 120 294 13 36
29 74 34 85 9 20 16 36 102 275 25 69 60 176 77 238 42 154 65 202 95 202 19
0 26 7 31 33 4 17 12 46 18 64 8 24 8 38 -2 55 -10 20 -8 30 13 70 34 63 90
247 161 523 52 203 67 290 72 425 l5 135 -32 33 c-35 36 -42 40 -33 16z"/>
<path d="M11020 14394 c-206 -24 -581 -116 -850 -209 -247 -84 -576 -204 -675
-245 -176 -74 -240 -130 -215 -191 12 -28 11 -32 -20 -64 -26 -27 -42 -35 -78
-37 -60 -4 -73 -24 -43 -66 17 -25 22 -44 20 -85 -1 -30 1 -59 5 -65 12 -20
45 -14 72 13 22 22 24 30 18 75 -8 61 9 72 63 44 46 -25 75 -62 71 -93 -3 -23
-11 -28 -68 -41 -61 -15 -65 -18 -72 -50 -6 -29 -4 -38 12 -49 23 -16 25 -45
6 -82 -112 -215 -673 -1149 -853 -1421 -24 -38 -69 -119 -99 -180 -128 -263
-277 -534 -395 -718 -86 -135 -162 -281 -278 -530 -62 -135 -140 -298 -172
-364 -59 -119 -140 -249 -163 -263 -22 -14 -46 -57 -46 -84 0 -23 -60 -122
-139 -229 -10 -14 -36 -51 -57 -84 l-39 -58 0 -117 c0 -107 -2 -120 -28 -169
-16 -30 -27 -56 -25 -58 2 -2 30 20 61 50 45 42 57 59 57 83 0 34 19 83 49
127 16 23 17 33 8 53 -7 17 -7 27 1 35 6 6 9 23 6 37 -3 21 2 30 28 47 25 15
32 26 30 44 -3 32 39 128 59 135 25 8 46 37 54 73 6 29 4 34 -14 39 -23 6 -29
23 -7 23 27 0 65 41 117 127 58 96 328 628 399 787 62 138 79 169 212 394 64
108 129 219 144 246 15 28 40 72 55 98 16 27 29 51 29 53 0 3 22 44 48 92 27
49 59 115 72 148 13 33 37 79 52 103 15 24 28 47 28 52 0 4 4 10 8 12 4 2 29
39 56 83 26 44 77 127 113 185 182 290 505 829 633 1055 37 66 89 156 114 200
41 71 46 85 40 120 -9 55 -21 70 -91 117 -35 23 -63 47 -63 52 0 12 16 20 130
64 41 16 127 51 190 77 206 84 544 205 765 274 39 12 84 26 100 31 44 13 331
85 395 99 106 22 226 40 372 57 146 18 147 18 288 -5 77 -13 143 -21 146 -19
12 12 -10 37 -29 34 -12 -2 -51 7 -86 20 -53 20 -82 24 -177 24 -96 0 -543
-43 -563 -54 -15 -9 -151 -16 -151 -8 0 30 242 88 445 107 171 16 349 10 435
-15 53 -15 59 -11 17 10 -86 42 -146 53 -322 56 -93 1 -186 0 -205 -2z"/>
<path d="M23504 14324 c-149 -79 -263 -177 -499 -424 -49 -52 -133 -134 -186
-181 -79 -72 -102 -100 -134 -164 -32 -63 -37 -78 -25 -85 9 -6 19 -5 24 0 17
17 36 11 36 -11 0 -23 -60 -139 -115 -224 -162 -250 -228 -385 -250 -509 -4
-22 -24 -85 -46 -139 -24 -60 -62 -194 -94 -334 -62 -268 -85 -397 -85 -484 0
-44 -3 -59 -12 -56 -7 2 -28 -2 -45 -9 -18 -7 -33 -11 -33 -8 0 3 -8 -2 -17
-12 -17 -17 -18 -17 -21 4 -2 14 -10 22 -23 22 -14 0 -19 -6 -18 -17 1 -10 -1
-40 -5 -68 -4 -27 -9 -66 -12 -85 -4 -27 0 -43 16 -62 l21 -27 54 30 c34 18
63 28 74 24 11 -3 23 -1 26 6 10 15 48 241 74 439 7 47 16 99 22 115 5 17 20
75 33 130 13 55 33 125 43 155 14 39 17 62 11 81 -7 22 0 44 41 125 62 124 91
210 91 271 0 37 5 51 20 61 22 13 62 90 54 103 -11 18 198 358 300 489 153
196 503 561 666 694 52 43 109 89 127 104 l32 26 -25 23 c-32 30 -60 29 -120
-3z"/>
<path d="M20880 14313 c1 -12 72 -59 97 -66 57 -14 25 30 -41 57 -43 18 -56
20 -56 9z"/>
<path d="M11590 14306 c0 -2 7 -7 16 -10 8 -3 12 -2 9 4 -6 10 -25 14 -25 6z"/>
<path d="M24016 14292 c-8 -13 9 -65 22 -70 19 -6 37 44 22 63 -14 16 -36 20
-44 7z"/>
<path d="M23864 14253 c-25 -5 -36 -50 -23 -93 5 -17 8 -19 8 -7 1 10 12 33
26 51 24 32 33 57 18 55 -5 -1 -18 -4 -29 -6z"/>
<path d="M23110 14074 c-166 -154 -244 -211 -318 -234 -64 -20 -80 -40 -32
-40 40 0 116 43 190 106 80 68 303 284 299 289 -2 2 -65 -53 -139 -121z"/>
<path d="M23946 14168 c-9 -15 -19 -74 -26 -163 -6 -77 -13 -158 -16 -180 l-5
-40 20 38 c30 57 61 206 61 291 0 79 -9 93 -34 54z"/>
<path d="M11966 14110 c-13 -87 -9 -102 34 -141 34 -32 40 -42 40 -78 0 -40
-2 -42 -47 -62 -27 -11 -56 -28 -65 -36 -22 -20 -23 -78 -3 -113 23 -40 18
-85 -16 -140 -45 -72 -78 -88 -97 -45 -6 14 -20 25 -30 25 -41 0 -162 -159
-148 -195 3 -8 17 -15 31 -15 17 0 25 -5 25 -17 1 -27 -102 -232 -118 -238
-13 -5 -24 5 -53 48 -13 19 -65 -6 -111 -53 -26 -27 -78 -91 -116 -142 -39
-51 -108 -141 -154 -201 -84 -107 -158 -221 -158 -244 0 -6 10 -13 23 -15 31
-4 26 -51 -11 -96 -43 -54 -59 -61 -77 -35 l-16 22 -50 -30 c-53 -33 -160
-135 -297 -284 -46 -49 -108 -108 -139 -130 -88 -63 -176 -157 -248 -265 -37
-55 -82 -112 -100 -126 -19 -14 -69 -77 -110 -139 -81 -121 -115 -156 -265
-268 -103 -77 -432 -402 -532 -525 -34 -42 -92 -106 -128 -142 -37 -36 -86
-92 -110 -125 -24 -33 -71 -85 -104 -115 -125 -115 -212 -207 -251 -265 -25
-36 -61 -73 -90 -93 -79 -52 -182 -149 -240 -226 -30 -39 -86 -98 -125 -130
-80 -67 -160 -151 -199 -210 -19 -29 -26 -53 -26 -92 -1 -63 -16 -84 -62 -84
-22 0 -51 -11 -80 -32 -71 -48 -217 -181 -333 -303 -58 -60 -142 -148 -187
-195 -45 -47 -96 -103 -113 -125 -67 -85 -167 -179 -235 -218 -100 -59 -218
-150 -258 -199 -19 -24 -57 -77 -84 -118 -28 -41 -69 -95 -92 -120 -23 -25
-66 -80 -96 -123 -94 -135 -196 -247 -304 -333 -57 -46 -111 -84 -120 -84 -16
1 18 36 89 93 l35 27 -65 -29 c-36 -17 -77 -32 -91 -35 -38 -8 -44 -49 -12
-86 31 -37 121 -80 167 -80 31 0 45 9 95 61 32 33 65 73 71 90 7 17 20 29 31
29 30 0 132 97 171 163 44 76 111 153 148 172 16 8 32 25 35 37 32 103 95 190
160 219 22 10 67 43 100 74 33 31 96 88 140 127 44 39 84 81 89 92 23 51 151
192 214 235 17 12 32 30 32 40 0 11 19 28 50 45 49 27 66 56 34 56 -32 0 7 30
47 36 31 5 37 9 28 20 -8 10 0 26 37 68 49 56 72 65 52 21 -6 -14 -9 -28 -5
-31 18 -19 57 53 57 107 0 24 4 30 15 25 8 -3 22 -9 30 -12 10 -4 46 24 110
86 79 78 102 108 142 187 60 118 98 166 124 158 15 -5 19 -1 19 17 0 14 13 37
29 52 16 16 35 41 41 57 7 16 16 26 21 23 10 -6 -15 -59 -37 -82 -18 -17 -18
-42 -1 -42 15 0 104 107 144 174 23 37 34 46 65 51 23 4 42 15 49 27 14 27 3
35 -19 15 -26 -24 -32 -21 -32 11 0 29 17 50 57 71 16 8 28 7 49 -4 41 -21 74
1 135 93 29 42 78 101 110 130 32 29 61 62 64 73 4 10 41 46 83 78 42 33 92
73 110 90 30 28 32 33 18 47 -9 8 -16 22 -16 30 0 17 27 19 33 2 2 -7 7 -10
11 -7 4 3 2 18 -4 33 -9 24 -7 30 12 47 13 10 31 17 42 15 10 -3 30 0 43 5 25
9 25 10 8 29 -17 19 -17 20 9 30 15 5 31 10 35 10 4 0 22 14 40 32 24 24 31
38 28 56 -3 18 0 26 14 29 11 3 19 14 19 25 0 11 12 32 28 47 15 15 32 35 37
45 11 18 12 18 37 2 21 -14 31 -15 47 -6 12 6 21 16 21 24 0 7 16 31 35 53 19
23 35 50 35 61 0 28 18 73 37 94 12 13 19 14 33 6 24 -15 80 24 80 56 0 20 6
24 42 29 26 4 49 14 62 30 12 13 51 48 89 76 37 29 67 56 67 61 0 4 17 26 38
50 48 54 72 98 72 132 0 22 5 28 23 29 29 1 109 100 96 120 -5 8 -9 21 -9 29
1 11 5 10 16 -5 15 -19 17 -19 55 25 29 33 35 46 24 48 -27 6 -16 22 15 22 23
0 33 7 45 30 19 37 19 42 -1 38 -30 -5 -26 20 4 27 16 3 33 5 38 4 19 -3 34 1
34 11 0 6 -7 10 -15 10 -22 0 -19 14 11 49 27 33 64 42 64 15 0 -28 86 44 226
190 74 76 146 158 161 182 28 44 47 54 57 32 7 -18 115 97 133 141 8 20 36 65
62 101 25 35 55 79 66 96 11 18 70 92 130 164 132 159 275 340 282 357 3 8 14
11 27 7 28 -7 80 56 108 128 40 107 89 188 146 245 104 103 221 286 262 407
20 57 22 80 17 165 -6 113 -29 198 -68 243 l-26 33 -7 -45z m-2381 -3290 c-24
-26 -30 -25 -31 4 -1 16 4 26 15 29 27 6 36 -11 16 -33z m-192 -209 c5 -21 -9
-41 -30 -41 -8 0 -13 12 -13 30 0 23 5 30 19 30 10 0 21 -9 24 -19z m-685
-712 c3 -15 -45 -45 -56 -34 -3 3 0 17 6 31 13 28 45 30 50 3z m-2628 -2645
c0 -36 -17 -64 -40 -64 -26 0 -26 30 1 64 26 33 39 33 39 0z"/>
<path d="M23092 14125 c-19 -12 -50 -26 -70 -30 -55 -10 -70 -22 -91 -68 -24
-53 -32 -77 -25 -77 16 0 97 62 162 125 77 74 86 95 24 50z"/>
<path d="M23820 14078 c0 -32 3 -39 10 -28 13 20 13 70 0 70 -5 0 -10 -19 -10
-42z"/>
<path d="M21000 14070 c-44 -11 -56 -28 -74 -107 -8 -37 -34 -98 -59 -142 -53
-91 -87 -182 -129 -345 -33 -130 -64 -204 -127 -305 -55 -87 -81 -160 -91
-256 -8 -74 -16 -94 -100 -259 -88 -170 -94 -186 -121 -320 -17 -78 -39 -160
-51 -184 -37 -79 -128 -186 -128 -152 0 17 -17 12 -24 -7 -9 -26 -30 -60 -51
-83 -22 -25 -12 -39 13 -17 16 15 17 9 17 -131 -1 -140 -3 -152 -37 -260 -60
-185 -88 -252 -106 -252 -10 0 -30 -18 -46 -40 -17 -22 -36 -40 -45 -40 -8 0
-12 -3 -8 -6 6 -7 -16 -34 -28 -34 -13 0 8 66 32 97 33 43 63 125 63 172 0 29
-6 42 -22 53 -20 14 -21 17 -8 49 19 48 25 52 50 39 18 -10 24 -9 31 1 9 14
19 6 33 -26 14 -31 46 83 46 161 0 93 -30 112 -138 88 -42 -10 -82 -23 -88
-31 -26 -31 -204 -92 -204 -70 0 3 21 20 46 37 25 18 44 34 42 36 -3 2 -49 -7
-104 -21 -146 -36 -213 -41 -279 -20 -30 9 -55 21 -55 26 0 5 -7 9 -16 9 -9 0
-12 5 -8 12 5 8 2 9 -10 5 -9 -4 -15 -3 -13 1 6 8 -19 33 -25 26 -3 -2 -13 12
-24 31 -10 19 -24 33 -31 31 -7 -3 -15 0 -19 6 -4 7 -3 8 4 4 17 -11 15 9 -3
24 -12 10 -15 10 -15 0 0 -7 -14 6 -31 29 -16 23 -35 41 -42 38 -7 -2 -22 -22
-35 -45 -27 -49 -38 -52 -54 -17 -10 22 -8 33 10 71 12 24 22 51 22 59 0 22
-41 45 -83 45 l-38 0 5 -49 c3 -28 10 -58 15 -68 20 -36 51 -112 51 -126 0
-14 93 -92 165 -138 107 -68 257 -119 350 -119 35 0 190 48 241 75 16 8 32 15
36 15 10 0 131 72 146 87 7 7 18 13 23 13 19 0 8 -101 -21 -190 -17 -51 -28
-95 -25 -100 2 -4 -4 -43 -15 -86 -10 -44 -33 -143 -50 -221 l-31 -141 26 -53
27 -53 78 80 77 79 42 130 c22 72 50 148 60 169 11 21 23 52 26 69 10 49 34
116 65 182 16 33 37 93 46 134 42 189 138 451 165 451 4 0 11 17 15 38 4 20
19 73 34 117 15 44 31 98 34 120 14 80 77 232 152 363 29 51 44 89 44 112 0
63 39 173 115 326 41 82 75 155 75 161 0 11 71 206 94 258 8 17 22 53 32 80
10 28 21 52 25 55 3 3 10 16 14 30 8 26 68 162 85 192 22 39 10 44 -60 28z
m-1480 -2435 c0 -14 -66 -36 -103 -33 -45 3 -53 19 -15 30 27 7 118 10 118 3z"/>
<path d="M23812 14010 c0 -14 2 -19 5 -12 2 6 2 18 0 25 -3 6 -5 1 -5 -13z"/>
<path d="M11895 13869 c-11 -17 1 -21 15 -4 8 9 8 15 2 15 -6 0 -14 -5 -17
-11z"/>
<path d="M19323 13793 c20 -2 54 -2 75 0 20 2 3 4 -38 4 -41 0 -58 -2 -37 -4z"/>
<path d="M16453 13760 c-1 -13 9 -26 28 -36 25 -12 28 -18 19 -30 -13 -15 -7
-19 35 -26 11 -2 21 -11 23 -21 3 -15 -5 -17 -62 -17 -61 0 -89 -13 -48 -23 9
-2 -3 -3 -28 0 -33 3 -41 1 -30 -6 8 -6 24 -11 35 -11 11 0 26 -4 33 -9 8 -5
-23 -8 -75 -7 -110 1 -128 -8 -283 -142 -187 -161 -305 -294 -349 -392 -27
-59 -26 -70 3 -70 21 0 24 -4 20 -26 -8 -43 -201 -355 -281 -452 -58 -73 -115
-193 -159 -337 -29 -98 -36 -136 -37 -208 0 -86 0 -88 33 -122 18 -19 37 -32
41 -29 4 2 10 19 14 37 28 147 46 215 117 442 58 184 86 250 173 395 145 246
200 317 379 495 168 167 289 271 393 334 29 18 57 30 63 26 20 -12 65 6 89 36
22 28 23 33 11 75 -11 38 -24 54 -78 95 -36 27 -68 49 -71 49 -4 0 -7 -9 -8
-20z"/>
<path d="M20480 13769 c0 -7 12 -23 26 -36 l26 -24 -35 -107 c-20 -59 -47
-138 -60 -177 -48 -139 -67 -202 -67 -225 0 -21 3 -20 34 16 72 81 121 200
106 254 -11 37 12 110 48 158 17 22 21 36 15 45 -6 6 -13 26 -17 42 -4 17 -15
38 -23 48 -18 19 -53 23 -53 6z"/>
<path d="M19160 13740 c-167 -35 -277 -76 -455 -168 -134 -70 -215 -124 -365
-243 -63 -50 -146 -115 -185 -144 -91 -68 -141 -117 -192 -185 -77 -104 -114
-204 -68 -186 28 10 47 -5 40 -33 -8 -32 -171 -307 -197 -333 -19 -19 -20 -18
-50 7 -23 20 -38 25 -56 20 -40 -10 -125 -71 -159 -113 -57 -70 -121 -199
-137 -274 -9 -40 -18 -81 -21 -92 -3 -14 0 -17 15 -13 25 7 25 4 -6 -93 -34
-108 -61 -170 -74 -170 -6 0 -32 -22 -58 -50 -26 -27 -51 -50 -55 -50 -15 0
-6 38 18 70 34 46 64 129 81 221 7 42 25 102 39 134 14 32 25 63 25 69 0 30
112 223 187 323 31 41 53 76 50 79 -12 13 -79 -63 -125 -143 -104 -183 -122
-223 -183 -408 -63 -192 -74 -219 -90 -210 -4 3 -13 -14 -20 -37 -6 -24 -15
-54 -21 -68 -5 -14 -14 -49 -19 -79 -7 -48 -6 -57 16 -89 14 -20 25 -43 25
-51 0 -10 9 -12 42 -7 22 4 45 9 49 12 4 2 19 41 34 87 28 88 91 269 106 302
5 11 29 79 53 150 69 200 69 200 108 200 29 0 34 4 44 35 11 34 14 35 70 41
91 9 134 42 134 102 0 34 4 42 88 177 167 269 193 302 341 450 237 236 380
352 523 428 68 35 152 83 188 106 36 24 90 53 120 65 30 13 74 34 98 47 23 14
46 23 50 20 5 -3 58 10 118 28 175 52 193 69 87 79 -92 9 -114 8 -213 -13z"/>
<path d="M20215 13724 c-38 -19 -105 -85 -305 -296 -185 -195 -257 -281 -333
-398 -56 -87 -79 -140 -59 -140 6 0 9 -8 7 -17 -5 -29 -205 -361 -282 -469
-82 -115 -101 -150 -119 -219 -19 -71 -17 -93 10 -120 17 -17 25 -39 30 -82 4
-32 9 -75 12 -95 7 -49 -6 -48 -30 3 -19 39 -33 55 -41 47 -6 -5 33 -77 50
-94 7 -7 15 -10 19 -7 3 4 6 0 6 -8 0 -19 55 -76 81 -84 26 -9 89 13 89 31 0
10 -12 14 -43 14 -68 0 -87 20 -87 89 0 40 -5 63 -15 71 -19 16 -19 62 0 120
8 25 24 79 36 120 12 41 25 80 28 85 4 6 13 28 20 50 14 41 90 197 131 270 91
161 285 419 455 603 128 138 147 161 165 196 8 17 74 89 147 162 l132 133 -20
25 c-24 30 -42 32 -84 10z"/>
<path d="M20599 13594 c-7 -9 -14 -43 -15 -75 -2 -38 -18 -103 -44 -178 -22
-64 -40 -131 -39 -147 l0 -29 14 30 c26 54 87 219 101 270 16 57 18 131 5 139
-5 3 -15 -1 -22 -10z"/>
<path d="M8869 13579 c-7 -4 -18 -23 -24 -40 -13 -38 -47 -66 -92 -75 -25 -5
-33 -2 -42 15 -9 15 -9 26 -1 42 7 11 9 23 6 27 -6 5 -100 -22 -136 -39 -297
-147 -285 -140 -484 -282 -216 -154 -221 -157 -285 -157 -43 0 -70 -7 -114
-31 -55 -29 -60 -30 -83 -14 -31 20 -31 39 2 54 35 15 28 20 -35 26 -57 5 -56
8 -11 -60 15 -22 39 -59 54 -82 41 -62 119 -111 195 -124 74 -11 64 -16 208
99 106 85 276 208 357 259 285 177 527 310 547 298 12 -8 5 -32 -28 -104 -14
-30 -33 -72 -43 -95 -11 -23 -29 -58 -41 -78 -13 -21 -20 -40 -18 -43 9 -8 88
29 94 43 3 7 1 22 -5 32 -7 13 -4 26 13 51 32 48 50 47 96 -3 25 -27 43 -39
49 -33 17 20 43 105 40 132 -4 38 -30 41 -78 9 l-38 -25 -6 30 c-3 19 0 42 9
59 20 39 19 45 -12 74 -33 31 -75 47 -94 35z m-1000 -583 c7 -8 11 -34 9 -58
-3 -42 -4 -43 -38 -43 l-35 0 1 48 c1 61 34 88 63 53z"/>
<path d="M14016 13455 c-9 -26 -7 -32 5 -12 6 10 9 21 6 23 -2 3 -7 -2 -11
-11z"/>
<path d="M18320 13374 c-134 -90 -203 -124 -273 -133 -59 -7 -72 -25 -25 -35
45 -9 144 40 288 143 63 46 119 87 125 92 24 23 -10 3 -115 -67z"/>
<path d="M18275 13400 c-3 -5 -2 -10 4 -10 5 0 13 5 16 10 3 6 2 10 -4 10 -5
0 -13 -4 -16 -10z"/>
<path d="M22421 13387 c-6 -8 -25 -58 -42 -113 -16 -54 -45 -148 -64 -209 -19
-60 -46 -159 -60 -220 -13 -60 -31 -135 -40 -165 -8 -30 -13 -56 -11 -58 5 -4
42 118 71 233 13 50 37 128 55 175 17 47 43 123 56 169 14 46 33 103 44 127
21 46 25 74 11 74 -5 0 -14 -6 -20 -13z"/>
<path d="M5603 13350 c8 -36 40 -87 45 -71 5 16 -29 101 -41 101 -5 0 -7 -13
-4 -30z"/>
<path d="M18230 13370 c-9 -6 -10 -10 -3 -10 6 0 15 5 18 10 8 12 4 12 -15 0z"/>
<path d="M14970 13325 c0 -13 -10 -33 -21 -44 l-22 -20 37 -17 c28 -14 36 -24
36 -43 0 -35 -9 -46 -50 -60 -63 -21 -78 -37 -85 -88 -17 -134 -29 -197 -56
-291 -35 -121 -81 -255 -114 -326 -70 -157 -110 -258 -173 -436 -22 -63 -69
-194 -103 -290 -89 -249 -119 -347 -129 -414 -5 -32 -11 -61 -14 -64 -3 -3
-15 3 -26 13 -19 17 -21 17 -46 0 -24 -15 -26 -16 -21 -1 10 25 -10 19 -30 -9
-57 -80 -86 -116 -90 -111 -3 3 4 20 16 39 26 43 26 51 1 37 -11 -6 -25 -8
-30 -5 -5 3 -16 -6 -25 -19 -13 -20 -15 -38 -10 -91 9 -80 16 -85 124 -85 93
0 91 -2 141 118 18 42 40 95 50 117 10 22 25 63 35 90 10 28 24 64 31 82 8 17
14 35 14 41 0 8 59 172 105 292 26 69 143 395 150 420 4 14 11 30 15 35 4 6
18 42 30 80 12 39 29 81 36 95 7 14 32 70 54 125 23 55 47 114 54 130 8 17 22
53 31 80 10 28 22 55 25 60 16 23 100 288 111 349 15 91 9 189 -15 215 -25 28
-36 26 -36 -4z m-796 -2221 c8 -20 -11 -54 -29 -54 -18 0 -19 11 -3 45 13 29
23 32 32 9z"/>
<path d="M12914 13305 c-14 -22 -15 -30 -4 -50 20 -37 -1 -77 -56 -103 -38
-19 -49 -31 -70 -79 -31 -70 -68 -204 -95 -348 -25 -138 -36 -174 -92 -310
-70 -171 -155 -482 -183 -675 -11 -68 -31 -146 -60 -223 -30 -81 -47 -145 -53
-201 -9 -81 -38 -175 -66 -212 -13 -18 -14 -15 -15 29 0 26 -3 47 -7 47 -5 0
-21 -31 -37 -70 -24 -59 -56 -108 -56 -86 0 4 -11 -6 -25 -21 -18 -21 -24 -24
-25 -12 0 9 -6 29 -14 43 l-14 27 -5 -33 c-3 -18 -12 -60 -21 -93 -15 -59 -15
-61 10 -112 29 -61 48 -71 69 -39 14 20 22 23 60 18 25 -2 45 -2 45 2 0 39 49
207 80 273 22 46 43 95 46 108 3 14 10 28 15 31 5 3 9 14 9 25 0 12 7 19 20
19 15 0 23 12 36 56 9 30 13 58 11 61 -10 10 -27 -8 -27 -28 0 -11 -4 -18 -9
-15 -13 8 19 138 39 161 42 47 68 127 141 435 17 69 34 133 39 142 6 10 10 26
10 36 0 29 79 303 102 352 47 102 62 140 98 255 43 133 82 276 111 405 11 47
26 111 33 142 12 49 11 58 -1 62 -21 8 -21 8 -39 -19z"/>
<path d="M16302 13251 c-22 -13 34 -148 69 -166 37 -20 46 -19 54 6 5 14 0 28
-14 43 -34 37 -26 62 10 30 16 -14 22 -14 48 -3 17 8 31 17 31 21 0 6 -121 59
-165 72 -11 3 -26 2 -33 -3z"/>
<path d="M14820 13170 c0 -5 7 -10 16 -10 8 0 12 5 9 10 -3 6 -10 10 -16 10
-5 0 -9 -4 -9 -10z"/>
<path d="M14594 13119 c-19 -22 -19 -22 5 -10 31 17 49 1 34 -31 -6 -13 -21
-57 -34 -98 -12 -41 -43 -140 -69 -220 -70 -214 -82 -257 -77 -277 4 -17 4
-17 12 0 4 11 18 29 30 41 12 12 39 57 60 99 33 66 38 87 37 140 -1 72 18 145
48 188 12 16 19 37 16 46 -4 9 3 36 15 61 l22 45 -22 19 c-30 24 -54 23 -77
-3z"/>
<path d="M6023 13113 c9 -2 23 -2 30 0 6 3 -1 5 -18 5 -16 0 -22 -2 -12 -5z"/>
<path d="M5928 13103 c12 -2 32 -2 45 0 12 2 2 4 -23 4 -25 0 -35 -2 -22 -4z"/>
<path d="M14304 13050 c-117 -64 -461 -434 -439 -470 3 -5 18 -7 35 -6 23 2
30 -2 30 -16 0 -22 -54 -122 -128 -238 -30 -46 -89 -141 -130 -210 -86 -143
-119 -190 -136 -190 -7 0 -19 15 -27 32 -8 18 -21 34 -30 36 -28 5 -115 -88
-154 -166 -43 -87 -43 -118 -2 -115 36 2 35 -15 -8 -98 -25 -48 -40 -97 -54
-177 -19 -107 -39 -154 -70 -167 -11 -4 -12 5 -6 50 9 75 -8 72 -44 -7 -37
-82 -46 -127 -26 -134 21 -8 19 -60 -6 -130 -11 -32 -33 -108 -48 -168 -19
-79 -33 -113 -46 -120 -11 -6 -40 -28 -65 -50 l-45 -38 -3 33 c-4 38 -22 65
-22 34 0 -11 -6 -37 -14 -60 -21 -61 -36 -156 -29 -188 5 -27 8 -28 42 -23 20
4 46 6 58 6 15 0 21 5 17 15 -3 8 7 32 23 52 48 62 86 141 98 203 21 112 90
336 111 360 10 12 10 18 -1 33 -18 26 -8 54 32 84 39 30 71 88 103 188 12 39
25 77 30 86 5 9 12 34 15 55 4 22 10 53 15 69 5 17 11 47 15 67 6 40 38 65 98
77 24 5 45 34 143 200 120 205 159 266 312 501 88 135 110 160 313 363 122
120 212 217 203 217 -9 0 -27 11 -40 25 -13 14 -29 25 -36 25 -7 0 -45 -18
-84 -40z"/>
<path d="M14007 13053 c3 -7 9 -13 15 -13 5 0 6 5 2 12 -4 7 -3 8 4 4 8 -5 5
-18 -12 -44 -28 -46 -38 -82 -23 -82 27 0 137 82 137 101 0 5 -17 11 -37 15
-21 4 -42 10 -48 14 -17 12 -43 8 -38 -7z"/>
<path d="M14085 12944 c-108 -91 -175 -131 -233 -140 -55 -8 -62 -21 -16 -30
24 -4 47 -2 68 8 53 26 304 237 281 237 -5 0 -50 -34 -100 -75z"/>
<path d="M14684 12939 c-4 -6 -8 -47 -10 -89 -2 -60 -13 -112 -48 -218 -41
-129 -65 -224 -54 -212 8 8 96 233 121 311 32 96 42 171 27 198 -12 23 -25 27
-36 10z"/>
<path d="M16806 12912 c-3 -5 -8 -28 -12 -51 -6 -37 -3 -47 25 -86 37 -51 49
-141 21 -154 -8 -4 -33 -16 -55 -27 -49 -24 -65 -60 -46 -107 29 -67 25 -107
-16 -176 -21 -36 -60 -87 -87 -114 -42 -44 -50 -48 -58 -33 -5 10 -7 28 -4 41
5 19 3 23 -9 18 -22 -8 -272 -287 -365 -408 -81 -104 -146 -166 -259 -248
-145 -105 -238 -144 -366 -154 -69 -5 -88 -2 -133 17 -48 21 -57 30 -53 54 1
5 -5 6 -14 2 -9 -3 -14 -2 -11 3 3 4 -4 17 -16 27 -14 13 -19 14 -13 4 4 -8
-2 -6 -13 5 -12 11 -38 51 -59 90 -45 81 -66 92 -83 41 -17 -52 -35 -63 -55
-32 -16 24 -16 28 5 80 26 61 22 82 -15 96 -75 29 -75 29 -75 -42 0 -58 4 -71
48 -145 116 -201 288 -323 517 -368 110 -21 195 7 366 122 141 95 192 142 268
250 40 56 107 137 150 181 62 64 248 298 309 388 106 159 178 296 188 360 9
66 -12 264 -35 317 -20 46 -36 64 -45 49z m-1082 -1538 c22 -8 20 -36 -4 -62
-24 -26 -95 -30 -125 -8 -19 14 -19 15 -2 34 25 28 100 48 131 36z"/>
<path d="M12536 12615 c-3 -9 -6 -22 -5 -28 0 -7 5 -1 10 12 5 13 8 26 5 28
-2 2 -6 -3 -10 -12z"/>
<path d="M12516 12543 c-6 -14 -5 -15 5 -6 7 7 10 15 7 18 -3 3 -9 -2 -12 -12z"/>
<path d="M22152 12425 c0 -16 2 -22 5 -12 2 9 2 23 0 30 -3 6 -5 -1 -5 -18z"/>
<path d="M17260 12303 c-18 -38 -36 -72 -39 -78 -3 -5 4 -3 14 5 24 20 78 140
62 140 -2 0 -18 -30 -37 -67z"/>
<path d="M23416 12268 c-13 -29 -44 -100 -70 -157 -26 -57 -45 -105 -43 -107
15 -15 76 99 107 201 12 39 25 80 30 93 19 45 -1 20 -24 -30z"/>
<path d="M13311 11930 c-69 -136 -109 -229 -127 -292 -14 -51 -36 -129 -49
-173 -13 -43 -23 -81 -21 -83 9 -9 60 124 86 226 33 125 49 163 147 339 53 96
87 183 71 183 -3 0 -51 -90 -107 -200z"/>
<path d="M22042 11887 c-37 -140 -37 -137 -18 -137 37 0 73 137 58 222 -6 34
-10 28 -40 -85z"/>
<path d="M15364 11583 c3 -48 8 -61 32 -80 16 -13 36 -23 44 -23 12 0 13 2 1
9 -11 7 -10 10 4 18 16 9 15 11 -6 16 -29 7 -59 54 -59 91 0 14 -5 26 -10 26
-6 0 -9 -23 -6 -57z"/>
<path d="M15880 11585 c-8 -7 -53 -37 -100 -65 -92 -54 -99 -65 -16 -24 46 22
151 102 136 104 -3 0 -12 -7 -20 -15z"/>
<path d="M12247 11520 c-10 -41 -20 -84 -22 -95 -2 -11 -24 -73 -49 -137 -67
-172 -59 -179 14 -13 26 58 82 280 78 304 -2 9 -11 -18 -21 -59z"/>
<path d="M15678 11515 c-2 -3 -42 -11 -89 -19 l-84 -15 80 2 c57 1 87 7 105
20 17 11 19 17 9 17 -9 0 -18 -2 -21 -5z"/>
<path d="M14180 11360 c-28 -56 -50 -104 -47 -106 6 -6 46 35 61 64 18 34 47
134 42 140 -3 2 -28 -42 -56 -98z"/>
<path d="M15658 11453 c7 -3 16 -2 19 1 4 3 -2 6 -13 5 -11 0 -14 -3 -6 -6z"/>
<path d="M14060 11315 c0 -8 4 -15 10 -15 5 0 7 7 4 15 -4 8 -8 15 -10 15 -2
0 -4 -7 -4 -15z"/>
<path d="M13041 11164 c0 -11 3 -14 6 -6 3 7 2 16 -1 19 -3 4 -6 -2 -5 -13z"/>
<path d="M13006 11055 c-15 -49 -43 -137 -62 -194 -36 -105 -37 -135 -5 -92
27 35 59 136 71 221 6 41 16 87 22 102 5 15 8 33 6 40 -3 7 -17 -27 -32 -77z"/>
<path d="M18558 10893 c7 -3 16 -2 19 1 4 3 -2 6 -13 5 -11 0 -14 -3 -6 -6z"/>
<path d="M18550 10870 c-58 -10 -145 -26 -195 -35 -49 -9 -112 -21 -139 -26
-70 -12 -68 -18 6 -13 129 10 31 -15 -162 -41 -253 -34 -509 -74 -605 -95 -54
-12 -193 -36 -350 -60 -160 -25 -273 -45 -435 -77 -225 -45 -263 -52 -420 -78
-389 -64 -543 -97 -875 -185 -318 -85 -523 -126 -890 -180 -77 -12 -169 -27
-205 -35 -36 -8 -123 -25 -195 -39 -354 -67 -589 -122 -620 -146 -5 -4 -55
-23 -110 -42 -107 -38 -224 -67 -374 -93 -51 -9 -166 -41 -255 -71 -235 -79
-333 -104 -412 -104 -47 0 -83 -7 -113 -20 -24 -11 -58 -20 -77 -20 -66 0 -32
-30 74 -65 41 -13 56 -14 67 -5 8 6 19 9 25 5 18 -11 11 -24 -17 -31 -80 -19
-134 -70 -119 -110 9 -24 94 -14 222 27 54 17 171 53 259 81 88 27 171 54 185
59 13 6 87 22 163 35 77 13 143 27 147 29 13 8 166 51 280 79 168 40 286 64
415 81 66 10 124 21 129 25 5 5 6 16 2 25 -4 13 -12 15 -29 10 -12 -4 -51 -11
-87 -15 -36 -5 -81 -13 -100 -20 -19 -6 -53 -11 -75 -11 -22 0 -44 -4 -50 -8
-13 -11 -124 4 -138 18 -7 7 -7 14 -2 20 9 7 134 29 270 47 66 9 221 43 270
59 25 9 50 13 55 10 11 -7 142 14 154 25 5 5 14 6 20 4 7 -3 42 7 79 21 41 15
77 23 92 19 17 -4 26 0 34 15 10 19 18 20 89 14 69 -5 86 -2 165 26 68 24 106
31 160 31 40 0 88 5 107 10 19 6 81 19 137 30 81 14 112 25 147 50 35 26 52
31 78 28 21 -4 65 5 123 25 51 17 116 31 150 32 39 1 71 9 93 22 19 12 76 27
138 37 58 9 110 19 115 22 6 3 34 7 62 9 29 2 70 8 92 13 22 6 99 22 170 36
149 29 239 49 309 71 28 8 57 13 66 10 9 -3 32 1 51 9 19 8 61 17 94 21 33 3
116 18 185 32 69 14 152 27 185 28 66 3 230 38 368 79 49 15 92 24 96 21 5 -2
33 2 62 10 30 9 113 25 184 36 86 14 133 26 138 36 7 11 21 13 61 8 41 -5 61
-3 87 11 19 10 39 17 46 16 7 -2 31 7 54 18 22 12 47 19 55 16 8 -3 35 4 61
15 30 13 75 22 119 24 39 1 80 6 92 9 34 11 26 28 -10 24 -24 -2 -33 1 -33 12
0 12 18 16 81 21 82 6 104 12 104 30 0 13 -58 9 -180 -11z m-207 -67 c-7 -2
-21 -2 -30 0 -10 3 -4 5 12 5 17 0 24 -2 18 -5z m-2273 -448 c0 -11 -41 -24
-95 -30 -33 -3 -82 -11 -108 -17 -26 -5 -51 -7 -54 -4 -4 3 3 6 13 6 11 0 25
5 32 12 7 7 12 9 12 6 0 -3 33 3 73 12 71 18 127 24 127 15z m-405 -85 c-7
-11 -69 -24 -87 -17 -7 2 3 9 22 15 46 13 73 14 65 2z m-648 -175 c-36 -19
-187 -39 -199 -27 -15 15 87 38 177 41 50 1 50 1 22 -14z m-352 -65 c-42 -20
-165 -27 -165 -11 0 6 21 13 48 16 26 3 54 8 62 9 8 2 33 4 55 4 l40 1 -40
-19z m-255 -24 c0 -3 -4 -8 -10 -11 -5 -3 -10 -1 -10 4 0 6 5 11 10 11 6 0 10
-2 10 -4z m-239 -61 c-39 -17 -51 -19 -51 -6 0 10 27 17 65 19 13 1 8 -4 -14
-13z m-991 -294 c0 -15 -25 -31 -47 -31 -31 0 -32 37 0 42 25 4 47 -1 47 -11z
m-140 -16 c0 -5 -13 -13 -27 -17 -32 -9 -56 8 -33 23 19 11 61 8 60 -6z m-90
-19 c0 -20 -16 -29 -40 -21 -32 10 -25 35 10 35 19 0 30 -5 30 -14z m-490
-141 c17 -21 -8 -57 -55 -79 -29 -14 -39 -15 -51 -5 -16 13 -11 62 8 87 14 17
83 15 98 -3z"/>
<path d="M20897 10726 c-12 -31 -17 -152 -7 -166 18 -27 30 9 30 98 0 75 -10
103 -23 68z"/>
<path d="M20972 10580 c0 -14 2 -19 5 -12 2 6 2 18 0 25 -3 6 -5 1 -5 -13z"/>
<path d="M12025 9580 c-11 -17 5 -31 19 -17 14 12 12 27 -4 27 -5 0 -12 -4
-15 -10z"/>
<path d="M7279 8684 c-374 -378 -421 -416 -524 -418 -38 -1 -51 -5 -53 -18 -2
-12 5 -19 22 -24 36 -9 120 28 198 87 53 40 277 266 497 502 107 114 41 53
-140 -129z"/>
<path d="M7186 8660 c-18 -17 -50 -37 -69 -45 -32 -13 -38 -13 -51 0 -22 22
-27 20 -82 -32 -59 -57 -111 -123 -96 -123 6 0 14 -16 18 -35 3 -19 11 -35 18
-35 23 0 121 93 280 268 37 40 28 42 -18 2z"/>
</g>
</svg>
